<svg shape-rendering="crispEdges" width="24" height="24" viewBox="0 0 24 24" fill="none" xmlns="http://www.w3.org/2000/svg">
<g id="Frame 430" filter="url(#filter0_i_202_1596)">
<g clip-path="url(#clip0_202_1596)">
<rect width="24" height="24" fill="#C7A40C"/>
<g id="Group 207">
<rect id="Rectangle 10105" x="14" y="9" width="1" height="1" fill="black"/>
<rect id="Rectangle 10238" x="18" y="5" width="1" height="1" fill="black"/>
<rect id="Rectangle 10239" x="19" y="5" width="1" height="1" fill="black"/>
<rect id="Rectangle 10517" x="19" y="6" width="1" height="1" fill="black"/>
<rect id="Rectangle 10518" x="20" y="7" width="1" height="1" fill="black"/>
<rect id="Rectangle 10240" x="19" y="4" width="1" height="1" fill="black"/>
<rect id="Rectangle 10241" x="19" y="3" width="1" height="1" fill="black"/>
<rect id="Rectangle 10242" x="20" y="3" width="1" height="1" fill="black"/>
<rect id="Rectangle 10243" x="20" y="2" width="1" height="1" fill="black"/>
<rect id="Rectangle 10244" x="19" y="2" width="1" height="1" fill="black"/>
<rect id="Rectangle 10245" x="18" y="3" width="1" height="1" fill="black"/>
<rect id="Rectangle 10246" x="17" y="3" width="1" height="1" fill="black"/>
<rect id="Rectangle 10355" x="2" y="3" width="1" height="1" fill="black"/>
<rect id="Rectangle 10622" x="3" y="3" width="1" height="1" fill="black"/>
<rect id="Rectangle 10623" x="3" y="4" width="1" height="1" fill="black"/>
<rect id="Rectangle 10624" x="4" y="4" width="1" height="1" fill="black"/>
<rect id="Rectangle 10625" x="4" y="3" width="1" height="1" fill="black"/>
<rect id="Rectangle 10642" x="4" y="2" width="1" height="1" fill="black"/>
<rect id="Rectangle 10626" x="5" y="3" width="1" height="1" fill="black"/>
<rect id="Rectangle 10641" x="5" y="2" width="1" height="1" fill="black"/>
<rect id="Rectangle 10627" x="6" y="2" width="1" height="1" fill="black"/>
<rect id="Rectangle 10247" x="17" y="4" width="1" height="1" fill="black"/>
<rect id="Rectangle 10338" x="16" y="4" width="1" height="1" fill="black"/>
<rect id="Rectangle 10339" x="15" y="5" width="1" height="1" fill="black"/>
<rect id="Rectangle 10340" x="13" y="4" width="1" height="1" fill="black"/>
<rect id="Rectangle 10341" x="12" y="4" width="3" height="1" fill="black"/>
<rect id="Rectangle 10554" x="11" y="3" width="5" height="1" fill="black"/>
<rect id="Rectangle 10555" x="10" y="2" width="7" height="1" fill="#2B282C"/>
<rect id="Rectangle 10601" x="10" y="3" width="1" height="1" fill="#2B282C"/>
<rect id="Rectangle 10602" x="10" y="4" width="1" height="1" fill="#2B282C"/>
<rect id="Rectangle 10603" x="9" y="3" width="1" height="1" fill="#2B282C"/>
<rect id="Rectangle 10604" x="9" y="2" width="1" height="1" fill="#2B282C"/>
<rect id="Rectangle 10605" x="8" y="2" width="1" height="1" fill="#2B282C"/>
<rect id="Rectangle 10606" x="7" y="3" width="1" height="1" fill="#2B282C"/>
<rect id="Rectangle 10607" x="6" y="4" width="1" height="1" fill="#2B282C"/>
<rect id="Rectangle 10342" width="1" height="1" transform="matrix(1 0 0 -1 13 4)" fill="black"/>
<rect id="Rectangle 10343" width="6" height="1" transform="matrix(1 0 0 -1 12 2)" fill="#2B282C"/>
<rect id="Rectangle 10106" x="15" y="8" width="1" height="1" fill="black"/>
<rect id="Rectangle 10107" x="16" y="8" width="1" height="1" fill="black"/>
<rect id="Rectangle 10108" x="17" y="8" width="1" height="1" fill="black"/>
<rect id="Rectangle 10109" x="17" y="9" width="1" height="1" fill="black"/>
<rect id="Rectangle 10111" x="18" y="9" width="1" height="1" fill="black"/>
<rect id="Rectangle 10110" x="17" y="10" width="1" height="1" fill="black"/>
<rect id="Rectangle 10112" x="17" y="11" width="1" height="1" fill="black"/>
<rect id="Rectangle 10113" x="17" y="12" width="1" height="1" fill="black"/>
<rect id="Rectangle 10115" x="17" y="13" width="1" height="1" fill="black"/>
<rect id="Rectangle 10116" x="16" y="14" width="1" height="1" fill="black"/>
<rect id="Rectangle 10117" x="16" y="15" width="1" height="1" fill="black"/>
<rect id="Rectangle 10164" x="18" y="18" width="1" height="1" fill="#2C2828"/>
<rect id="Rectangle 10377" x="18" y="20" width="1" height="1" fill="#3F3A3A"/>
<rect id="Rectangle 10378" x="18" y="19" width="1" height="1" fill="#3F3A3A"/>
<rect id="Rectangle 10166" x="19" y="13" width="1" height="4" fill="black"/>
<rect id="Rectangle 10167" x="20" y="9" width="1" height="8" fill="black"/>
<rect id="Rectangle 10168" x="21" y="13" width="1" height="4" fill="black"/>
<rect id="Rectangle 10368" x="21" y="18" width="1" height="2" fill="#3F3B3B"/>
<rect id="Rectangle 10369" x="20" y="18" width="1" height="3" fill="#3F3B3B"/>
<rect id="Rectangle 10379" x="18" y="21" width="1" height="2" fill="#3F3B3B"/>
<rect id="Rectangle 10600" x="17" y="22" width="1" height="1" fill="#3F3B3B"/>
<rect id="Rectangle 10370" x="19" y="18" width="1" height="4" fill="#3F3B3B"/>
<rect id="Rectangle 10169" x="21" y="10" width="1" height="2" fill="black"/>
<rect id="Rectangle 10118" x="15" y="9" width="1" height="8" fill="black"/>
<rect id="Rectangle 10222" x="12" y="18" width="1" height="1" fill="black"/>
<rect id="Rectangle 10119" x="14" y="10" width="1" height="6" fill="black"/>
<rect id="Rectangle 10120" x="13" y="14" width="1" height="1" fill="black"/>
<rect id="Rectangle 10121" x="13" y="13" width="1" height="1" fill="black"/>
<rect id="Rectangle 10122" x="13" y="12" width="1" height="1" fill="black"/>
<rect id="Rectangle 10128" x="13" y="9" width="1" height="1" fill="#966B4F"/>
<rect id="Rectangle 10199" x="8" y="9" width="1" height="1" fill="#533724"/>
<rect id="Rectangle 10200" x="8" y="10" width="1" height="1" fill="#533724"/>
<rect id="Rectangle 10201" x="8" y="11" width="1" height="1" fill="#533724"/>
<rect id="Rectangle 10205" x="9" y="12" width="1" height="1" fill="#533724"/>
<rect id="Rectangle 10207" x="11" y="14" width="1" height="1" fill="#533724"/>
<rect id="Rectangle 10208" x="11" y="15" width="1" height="1" fill="#533724"/>
<rect id="Rectangle 10202" x="7" y="10" width="1" height="1" fill="#533724"/>
<rect id="Rectangle 10203" x="6" y="9" width="1" height="1" fill="#533724"/>
<rect id="Rectangle 10129" x="14" y="8" width="1" height="1" fill="#966B4F"/>
<rect id="Rectangle 10130" x="15" y="8" width="1" height="1" fill="#966B4F"/>
<rect id="Rectangle 10131" x="16" y="8" width="1" height="1" fill="#966B4F"/>
<rect id="Rectangle 10146" x="16" y="6" width="1" height="1" fill="#9C6B4A"/>
<rect id="Rectangle 10148" x="17" y="6" width="1" height="1" fill="#9C6B4A"/>
<rect id="Rectangle 10149" x="18" y="6" width="1" height="1" fill="#9C6B4A"/>
<rect id="Rectangle 10150" x="17" y="5" width="1" height="1" fill="#9C6B4A"/>
<rect id="Rectangle 10152" x="18" y="4" width="1" height="1" fill="#9C6B4A"/>
<rect id="Rectangle 10151" x="16" y="5" width="1" height="1" fill="#9C6B4A"/>
<rect id="Rectangle 10147" x="15" y="6" width="1" height="1" fill="#9C6B4A"/>
<rect id="Rectangle 10132" x="17" y="8" width="1" height="1" fill="#966B4F"/>
<rect id="Rectangle 10133" x="18" y="8" width="1" height="1" fill="#966B4F"/>
<rect id="Rectangle 10134" x="18" y="10" width="1" height="1" fill="#966B4F"/>
<rect id="Rectangle 10408" x="18" y="9" width="1" height="1" fill="#966B4F"/>
<rect id="Rectangle 10135" x="18" y="11" width="1" height="1" fill="#966B4F"/>
<rect id="Rectangle 10136" x="18" y="12" width="1" height="1" fill="#966B4F"/>
<rect id="Rectangle 10170" x="21" y="12" width="1" height="1" fill="#533724"/>
<rect id="Rectangle 10185" x="22" y="12" width="1" height="1" fill="#533724"/>
<rect id="Rectangle 10186" x="22" y="11" width="1" height="1" fill="#533724"/>
<rect id="Rectangle 10187" x="22" y="10" width="1" height="1" fill="#533724"/>
<rect id="Rectangle 10188" x="21" y="9" width="1" height="1" fill="#533724"/>
<rect id="Rectangle 10137" x="18" y="13" width="1" height="1" fill="#966B4F"/>
<rect id="Rectangle 10138" x="17" y="14" width="1" height="1" fill="#966B4F"/>
<rect id="Rectangle 10159" x="18" y="15" width="1" height="1" fill="#514953"/>
<rect id="Rectangle 10160" x="17" y="16" width="1" height="1" fill="#B7AEB0"/>
<rect id="Rectangle 10511" x="18" y="16" width="1" height="1" fill="#B7AEB0"/>
<rect id="Rectangle 10512" x="18" y="15" width="1" height="1" fill="#B7AEB0"/>
<rect id="Rectangle 10513" x="18" y="14" width="1" height="1" fill="#B7AEB0"/>
<rect id="Rectangle 10514" x="19" y="9" width="1" height="5" fill="#B7AEB0"/>
<rect id="Rectangle 10161" x="16" y="17" width="1" height="1" fill="#B7AEB0"/>
<rect id="Rectangle 10510" x="17" y="17" width="1" height="1" fill="#B7AEB0"/>
<rect id="Rectangle 10214" x="12" y="15" width="1" height="1" fill="#B7AEB0"/>
<rect id="Rectangle 10502" x="12" y="14" width="1" height="1" fill="#B7AEB0"/>
<rect id="Rectangle 10494" x="11" y="15" width="1" height="1" fill="#D0C8CA"/>
<rect id="Rectangle 10495" x="11" y="14" width="1" height="1" fill="#D0C8CA"/>
<rect id="Rectangle 10501" x="11" y="14" width="1" height="1" fill="#D0C8CA"/>
<rect id="Rectangle 10527" x="10" y="13" width="1" height="1" fill="#D0C8CA"/>
<rect id="Rectangle 10496" x="11" y="13" width="1" height="1" fill="#B7AEB0"/>
<rect id="Rectangle 10497" x="11" y="11" width="1" height="1" fill="#B7AEB0"/>
<rect id="Rectangle 10499" x="11" y="10" width="1" height="1" fill="#B7AEB0"/>
<rect id="Rectangle 10500" x="11" y="9" width="1" height="1" fill="#B7AEB0"/>
<rect id="Rectangle 10498" x="11" y="12" width="1" height="1" fill="#B7AEB0"/>
<rect id="Rectangle 10505" x="10" y="12" width="1" height="1" fill="#D0C8CA"/>
<rect id="Rectangle 10506" x="10" y="11" width="1" height="1" fill="#D0C8CA"/>
<rect id="Rectangle 10507" x="10" y="10" width="1" height="1" fill="#D0C8CA"/>
<rect id="Rectangle 10508" x="10" y="9" width="1" height="1" fill="#D0C8CA"/>
<rect id="Rectangle 10529" x="10" y="8" width="1" height="1" fill="#D0C8CA"/>
<rect id="Rectangle 10530" x="9" y="8" width="1" height="1" fill="#D0C8CA"/>
<rect id="Rectangle 10531" x="10" y="7" width="1" height="1" fill="#D0C8CA"/>
<rect id="Rectangle 10532" x="11" y="8" width="1" height="1" fill="#D0C8CA"/>
<rect id="Rectangle 10533" width="1" height="1" transform="matrix(1 0 0 -1 12 8)" fill="#D0C8CA"/>
<rect id="Rectangle 10534" width="1" height="1" transform="matrix(1 0 0 -1 13 7)" fill="#D0C8CA"/>
<rect id="Rectangle 10535" width="1" height="1" transform="matrix(1 0 0 -1 14 6)" fill="#D0C8CA"/>
<rect id="Rectangle 10536" width="1" height="1" transform="matrix(1 0 0 -1 13 6)" fill="#D0C8CA"/>
<rect id="Rectangle 10537" width="1" height="1" transform="matrix(1 0 0 -1 12 7)" fill="#D0C8CA"/>
<rect id="Rectangle 10538" width="1" height="1" transform="matrix(1 0 0 -1 11 8)" fill="#D0C8CA"/>
<rect id="Rectangle 10539" width="1" height="1" transform="matrix(1 0 0 -1 11 7)" fill="#D0C8CA"/>
<rect id="Rectangle 10540" width="1" height="1" transform="matrix(1 0 0 -1 12 6)" fill="#D0C8CA"/>
<rect id="Rectangle 10509" x="13" y="8" width="1" height="1" fill="#D0C8CA"/>
<rect id="Rectangle 10267" x="8" y="13" width="1" height="1" fill="white"/>
<rect id="Rectangle 10335" x="12" y="8" width="1" height="1" fill="#A39A9A"/>
<rect id="Rectangle 10336" x="13" y="7" width="1" height="1" fill="#A39A9A"/>
<rect id="Rectangle 10337" x="14" y="6" width="1" height="1" fill="#A39A9A"/>
<rect id="Rectangle 10269" x="9" y="13" width="1" height="1" fill="#D0C8CA"/>
<rect id="Rectangle 10270" x="8" y="12" width="1" height="1" fill="#D0C8CA"/>
<rect id="Rectangle 10268" x="9" y="14" width="1" height="1" fill="white"/>
<rect id="Rectangle 10277" x="8" y="14" width="1" height="1" fill="#D0C8CA"/>
<rect id="Rectangle 10279" x="7" y="13" width="1" height="1" fill="white"/>
<rect id="Rectangle 10421" x="6" y="13" width="1" height="1" fill="white"/>
<rect id="Rectangle 10422" x="4" y="12" width="1" height="1" fill="white"/>
<rect id="Rectangle 10426" x="4" y="11" width="1" height="1" fill="#D0C8CA"/>
<rect id="Rectangle 10423" x="3" y="11" width="1" height="1" fill="white"/>
<rect id="Rectangle 10424" x="3" y="10" width="1" height="1" fill="#D0C8CA"/>
<rect id="Rectangle 10425" x="2" y="10" width="1" height="1" fill="white"/>
<rect id="Rectangle 10418" x="7" y="12" width="1" height="1" fill="#D0C8CA"/>
<rect id="Rectangle 10419" x="6" y="11" width="1" height="1" fill="#D0C8CA"/>
<rect id="Rectangle 10420" x="5" y="10" width="1" height="1" fill="#D0C8CA"/>
<rect id="Rectangle 10294" x="6" y="12" width="1" height="1" fill="#D0C8CA"/>
<rect id="Rectangle 10317" x="5" y="11" width="1" height="1" fill="#D0C8CA"/>
<rect id="Rectangle 10318" x="4" y="10" width="1" height="1" fill="#D0C8CA"/>
<rect id="Rectangle 10319" x="3" y="9" width="1" height="1" fill="#D0C8CA"/>
<rect id="Rectangle 10321" x="1" y="9" width="1" height="1" fill="white"/>
<rect id="Rectangle 10292" x="5" y="12" width="1" height="1" fill="white"/>
<rect id="Rectangle 10271" x="10" y="14" width="1" height="1" fill="#D0C8CA"/>
<rect id="Rectangle 10272" x="10" y="15" width="1" height="1" fill="#D0C8CA"/>
<rect id="Rectangle 10273" x="9" y="15" width="1" height="1" fill="#D0C8CA"/>
<rect id="Rectangle 10427" x="11" y="20" width="1" height="1" fill="#D0C8CA"/>
<rect id="Rectangle 10429" x="10" y="21" width="1" height="1" fill="#D0C8CA"/>
<rect id="Rectangle 10556" x="11" y="21" width="1" height="1" fill="#D0C8CA"/>
<rect id="Rectangle 10557" x="12" y="20" width="1" height="1" fill="#D0C8CA"/>
<rect id="Rectangle 10558" x="12" y="21" width="1" height="1" fill="#D0C8CA"/>
<rect id="Rectangle 10559" x="13" y="21" width="1" height="1" fill="#D0C8CA"/>
<rect id="Rectangle 10560" x="14" y="22" width="1" height="1" fill="#D0C8CA"/>
<rect id="Rectangle 10561" x="13" y="22" width="1" height="1" fill="#D0C8CA"/>
<rect id="Rectangle 10562" x="12" y="22" width="1" height="1" fill="#D0C8CA"/>
<rect id="Rectangle 10563" x="11" y="22" width="1" height="1" fill="#D0C8CA"/>
<rect id="Rectangle 10564" x="10" y="22" width="1" height="1" fill="#D0C8CA"/>
<rect id="Rectangle 10565" x="9" y="22" width="1" height="1" fill="#D0C8CA"/>
<rect id="Rectangle 10431" x="10" y="18" width="1" height="1" fill="#D0C8CA"/>
<rect id="Rectangle 10447" x="10" y="17" width="1" height="1" fill="#D0C8CA"/>
<rect id="Rectangle 10434" x="8" y="16" width="1" height="1" fill="white"/>
<rect id="Rectangle 10438" x="8" y="15" width="1" height="1" fill="white"/>
<rect id="Rectangle 10439" x="7" y="14" width="1" height="1" fill="#D0C8CA"/>
<rect id="Rectangle 10440" x="6" y="15" width="1" height="1" fill="#D0C8CA"/>
<rect id="Rectangle 10443" x="6" y="14" width="1" height="1" fill="#D0C8CA"/>
<rect id="Rectangle 10445" x="4" y="14" width="1" height="1" fill="#D0C8CA"/>
<rect id="Rectangle 10446" x="3" y="15" width="1" height="1" fill="#D0C8CA"/>
<rect id="Rectangle 10441" x="6" y="16" width="1" height="1" fill="#D0C8CA"/>
<rect id="Rectangle 10442" x="5" y="17" width="1" height="1" fill="#D0C8CA"/>
<rect id="Rectangle 10435" x="8" y="17" width="1" height="1" fill="white"/>
<rect id="Rectangle 10436" x="7" y="18" width="1" height="1" fill="#D0C8CA"/>
<rect id="Rectangle 10437" x="6" y="19" width="1" height="1" fill="#D0C8CA"/>
<rect id="Rectangle 10432" x="9" y="19" width="1" height="1" fill="#D0C8CA"/>
<rect id="Rectangle 10433" x="8" y="20" width="1" height="1" fill="#D0C8CA"/>
<rect id="Rectangle 10428" x="11" y="19" width="1" height="1" fill="#D0C8CA"/>
<rect id="Rectangle 10371" x="14" y="21" width="1" height="1" fill="#D0C8CA"/>
<rect id="Rectangle 10373" x="15" y="21" width="1" height="1" fill="#D0C8CA"/>
<rect id="Rectangle 10374" x="15" y="22" width="1" height="1" fill="#D0C8CA"/>
<rect id="Rectangle 10376" x="16" y="21" width="1" height="1" fill="#D0C8CA"/>
<rect id="Rectangle 10372" x="14" y="20" width="1" height="1" fill="#D0C8CA"/>
<rect id="Rectangle 10216" x="13" y="17" width="1" height="1" fill="#D0C8CA"/>
<rect id="Rectangle 10226" x="13" y="16" width="1" height="1" fill="#B7AEB0"/>
<rect id="Rectangle 10217" x="14" y="18" width="1" height="1" fill="#D0C8CA"/>
<rect id="Rectangle 10225" x="14" y="17" width="1" height="1" fill="#B7AEB0"/>
<rect id="Rectangle 10218" x="15" y="19" width="1" height="1" fill="#D0C8CA"/>
<rect id="Rectangle 10230" x="16" y="19" width="1" height="1" fill="#D0C8CA"/>
<rect id="Rectangle 10516" x="17" y="18" width="1" height="1" fill="#D0C8CA"/>
<rect id="Rectangle 10231" x="16" y="20" width="1" height="1" fill="#D0C8CA"/>
<rect id="Rectangle 10232" x="14" y="20" width="2" height="1" fill="#D0C8CA"/>
<rect id="Rectangle 10224" x="15" y="18" width="1" height="1" fill="#B7AEB0"/>
<rect id="Rectangle 10228" x="16" y="18" width="1" height="1" fill="#B7AEB0"/>
<rect id="Rectangle 10219" x="14" y="19" width="1" height="1" fill="#D0C8CA"/>
<rect id="Rectangle 10492" x="13" y="18" width="1" height="1" fill="#D0C8CA"/>
<rect id="Rectangle 10493" x="12" y="16" width="1" height="1" fill="#D0C8CA"/>
<rect id="Rectangle 10448" x="5" y="13" width="1" height="1" fill="#514953"/>
<rect id="Rectangle 10452" x="2" y="11" width="1" height="1" fill="#514953"/>
<rect id="Rectangle 10569" x="3" y="8" width="1" height="1" fill="#514953"/>
<rect id="Rectangle 10570" x="4" y="8" width="1" height="1" fill="#514953"/>
<rect id="Rectangle 10571" x="4" y="7" width="1" height="1" fill="#514953"/>
<rect id="Rectangle 10572" x="4" y="6" width="1" height="1" fill="#514953"/>
<rect id="Rectangle 10573" x="5" y="5" width="1" height="1" fill="#514953"/>
<rect id="Rectangle 10574" x="3" y="6" width="1" height="1" fill="#514953"/>
<rect id="Rectangle 10575" x="3" y="7" width="1" height="1" fill="#514953"/>
<rect id="Rectangle 10576" x="2" y="8" width="1" height="1" fill="#514953"/>
<rect id="Rectangle 10477" x="1" y="10" width="1" height="6" fill="#514953"/>
<rect id="Rectangle 10658" x="-1" y="9" width="3" height="1" fill="#514953"/>
<rect id="Rectangle 10629" y="10" width="1" height="4" fill="#514953"/>
<rect id="Rectangle 10449" x="5" y="14" width="1" height="1" fill="#514953"/>
<rect id="Rectangle 10457" x="7" y="15" width="1" height="3" fill="#514953"/>
<rect id="Rectangle 10458" x="9" y="16" width="1" height="3" fill="#514953"/>
<rect id="Rectangle 10459" x="8" y="18" width="1" height="2" fill="#514953"/>
<rect id="Rectangle 10460" x="7" y="19" width="1" height="2" fill="#514953"/>
<rect id="Rectangle 10456" x="3" y="12" width="1" height="3" fill="#514953"/>
<rect id="Rectangle 10450" x="5" y="15" width="1" height="1" fill="#514953"/>
<rect id="Rectangle 10461" x="4" y="15" width="1" height="1" fill="#514953"/>
<rect id="Rectangle 10462" x="4" y="16" width="1" height="1" fill="#514953"/>
<rect id="Rectangle 10475" x="3" y="16" width="1" height="1" fill="#514953"/>
<rect id="Rectangle 10476" x="2" y="15" width="1" height="1" fill="#514953"/>
<rect id="Rectangle 10463" x="4" y="17" width="1" height="1" fill="#514953"/>
<rect id="Rectangle 10464" x="5" y="18" width="1" height="1" fill="#514953"/>
<rect id="Rectangle 10483" x="4" y="18" width="1" height="1" fill="#514953"/>
<rect id="Rectangle 10485" x="2" y="18" width="1" height="1" fill="#514953"/>
<rect id="Rectangle 10486" x="3" y="19" width="1" height="1" fill="#514953"/>
<rect id="Rectangle 10487" x="5" y="20" width="1" height="1" fill="#514953"/>
<rect id="Rectangle 10473" x="6" y="18" width="1" height="1" fill="#514953"/>
<rect id="Rectangle 10474" x="6" y="17" width="1" height="1" fill="#514953"/>
<rect id="Rectangle 10465" x="5" y="19" width="1" height="1" fill="#514953"/>
<rect id="Rectangle 10466" x="6" y="20" width="1" height="1" fill="#514953"/>
<rect id="Rectangle 10467" x="7" y="21" width="1" height="1" fill="#514953"/>
<rect id="Rectangle 10468" x="8" y="21" width="1" height="1" fill="#514953"/>
<rect id="Rectangle 10469" x="9" y="21" width="1" height="1" fill="#514953"/>
<rect id="Rectangle 10566" x="12" y="21" width="1" height="1" fill="#514953"/>
<rect id="Rectangle 10568" x="12" y="20" width="1" height="1" fill="#514953"/>
<rect id="Rectangle 10567" x="11" y="22" width="1" height="1" fill="#514953"/>
<rect id="Rectangle 10470" x="9" y="20" width="1" height="1" fill="#514953"/>
<rect id="Rectangle 10471" x="10" y="20" width="1" height="1" fill="#514953"/>
<rect id="Rectangle 10472" x="10" y="19" width="1" height="1" fill="#514953"/>
<rect id="Rectangle 10454" x="2" y="13" width="1" height="1" fill="#514953"/>
<rect id="Rectangle 10451" x="5" y="16" width="1" height="1" fill="#514953"/>
<rect id="Rectangle 10455" x="2" y="14" width="1" height="1" fill="#514953"/>
<rect id="Rectangle 10158" x="19" y="8" width="1" height="1" fill="#B7AEB0"/>
<rect id="Rectangle 10192" x="19" y="7" width="1" height="1" fill="#B7AEB0"/>
<rect id="Rectangle 10194" x="14" y="7" width="1" height="1" fill="#B7AEB0"/>
<rect id="Rectangle 10550" x="9" y="7" width="1" height="1" fill="#5B3A5B"/>
<rect id="Rectangle 10551" x="9" y="6" width="1" height="1" fill="#5B3A5B"/>
<rect id="Rectangle 10552" x="10" y="6" width="1" height="1" fill="#5B3A5B"/>
<rect id="Rectangle 10584" x="12" y="7" width="1" height="1" fill="#382C38"/>
<rect id="Rectangle 10585" x="11" y="8" width="1" height="1" fill="#382C38"/>
<rect id="Rectangle 10587" x="10" y="9" width="1" height="1" fill="#514953"/>
<rect id="Rectangle 10588" x="10" y="9" width="1" height="3" fill="#382C38"/>
<rect id="Rectangle 10586" x="13" y="6" width="1" height="1" fill="#382C38"/>
<rect id="Rectangle 10553" x="11" y="5" width="1" height="1" fill="#5B3A5B"/>
<rect id="Rectangle 10548" x="15" y="4" width="1" height="1" fill="#857575"/>
<rect id="Rectangle 10549" x="16" y="3" width="1" height="1" fill="#857575"/>
<rect id="Rectangle 10193" x="15" y="7" width="4" height="1" fill="#B7AEB0"/>
<rect id="Rectangle 10189" x="20" y="8" width="1" height="1" fill="#D0C8CA"/>
<rect id="Rectangle 10190" x="21" y="8" width="1" height="1" fill="#D0C8CA"/>
<rect id="Rectangle 10191" x="22" y="9" width="1" height="1" fill="#D0C8CA"/>
<rect id="Rectangle 10139" x="16" y="16" width="1" height="1" fill="#966B4F"/>
<rect id="Rectangle 10141" x="15" y="17" width="1" height="1" fill="#9C6B4A"/>
<rect id="Rectangle 10229" x="17" y="18" width="1" height="1" fill="#9C6B4A"/>
<rect id="Rectangle 10171" x="22" y="13" width="1" height="1" fill="#9C6B4A"/>
<rect id="Rectangle 10172" x="22" y="14" width="1" height="1" fill="#9C6B4A"/>
<rect id="Rectangle 10173" x="22" y="15" width="1" height="1" fill="#D5A585"/>
<rect id="Rectangle 10367" x="21" y="14" width="1" height="1" fill="#D5A585"/>
<rect id="Rectangle 10547" x="8" y="7" width="1" height="1" fill="#D5A585"/>
<rect id="Rectangle 10174" x="22" y="17" width="1" height="1" fill="#D4A585"/>
<rect id="Rectangle 10176" x="22" y="18" width="1" height="1" fill="#D4A585"/>
<rect id="Rectangle 10177" x="22" y="19" width="1" height="1" fill="#D4A585"/>
<rect id="Rectangle 10178" x="21" y="20" width="1" height="1" fill="#D4A585"/>
<rect id="Rectangle 10362" x="20" y="21" width="1" height="1" fill="#9C6B4A"/>
<rect id="Rectangle 10363" x="19" y="22" width="1" height="1" fill="#9C6B4A"/>
<rect id="Rectangle 10364" x="20" y="22" width="1" height="1" fill="#9C6B4A"/>
<rect id="Rectangle 10365" x="21" y="21" width="1" height="1" fill="#9C6B4A"/>
<rect id="Rectangle 10366" x="22" y="20" width="1" height="1" fill="#9C6B4A"/>
<rect id="Rectangle 10175" x="22" y="16" width="1" height="1" fill="#D4A585"/>
<rect id="Rectangle 10142" x="14" y="16" width="1" height="1" fill="#9C6B4A"/>
<rect id="Rectangle 10143" x="11" y="16" width="1" height="1" fill="#9C6B4A"/>
<rect id="Rectangle 10589" x="11" y="15" width="1" height="1" fill="#9C6B4A"/>
<rect id="Rectangle 10593" x="10" y="15" width="1" height="1" fill="#9C6B4A"/>
<rect id="Rectangle 10599" x="9" y="15" width="1" height="1" fill="#9C6B4A"/>
<rect id="Rectangle 10590" x="10" y="14" width="1" height="1" fill="#9C6B4A"/>
<rect id="Rectangle 10591" x="10" y="13" width="1" height="1" fill="#9C6B4A"/>
<rect id="Rectangle 10592" x="10" y="12" width="1" height="1" fill="#9C6B4A"/>
<rect id="Rectangle 10209" x="10" y="16" width="1" height="1" fill="#9C6B4A"/>
<rect id="Rectangle 10210" x="11" y="17" width="1" height="1" fill="#9C6B4A"/>
<rect id="Rectangle 10211" x="11" y="18" width="1" height="1" fill="#9C6B4A"/>
<rect id="Rectangle 10212" x="12" y="19" width="1" height="1" fill="#9C6B4A"/>
<rect id="Rectangle 10596" x="12" y="20" width="1" height="1" fill="#D4A585"/>
<rect id="Rectangle 10597" x="13" y="21" width="1" height="1" fill="#D4A585"/>
<rect id="Rectangle 10598" x="14" y="22" width="1" height="1" fill="#D4A585"/>
<rect id="Rectangle 10213" x="13" y="20" width="1" height="1" fill="#9C6B4A"/>
<rect id="Rectangle 10196" x="12" y="9" width="1" height="1" fill="#9C6B4A"/>
<rect id="Rectangle 10248" x="17" y="2" width="1" height="1" fill="#9C6B4A"/>
<rect id="Rectangle 10261" x="11" y="4" width="1" height="1" fill="#9C6B4A"/>
<rect id="Rectangle 10541" x="10" y="5" width="1" height="1" fill="#9C6B4A"/>
<rect id="Rectangle 10542" x="9" y="5" width="1" height="1" fill="#9C6B4A"/>
<rect id="Rectangle 10543" x="8" y="6" width="1" height="1" fill="#9C6B4A"/>
<rect id="Rectangle 10545" x="7" y="7" width="1" height="1" fill="#9C6B4A"/>
<rect id="Rectangle 10546" x="8" y="8" width="1" height="1" fill="#533724"/>
<rect id="Rectangle 10544" x="9" y="4" width="1" height="1" fill="#9C6B4A"/>
<rect id="Rectangle 10249" x="18" y="2" width="1" height="1" fill="#9C6B4A"/>
<rect id="Rectangle 10250" x="19" y="1" width="1" height="1" fill="#9C6B4A"/>
<rect id="Rectangle 10344" x="18" y="1" width="1" height="1" fill="#9C6B4A"/>
<rect id="Rectangle 10251" x="20" y="1" width="1" height="1" fill="#9C6B4A"/>
<rect id="Rectangle 10252" x="21" y="1" width="1" height="1" fill="#9C6B4A"/>
<rect id="Rectangle 10253" x="22" y="1" width="1" height="1" fill="#9C6B4A"/>
<rect id="Rectangle 10254" x="21" y="2" width="1" height="1" fill="#9C6B4A"/>
<rect id="Rectangle 10144" x="13" y="14" width="1" height="1" fill="#9C6B4A"/>
<rect id="Rectangle 10478" x="2" y="17" width="1" height="1" fill="#9C6B4A"/>
<rect id="Rectangle 10479" x="3" y="17" width="1" height="1" fill="#9C6B4A"/>
<rect id="Rectangle 10481" x="3" y="18" width="1" height="1" fill="#9C6B4A"/>
<rect id="Rectangle 10482" x="4" y="19" width="1" height="1" fill="#9C6B4A"/>
<rect id="Rectangle 10480" x="2" y="16" width="1" height="1" fill="#9C6B4A"/>
<rect id="Rectangle 10295" width="1" height="1" transform="matrix(-1 0 0 1 8 11)" fill="#9C6B4A"/>
<rect id="Rectangle 10296" width="1" height="1" transform="matrix(-1 0 0 1 7 10)" fill="#9C6B4A"/>
<rect id="Rectangle 10297" width="1" height="1" transform="matrix(-1 0 0 1 6 9)" fill="#9C6B4A"/>
<rect id="Rectangle 10227" x="13" y="15" width="1" height="1" fill="#9C6B4A"/>
<rect id="Rectangle 10140" x="17" y="15" width="1" height="1" fill="#966B4F"/>
<rect id="Rectangle 10123" x="13" y="10" width="1" height="1" fill="black"/>
<rect id="Rectangle 10358" x="9" y="11" width="1" height="1" fill="black"/>
<rect id="Rectangle 10359" x="9" y="10" width="1" height="1" fill="black"/>
<rect id="Rectangle 10528" x="9" y="9" width="1" height="1" fill="black"/>
<rect id="Rectangle 10577" x="7" y="9" width="1" height="1" fill="black"/>
<rect id="Rectangle 10578" x="7" y="8" width="1" height="1" fill="black"/>
<rect id="Rectangle 10579" x="6" y="8" width="1" height="1" fill="black"/>
<rect id="Rectangle 10580" x="5" y="6" width="1" height="3" fill="black"/>
<rect id="Rectangle 10581" x="6" y="5" width="1" height="3" fill="black"/>
<rect id="Rectangle 10582" x="7" y="4" width="1" height="3" fill="black"/>
<rect id="Rectangle 10583" x="8" y="3" width="1" height="3" fill="black"/>
<rect id="Rectangle 10608" x="7" y="2" width="1" height="1" fill="black"/>
<rect id="Rectangle 10609" x="6" y="3" width="1" height="1" fill="black"/>
<rect id="Rectangle 10610" x="5" y="4" width="1" height="1" fill="black"/>
<rect id="Rectangle 10611" x="4" y="5" width="1" height="1" fill="black"/>
<rect id="Rectangle 10612" x="3" y="5" width="1" height="1" fill="black"/>
<rect id="Rectangle 10613" x="2" y="6" width="1" height="1" fill="black"/>
<rect id="Rectangle 10614" x="2" y="7" width="1" height="1" fill="black"/>
<rect id="Rectangle 10615" x="-2" y="8" width="4" height="1" fill="black"/>
<rect id="Rectangle 10616" x="-3" y="7" width="5" height="1" fill="black"/>
<rect id="Rectangle 10617" x="-4" y="6" width="6" height="1" fill="black"/>
<rect id="Rectangle 10618" x="1" y="5" width="1" height="1" fill="black"/>
<rect id="Rectangle 10619" x="2" y="5" width="1" height="1" fill="black"/>
<rect id="Rectangle 10620" x="2" y="4" width="1" height="1" fill="black"/>
<rect id="Rectangle 10621" x="1" y="4" width="1" height="1" fill="black"/>
<rect id="Rectangle 10643" x="1" y="3" width="1" height="1" fill="black"/>
<rect id="Rectangle 10644" y="3" width="1" height="1" fill="black"/>
<rect id="Rectangle 10635" y="4" width="1" height="1" fill="black"/>
<rect id="Rectangle 10657" x="-5" y="5" width="6" height="1" fill="black"/>
<rect id="Rectangle 10114" x="16" y="8" width="1" height="6" fill="black"/>
<rect id="Rectangle 10380" x="19" y="17" width="1" height="1" fill="#2C2828"/>
<rect id="Rectangle 10519" x="15" y="16" width="1" height="1" fill="#2C2828"/>
<rect id="Rectangle 10520" x="15" y="15" width="1" height="1" fill="#2C2828"/>
<rect id="Rectangle 10521" x="14" y="15" width="1" height="1" fill="#2C2828"/>
<rect id="Rectangle 10522" x="14" y="14" width="1" height="1" fill="#2C2828"/>
<rect id="Rectangle 10523" x="13" y="13" width="1" height="1" fill="#2C2828"/>
<rect id="Rectangle 10524" x="13" y="12" width="1" height="1" fill="black"/>
<rect id="Rectangle 10525" x="13" y="11" width="1" height="1" fill="black"/>
<rect id="Rectangle 10526" x="13" y="10" width="1" height="1" fill="black"/>
<rect id="Rectangle 10628" x="15" y="8" width="1" height="1" fill="black"/>
<rect id="Rectangle 10383" x="18" y="17" width="1" height="1" fill="#2C2828"/>
<rect id="Rectangle 10381" x="20" y="17" width="1" height="1" fill="#2C2828"/>
<rect id="Rectangle 10382" x="21" y="17" width="1" height="1" fill="#2C2828"/>
<rect id="Rectangle 10223" x="13" y="19" width="1" height="1" fill="black"/>
<rect id="Rectangle 10411" x="13" y="20" width="1" height="1" fill="black"/>
<rect id="Rectangle 10412" x="14" y="21" width="1" height="1" fill="black"/>
<rect id="Rectangle 10413" x="15" y="22" width="1" height="1" fill="black"/>
<rect id="Rectangle 10453" x="2" y="12" width="1" height="1" fill="#514853"/>
<rect id="Rectangle 10489" x="1" y="12" width="1" height="1" fill="#514853"/>
<rect id="Rectangle 10490" x="2" y="13" width="1" height="1" fill="#514853"/>
<rect id="Rectangle 10491" x="3" y="13" width="1" height="1" fill="#514853"/>
<rect id="Rectangle 10488" x="1" y="11" width="1" height="1" fill="#514853"/>
<rect id="Rectangle 10125" x="12" y="12" width="1" height="1" fill="#9C6B4A"/>
<rect id="Rectangle 10126" x="12" y="11" width="1" height="1" fill="#9C6B4A"/>
<rect id="Rectangle 10127" x="12" y="10" width="1" height="1" fill="#9C6B4A"/>
<rect id="Rectangle 10145" x="12" y="13" width="1" height="1" fill="#9C6B4A"/>
<rect id="Rectangle 10221" x="12" y="17" width="1" height="1" fill="black"/>
<rect id="Rectangle 10594" x="12" y="16" width="1" height="1" fill="black"/>
<rect id="Rectangle 10595" x="11" y="14" width="1" height="1" fill="black"/>
<rect id="Rectangle 10320" width="1" height="1" transform="matrix(-1 0 0 1 3 9)" fill="#D0C8CA"/>
<rect id="Rectangle 10660" width="1" height="1" transform="matrix(-1 0 0 1 2 8)" fill="#D0C8CA"/>
<rect id="Rectangle 10661" width="1" height="1" transform="matrix(-1 0 0 1 2 7)" fill="#D0C8CA"/>
<rect id="Rectangle 10662" width="1" height="1" transform="matrix(-1 0 0 1 3 6)" fill="#D0C8CA"/>
<rect id="Rectangle 10663" width="1" height="1" transform="matrix(-1 0 0 1 3 5)" fill="#D0C8CA"/>
<rect id="Rectangle 10664" width="1" height="1" transform="matrix(-1 0 0 1 2 5)" fill="#A09699"/>
<rect id="Rectangle 10666" width="1" height="1" transform="matrix(-1 0 0 1 1 6)" fill="#A09699"/>
<rect id="Rectangle 10667" width="1" height="1" transform="matrix(-1 0 0 1 2 6)" fill="#D0C8CA"/>
<rect id="Rectangle 10668" width="1" height="1" transform="matrix(-1 0 0 1 1 7)" fill="#A09699"/>
<rect id="Rectangle 10669" width="1" height="1" transform="matrix(-1 0 0 1 1 8)" fill="#D0C8CA"/>
<rect id="Rectangle 10676" x="1" y="16" width="1" height="1" fill="#2C2828"/>
<rect id="Rectangle 10691" x="1" y="15" width="1" height="1" fill="#3F3A3A"/>
<rect id="Rectangle 10692" x="1" y="14" width="1" height="1" fill="#3F3A3A"/>
<rect id="Rectangle 10693" y="13" width="1" height="1" fill="#3F3A3A"/>
<rect id="Rectangle 10677" y="14" width="1" height="1" fill="#2C2828"/>
<rect id="Rectangle 10444" x="4" y="13" width="1" height="1" fill="#D0C8CA"/>
<rect id="Rectangle 10702" x="2" y="11" width="1" height="1" fill="#D0C8CA"/>
<rect id="Rectangle 10703" x="2" y="12" width="1" height="1" fill="#D0C8CA"/>
<rect id="Rectangle 10705" x="1" y="9" width="1" height="1" fill="#D0C8CA"/>
<rect id="Rectangle 10706" y="10" width="1" height="1" fill="#D0C8CA"/>
<rect id="Rectangle 10707" y="11" width="1" height="1" fill="#D0C8CA"/>
<rect id="Rectangle 10704" x="1" y="13" width="1" height="1" fill="#D0C8CA"/>
</g>
</g>
<rect x="0.5" y="0.5" width="23" height="23" stroke="url(#paint0_linear_202_1596)"/>
</g>
<defs>
<filter id="filter0_i_202_1596" x="0" y="0" width="24" height="24" filterUnits="userSpaceOnUse" color-interpolation-filters="sRGB">
<feFlood flood-opacity="0" result="BackgroundImageFix"/>
<feBlend mode="normal" in="SourceGraphic" in2="BackgroundImageFix" result="shape"/>
<feColorMatrix in="SourceAlpha" type="matrix" values="0 0 0 0 0 0 0 0 0 0 0 0 0 0 0 0 0 0 127 0" result="hardAlpha"/>
<feMorphology radius="3" operator="erode" in="SourceAlpha" result="effect1_innerShadow_202_1596"/>
<feOffset/>
<feGaussianBlur stdDeviation="2"/>
<feComposite in2="hardAlpha" operator="arithmetic" k2="-1" k3="1"/>
<feColorMatrix type="matrix" values="0 0 0 0 1 0 0 0 0 1 0 0 0 0 1 0 0 0 0.25 0"/>
<feBlend mode="normal" in2="shape" result="effect1_innerShadow_202_1596"/>
</filter>
<linearGradient id="paint0_linear_202_1596" x1="1.5" y1="1" x2="23.5" y2="24.5" gradientUnits="userSpaceOnUse">
<stop stop-color="#FADA6F"/>
<stop offset="0.240385" stop-color="#FFE944"/>
<stop offset="0.435291" stop-color="white"/>
<stop offset="0.625" stop-color="#FFEA4D"/>
<stop offset="0.995192" stop-color="#FFE83C"/>
</linearGradient>
<clipPath id="clip0_202_1596">
<rect width="24" height="24" fill="white"/>
</clipPath>
</defs>
</svg>
