<svg width="273" height="273" viewBox="0 0 273 273" fill="none" xmlns="http://www.w3.org/2000/svg">
<g clip-path="url(#clip0_117_899)">
<rect x="10.5" y="10.5" width="252" height="252" fill="#7C5EA1"/>
<rect x="238.5" y="34.5" width="12" height="12" fill="#74716E"/>
<rect x="238.5" y="46.5" width="12" height="12" fill="#74716E"/>
<rect x="238.5" y="70.5" width="12" height="12" fill="#74716E"/>
<rect x="238.5" y="58.5" width="12" height="12" fill="#74716E"/>
<rect x="154.5" y="34.5" width="12" height="12" fill="#74716E"/>
<rect x="154.5" y="46.5" width="12" height="12" fill="#B0B0B3"/>
<rect x="142.5" y="46.5" width="12" height="12" fill="#74716E"/>
<rect x="142.5" y="58.5" width="12" height="12" fill="#B0B0B3"/>
<rect x="130.5" y="58.5" width="12" height="12" fill="#74716E"/>
<rect x="130.5" y="70.5" width="12" height="12" fill="#B0B0B3"/>
<rect x="118.5" y="70.5" width="12" height="12" fill="#74716E"/>
<rect x="118.5" y="82.5" width="12" height="12" fill="#B0B0B3"/>
<rect x="118.5" y="94.5" width="12" height="12" fill="#B0B0B3"/>
<rect x="106.5" y="94.5" width="12" height="12" fill="#B0B0B3"/>
<rect x="106.5" y="82.5" width="12" height="12" fill="#74716E"/>
<rect x="106.5" y="106.5" width="12" height="12" fill="#74716E"/>
<rect x="238.5" y="82.5" width="12" height="12" fill="#74716E"/>
<rect x="94.5" y="106.5" width="12" height="12" fill="#74716E"/>
<rect x="106.5" y="106.5" width="12" height="12" fill="#B0B0B3"/>
<rect x="94.5" y="94.5" width="12" height="12" fill="#74716E"/>
<rect x="94.5" y="82.5" width="12" height="12" fill="#504D4A"/>
<rect x="58.5" y="58.5" width="12" height="12" fill="#504D4A"/>
<rect x="58.5" y="70.5" width="12" height="12" fill="#504D4A"/>
<rect x="58.5" y="82.5" width="12" height="12" fill="#504D4A"/>
<rect x="46.5" y="94.5" width="12" height="12" fill="#504D4A"/>
<rect x="46.5" y="106.5" width="12" height="12" fill="#74716E"/>
<rect x="46.5" y="118.5" width="12" height="12" fill="#504D4A"/>
<rect x="34.5" y="130.5" width="12" height="12" fill="#504D4A"/>
<rect x="34.5" y="142.5" width="12" height="12" fill="#504D4A"/>
<rect x="34.5" y="154.5" width="12" height="12" fill="#504D4A"/>
<rect x="22.5" y="154.5" width="12" height="12" fill="#504D4A"/>
<rect x="10.5" y="154.5" width="12" height="12" fill="#504D4A"/>
<rect x="10.5" y="142.5" width="12" height="12" fill="#74716E"/>
<rect x="10.5" y="106.5" width="12" height="12" fill="#504D4A"/>
<rect x="10.5" y="94.5" width="12" height="12" fill="#504D4A"/>
<rect x="10.5" y="82.5" width="12" height="12" fill="#504D4A"/>
<rect x="22.5" y="70.5" width="12" height="12" fill="#504D4A"/>
<rect x="34.5" y="58.5" width="12" height="12" fill="#504D4A"/>
<rect x="34.5" y="46.5" width="12" height="12" fill="#504D4A"/>
<rect x="34.5" y="34.5" width="12" height="12" fill="#504D4A"/>
<rect x="46.5" y="34.5" width="12" height="12" fill="#74716E"/>
<rect x="46.5" y="22.5" width="12" height="12" fill="#74716E"/>
<rect x="34.5" y="22.5" width="12" height="12" fill="#74716E"/>
<rect x="22.5" y="10.5" width="12" height="12" fill="#504D4A"/>
<rect x="10.5" y="10.5" width="12" height="12" fill="#504D4A"/>
<rect x="22.5" y="22.5" width="12" height="12" fill="#74716E"/>
<rect x="34.5" y="10.5" width="12" height="12" fill="#504D4A"/>
<rect x="46.5" y="10.5" width="12" height="12" fill="#504D4A"/>
<rect x="58.5" y="10.5" width="12" height="12" fill="#74716E"/>
<rect x="70.5" y="10.5" width="12" height="12" fill="#504D4A"/>
<rect x="82.5" y="10.5" width="12" height="12" fill="#504D4A"/>
<rect x="70.5" y="22.5" width="12" height="12" fill="#504D4A"/>
<rect x="58.5" y="22.5" width="12" height="12" fill="#504D4A"/>
<rect x="58.5" y="34.5" width="12" height="12" fill="#504D4A"/>
<rect x="58.5" y="46.5" width="12" height="12" fill="#74716E"/>
<rect x="34.5" y="118.5" width="12" height="12" fill="#74716E"/>
<rect x="22.5" y="130.5" width="12" height="12" fill="#504D4A"/>
<rect x="10.5" y="130.5" width="12" height="12" fill="#74716E"/>
<rect x="10.5" y="118.5" width="12" height="12" fill="#504D4A"/>
<rect x="22.5" y="118.5" width="12" height="12" fill="#74716E"/>
<rect x="22.5" y="106.5" width="12" height="12" fill="#504D4A"/>
<rect x="34.5" y="106.5" width="12" height="12" fill="#504D4A"/>
<rect x="34.5" y="94.5" width="12" height="12" fill="#74716E"/>
<rect x="34.5" y="82.5" width="12" height="12" fill="#74716E"/>
<rect x="46.5" y="82.5" width="12" height="12" fill="#504D4A"/>
<rect x="46.5" y="70.5" width="12" height="12" fill="#504D4A"/>
<rect x="46.5" y="58.5" width="12" height="12" fill="#74716E"/>
<rect x="46.5" y="46.5" width="12" height="12" fill="#504D4A"/>
<rect x="34.5" y="70.5" width="12" height="12" fill="#74716E"/>
<rect x="22.5" y="82.5" width="12" height="12" fill="#504D4A"/>
<rect x="22.5" y="94.5" width="12" height="12" fill="#504D4A"/>
<rect x="22.5" y="142.5" width="12" height="12" fill="#504D4A"/>
<rect x="22.5" y="58.5" width="12" height="12" fill="#504D4A"/>
<rect x="106.5" y="70.5" width="12" height="12" fill="#504D4A"/>
<rect x="118.5" y="58.5" width="12" height="12" fill="#504D4A"/>
<rect x="130.5" y="46.5" width="12" height="12" fill="#504D4A"/>
<rect x="142.5" y="34.5" width="12" height="12" fill="#504D4A"/>
<rect x="154.5" y="22.5" width="12" height="12" fill="#504D4A"/>
<rect x="166.5" y="10.5" width="12" height="12" fill="#504D4A"/>
<rect x="178.5" y="10.5" width="12" height="12" fill="#504D4A"/>
<rect x="166.5" y="22.5" width="12" height="12" fill="#74716E"/>
<rect x="142.5" y="10.5" width="12" height="12" fill="#74716E"/>
<rect x="166.5" y="34.5" width="12" height="12" fill="#B0B0B3"/>
<rect x="154.5" y="58.5" width="12" height="12" fill="#B0B0B3"/>
<rect x="142.5" y="70.5" width="12" height="12" fill="#B0B0B3"/>
<rect x="142.5" y="82.5" width="12" height="12" fill="#B0B0B3"/>
<rect x="130.5" y="82.5" width="12" height="12" fill="#B0B0B3"/>
<rect x="130.5" y="94.5" width="12" height="12" fill="#B0B0B3"/>
<rect x="130.5" y="106.5" width="12" height="12" fill="#B0B0B3"/>
<rect x="118.5" y="106.5" width="12" height="12" fill="#B0B0B3"/>
<rect x="190.5" y="178.5" width="12" height="12" fill="#504D4A"/>
<rect x="190.5" y="166.5" width="12" height="12" fill="#504D4A"/>
<rect x="202.5" y="166.5" width="12" height="12" fill="#504D4A"/>
<rect x="202.5" y="10.5" width="12" height="12" fill="#74716E"/>
<rect x="214.5" y="22.5" width="12" height="12" fill="#74716E"/>
<rect x="214.5" y="10.5" width="12" height="12" fill="#74716E"/>
<rect x="226.5" y="22.5" width="12" height="12" fill="#74716E"/>
<rect x="238.5" y="22.5" width="12" height="12" fill="#504D4A"/>
<rect x="226.5" y="34.5" width="12" height="12" fill="#74716E"/>
<rect x="226.5" y="46.5" width="12" height="12" fill="#504D4A"/>
<rect x="250.5" y="34.5" width="12" height="12" fill="#504D4A"/>
<rect x="250.5" y="22.5" width="12" height="12" fill="#504D4A"/>
<rect x="250.5" y="10.5" width="12" height="12" fill="#504D4A"/>
<rect x="238.5" y="10.5" width="12" height="12" fill="#504D4A"/>
<rect x="226.5" y="10.5" width="12" height="12" fill="#504D4A"/>
<rect x="226.5" y="58.5" width="12" height="12" fill="#504D4A"/>
<rect x="226.5" y="70.5" width="12" height="12" fill="#504D4A"/>
<rect x="226.5" y="82.5" width="12" height="12" fill="#504D4A"/>
<rect x="226.5" y="94.5" width="12" height="12" fill="#504D4A"/>
<rect x="226.5" y="118.5" width="12" height="12" fill="#504D4A"/>
<rect x="226.5" y="130.5" width="12" height="12" fill="#504D4A"/>
<rect x="214.5" y="130.5" width="12" height="12" fill="#504D4A"/>
<rect x="226.5" y="142.5" width="12" height="12" fill="#504D4A"/>
<rect x="226.5" y="154.5" width="12" height="12" fill="#504D4A"/>
<rect x="238.5" y="142.5" width="12" height="12" fill="#504D4A"/>
<rect x="250.5" y="130.5" width="12" height="12" fill="#504D4A"/>
<rect x="238.5" y="130.5" width="12" height="12" fill="#504D4A"/>
<rect x="238.5" y="118.5" width="12" height="12" fill="#504D4A"/>
<rect x="238.5" y="106.5" width="12" height="12" fill="#504D4A"/>
<rect x="238.5" y="94.5" width="12" height="12" fill="#504D4A"/>
<rect x="250.5" y="142.5" width="12" height="12" fill="#504D4A"/>
<rect x="226.5" y="106.5" width="12" height="12" fill="#504D4A"/>
<rect x="202.5" y="154.5" width="12" height="12" fill="#504D4A"/>
<rect x="202.5" y="178.5" width="12" height="12" fill="#504D4A"/>
<rect x="106.5" y="178.5" width="12" height="12" fill="#504D4A"/>
<rect x="94.5" y="178.5" width="12" height="12" fill="#504D4A"/>
<rect x="94.5" y="166.5" width="12" height="12" fill="#504D4A"/>
<rect x="82.5" y="166.5" width="12" height="12" fill="#504D4A"/>
<rect x="70.5" y="202.5" width="12" height="12" fill="#504D4A"/>
<rect x="70.5" y="214.5" width="12" height="12" fill="#504D4A"/>
<rect x="58.5" y="226.5" width="12" height="12" fill="#504D4A"/>
<rect x="58.5" y="238.5" width="12" height="12" fill="#504D4A"/>
<rect x="58.5" y="250.5" width="12" height="12" fill="#504D4A"/>
<rect x="46.5" y="250.5" width="12" height="12" fill="#504D4A"/>
<rect x="70.5" y="238.5" width="12" height="12" fill="#504D4A"/>
<rect x="70.5" y="226.5" width="12" height="12" fill="#504D4A"/>
<rect x="82.5" y="214.5" width="12" height="12" fill="#504D4A"/>
<rect x="190.5" y="226.5" width="12" height="12" fill="#504D4A"/>
<rect x="202.5" y="238.5" width="12" height="12" fill="#504D4A"/>
<rect x="202.5" y="250.5" width="12" height="12" fill="#504D4A"/>
<rect x="202.5" y="250.5" width="12" height="12" fill="#504D4A"/>
<rect x="190.5" y="250.5" width="12" height="12" fill="#C1EFFB"/>
<rect x="190.5" y="238.5" width="12" height="12" fill="#504D4A"/>
<rect x="202.5" y="214.5" width="12" height="12" fill="#504D4A"/>
<rect x="202.5" y="226.5" width="12" height="12" fill="#504D4A"/>
<rect x="190.5" y="214.5" width="12" height="12" fill="#504D4A"/>
<rect x="202.5" y="202.5" width="12" height="12" fill="#504D4A"/>
<rect x="82.5" y="202.5" width="12" height="12" fill="#504D4A"/>
<rect x="94.5" y="214.5" width="12" height="12" fill="#504D4A"/>
<rect x="154.5" y="214.5" width="12" height="12" fill="#504D4A"/>
<rect x="154.5" y="226.5" width="12" height="12" fill="#504D4A"/>
<rect x="154.5" y="238.5" width="12" height="12" fill="#504D4A"/>
<rect x="154.5" y="250.5" width="12" height="12" fill="#504D4A"/>
<rect x="166.5" y="250.5" width="12" height="12" fill="#504D4A"/>
<rect x="106.5" y="214.5" width="12" height="12" fill="#5D5C5B"/>
<rect x="94.5" y="226.5" width="12" height="12" fill="#5D5C5B"/>
<rect x="82.5" y="238.5" width="12" height="12" fill="#5D5C5B"/>
<rect x="82.5" y="250.5" width="12" height="12" fill="#5D5C5B"/>
<rect x="70.5" y="250.5" width="12" height="12" fill="#5D5C5B"/>
<rect x="82.5" y="226.5" width="12" height="12" fill="#5D5C5B"/>
<rect x="94.5" y="238.5" width="12" height="12" fill="#5D5C5B"/>
<rect x="94.5" y="250.5" width="12" height="12" fill="#777370"/>
<rect x="106.5" y="250.5" width="12" height="12" fill="#B0B0B3"/>
<rect x="118.5" y="250.5" width="12" height="12" fill="#B0B0B3"/>
<rect x="106.5" y="238.5" width="12" height="12" fill="#777370"/>
<rect x="118.5" y="238.5" width="12" height="12" fill="#B0B0B3"/>
<rect x="106.5" y="226.5" width="12" height="12" fill="#5D5C5B"/>
<rect x="118.5" y="226.5" width="12" height="12" fill="#777370"/>
<rect x="82.5" y="178.5" width="12" height="12" fill="#504D4A"/>
<rect x="70.5" y="166.5" width="12" height="12" fill="#504D4A"/>
<rect x="70.5" y="154.5" width="12" height="12" fill="#504D4A"/>
<rect x="70.5" y="178.5" width="12" height="12" fill="#504D4A"/>
<rect x="202.5" y="22.5" width="12" height="12" fill="#8ECDDE"/>
<rect x="214.5" y="34.5" width="12" height="12" fill="#8ECDDE"/>
<rect x="214.5" y="46.5" width="12" height="12" fill="#8ECDDE"/>
<rect x="214.5" y="58.5" width="12" height="12" fill="#8ECDDE"/>
<rect x="118.5" y="10.5" width="12" height="12" fill="#537B8B"/>
<rect x="106.5" y="10.5" width="12" height="12" fill="#72A0B2"/>
<rect x="94.5" y="34.5" width="12" height="12" fill="#8ECDDE"/>
<rect x="82.5" y="46.5" width="12" height="12" fill="#8ECDDE"/>
<rect x="82.5" y="58.5" width="12" height="12" fill="#8ECDDE"/>
<rect x="70.5" y="178.5" width="12" height="12" fill="#7AAFBA"/>
<rect x="82.5" y="190.5" width="12" height="12" fill="#7AAFBA"/>
<rect x="94.5" y="190.5" width="12" height="12" fill="#8ECDDE"/>
<rect x="94.5" y="190.5" width="12" height="12" fill="#7AAFBA"/>
<rect x="106.5" y="190.5" width="12" height="12" fill="#7AAFBA"/>
<rect x="106.5" y="202.5" width="12" height="12" fill="#DDDDD4"/>
<rect x="118.5" y="202.5" width="12" height="12" fill="#DDDDD4"/>
<rect x="118.5" y="190.5" width="12" height="12" fill="#7AAFBA"/>
<rect x="142.5" y="190.5" width="12" height="12" fill="#7AAFBA"/>
<rect x="166.5" y="190.5" width="12" height="12" fill="#7AAFBA"/>
<rect x="166.5" y="202.5" width="12" height="12" fill="#EEEEE2"/>
<rect x="166.5" y="214.5" width="12" height="12" fill="#EEEEE2"/>
<rect x="166.5" y="226.5" width="12" height="12" fill="#EEEEE2"/>
<rect x="178.5" y="202.5" width="12" height="12" fill="#EEEEE2"/>
<rect x="178.5" y="190.5" width="12" height="12" fill="#7AAFBA"/>
<rect x="190.5" y="190.5" width="12" height="12" fill="#7AAFBA"/>
<rect x="142.5" y="202.5" width="12" height="12" fill="#EEEEE2"/>
<rect x="142.5" y="202.5" width="12" height="12" fill="#EEEEE2"/>
<rect x="154.5" y="202.5" width="12" height="12" fill="#EEEEE2"/>
<rect x="142.5" y="214.5" width="12" height="12" fill="#EEEEE2"/>
<rect x="142.5" y="226.5" width="12" height="12" fill="#EEEEE2"/>
<rect x="130.5" y="202.5" width="12" height="12" fill="#EEEEE2"/>
<rect x="130.5" y="190.5" width="12" height="12" fill="#7AAFBA"/>
<rect x="70.5" y="70.5" width="12" height="12" fill="#8ECDDE"/>
<rect x="82.5" y="70.5" width="12" height="12" fill="#8ECDDE"/>
<rect x="118.5" y="142.5" width="12" height="12" fill="#8ECDDE"/>
<rect x="106.5" y="142.5" width="12" height="12" fill="#8ECDDE"/>
<rect x="70.5" y="130.5" width="12" height="12" fill="#8ECDDE"/>
<rect x="70.5" y="142.5" width="12" height="12" fill="#8ECDDE"/>
<rect x="202.5" y="190.5" width="12" height="12" fill="#7AAFBA"/>
<rect x="214.5" y="178.5" width="12" height="12" fill="#7AAFBA"/>
<rect x="94.5" y="58.5" width="12" height="12" fill="#8ECDDE"/>
<rect x="106.5" y="46.5" width="12" height="12" fill="#8ECDDE"/>
<rect x="118.5" y="34.5" width="12" height="12" fill="#8ECDDE"/>
<rect x="130.5" y="22.5" width="12" height="12" fill="#537B8B"/>
<rect x="118.5" y="22.5" width="12" height="12" fill="#72A0B2"/>
<rect x="106.5" y="34.5" width="12" height="12" fill="#8ECDDE"/>
<rect x="94.5" y="46.5" width="12" height="12" fill="#8ECDDE"/>
<rect x="106.5" y="22.5" width="12" height="12" fill="#8ECDDE"/>
<rect x="214.5" y="70.5" width="12" height="12" fill="#8ECDDE"/>
<rect x="214.5" y="82.5" width="12" height="12" fill="#8ECDDE"/>
<rect x="214.5" y="94.5" width="12" height="12" fill="#8ECDDE"/>
<rect x="214.5" y="118.5" width="12" height="12" fill="#8ECDDE"/>
<rect x="214.5" y="106.5" width="12" height="12" fill="#8ECDDE"/>
<rect x="190.5" y="10.5" width="12" height="12" fill="#B27DA8"/>
<rect x="190.5" y="22.5" width="12" height="12" fill="#B27DA8"/>
<rect x="202.5" y="34.5" width="12" height="12" fill="#B27DA8"/>
<rect x="82.5" y="82.5" width="12" height="12" fill="#98638E"/>
<rect x="70.5" y="58.5" width="12" height="12" fill="#98638E"/>
<rect x="70.5" y="46.5" width="12" height="12" fill="#98638E"/>
<rect x="70.5" y="34.5" width="12" height="12" fill="#98638E"/>
<rect x="82.5" y="22.5" width="12" height="12" fill="#98638E"/>
<rect x="94.5" y="10.5" width="12" height="12" fill="#98638E"/>
<rect x="70.5" y="82.5" width="12" height="12" fill="#98638E"/>
<rect x="70.5" y="94.5" width="12" height="12" fill="#98638E"/>
<rect x="70.5" y="118.5" width="12" height="12" fill="#98638E"/>
<rect x="82.5" y="130.5" width="12" height="12" fill="#98638E"/>
<rect x="82.5" y="142.5" width="12" height="12" fill="#98638E"/>
<rect x="82.5" y="154.5" width="12" height="12" fill="#98638E"/>
<rect x="94.5" y="154.5" width="12" height="12" fill="#CB98C2"/>
<rect x="106.5" y="166.5" width="12" height="12" fill="#CB98C2"/>
<rect x="94.5" y="166.5" width="12" height="12" fill="#98638E"/>
<rect x="118.5" y="178.5" width="12" height="12" fill="#CB98C2"/>
<rect x="106.5" y="178.5" width="12" height="12" fill="#98638E"/>
<rect x="94.5" y="70.5" width="12" height="12" fill="#98638E"/>
<rect x="202.5" y="46.5" width="12" height="72" fill="#B27DA8"/>
<rect x="178.5" y="22.5" width="12" height="12" fill="#CB98C2"/>
<rect x="178.5" y="34.5" width="12" height="12" fill="#CB98C2"/>
<rect x="190.5" y="34.5" width="12" height="12" fill="#B27DA8"/>
<rect x="190.5" y="46.5" width="12" height="12" fill="#CC98C2"/>
<rect x="190.5" y="58.5" width="12" height="12" fill="#CB98C2"/>
<rect x="190.5" y="70.5" width="12" height="12" fill="#CC98C2"/>
<rect x="190.5" y="82.5" width="12" height="12" fill="#CC98C2"/>
<rect x="190.5" y="94.5" width="12" height="12" fill="#CC98C2"/>
<rect x="190.5" y="106.5" width="12" height="12" fill="#CB98C2"/>
<rect x="190.5" y="118.5" width="12" height="12" fill="#CC98C2"/>
<rect x="202.5" y="118.5" width="12" height="12" fill="#CB98C2"/>
<rect x="190.5" y="130.5" width="12" height="12" fill="#CB98C2"/>
<rect x="82.5" y="118.5" width="12" height="12" fill="#98638E"/>
<rect x="70.5" y="106.5" width="12" height="12" fill="#98638E"/>
<rect x="82.5" y="106.5" width="12" height="12" fill="#98638E"/>
<rect x="82.5" y="94.5" width="12" height="12" fill="#98638E"/>
<rect x="82.5" y="34.5" width="12" height="12" fill="#D7BFD4"/>
<rect x="94.5" y="22.5" width="12" height="12" fill="#D7BFD4"/>
<rect x="202.5" y="130.5" width="12" height="12" fill="#CB98C2"/>
<rect x="202.5" y="142.5" width="12" height="12" fill="#CB98C2"/>
<rect x="190.5" y="142.5" width="12" height="12" fill="#CC98C2"/>
<rect x="190.5" y="154.5" width="12" height="12" fill="#D7BFD4"/>
<rect x="190.5" y="154.5" width="12" height="12" fill="#CB98C2"/>
<rect x="178.5" y="46.5" width="12" height="144" fill="#CB98C2"/>
<rect x="166.5" y="58.5" width="12" height="12" fill="#C1EFFB"/>
<rect x="166.5" y="46.5" width="12" height="12" fill="#C1EFFB"/>
<rect x="142.5" y="22.5" width="12" height="12" fill="#C1EFFB"/>
<rect x="154.5" y="10.5" width="12" height="12" fill="#C1EFFB"/>
<rect x="130.5" y="10.5" width="12" height="12" fill="#C1EFFB"/>
<rect x="154.5" y="70.5" width="12" height="12" fill="#C1EFFB"/>
<rect x="142.5" y="94.5" width="12" height="12" fill="#C1EFFB"/>
<rect x="154.5" y="166.5" width="12" height="12" fill="#D2F5FF"/>
<rect x="154.5" y="154.5" width="12" height="12" fill="#D2F5FF"/>
<rect x="154.5" y="142.5" width="12" height="12" fill="#D2F5FF"/>
<rect x="154.5" y="130.5" width="12" height="12" fill="#C1EFFB"/>
<rect x="154.5" y="118.5" width="12" height="12" fill="#C1EFFB"/>
<rect x="154.5" y="106.5" width="12" height="12" fill="#C1EFFB"/>
<rect x="154.5" y="94.5" width="12" height="12" fill="#C1EFFB"/>
<rect x="154.5" y="82.5" width="12" height="12" fill="#C1EFFB"/>
<rect x="106.5" y="58.5" width="12" height="12" fill="#8ECDDE"/>
<rect x="118.5" y="46.5" width="12" height="12" fill="#8ECDDE"/>
<rect x="130.5" y="34.5" width="12" height="12" fill="#72A0B2"/>
<rect width="12" height="12" transform="matrix(1 0 0 -1 130.5 166.5)" fill="#C1EFFB"/>
<rect width="12" height="12" transform="matrix(1 0 0 -1 130.5 154.5)" fill="#C1EFFB"/>
<rect width="12" height="12" transform="matrix(1 0 0 -1 130.5 142.5)" fill="#D2F5FF"/>
<rect width="12" height="12" transform="matrix(1 0 0 -1 130.5 130.5)" fill="#D2F5FF"/>
<rect x="118.5" y="130.5" width="12" height="12" fill="#8ECDDE"/>
<rect x="106.5" y="130.5" width="12" height="12" fill="#8ECDDE"/>
<rect x="94.5" y="130.5" width="12" height="12" fill="#8ECDDE"/>
<rect x="94.5" y="118.5" width="12" height="12" fill="#8ECDDE"/>
<rect x="106.5" y="118.5" width="12" height="12" fill="#8ECDDE"/>
<rect x="118.5" y="118.5" width="12" height="12" fill="#8ECDDE"/>
<rect x="94.5" y="142.5" width="12" height="12" fill="#8ECDDE"/>
<rect x="106.5" y="154.5" width="12" height="12" fill="#8ECDDE"/>
<rect x="118.5" y="154.5" width="12" height="12" fill="#8ECDDE"/>
<rect x="118.5" y="166.5" width="12" height="12" fill="#8ECDDE"/>
<rect x="130.5" y="166.5" width="12" height="12" fill="#D2F5FF"/>
<rect x="142.5" y="166.5" width="12" height="12" fill="#D2F5FF"/>
<rect x="142.5" y="154.5" width="12" height="12" fill="#D2F5FF"/>
<rect x="142.5" y="142.5" width="12" height="12" fill="#C1EFFB"/>
<rect x="142.5" y="130.5" width="12" height="12" fill="#C1EFFB"/>
<rect x="142.5" y="118.5" width="12" height="12" fill="#C1EFFB"/>
<rect x="142.5" y="106.5" width="12" height="12" fill="#C1EFFB"/>
<rect x="130.5" y="178.5" width="12" height="12" fill="#D2F5FF"/>
<rect x="142.5" y="178.5" width="12" height="12" fill="#D2F5FF"/>
<rect x="154.5" y="178.5" width="12" height="12" fill="#D2F5FF"/>
<rect x="154.5" y="190.5" width="12" height="12" fill="#D2F5FF"/>
<rect x="166.5" y="178.5" width="12" height="12" fill="#D2F5FF"/>
<rect x="142.5" y="238.5" width="12" height="12" fill="#EEEEE2"/>
<rect x="142.5" y="250.5" width="12" height="12" fill="#C1EFFB"/>
<rect x="130.5" y="250.5" width="12" height="12" fill="#C1EFFB"/>
<rect x="130.5" y="238.5" width="12" height="12" fill="#C1EFFB"/>
<rect x="130.5" y="226.5" width="12" height="12" fill="#C1EFFB"/>
<rect x="130.5" y="214.5" width="12" height="12" fill="#EEEEE2"/>
<rect x="178.5" y="226.5" width="12" height="12" fill="#C1EFFB"/>
<rect x="178.5" y="214.5" width="12" height="12" fill="#EEEEE2"/>
<rect x="166.5" y="238.5" width="12" height="12" fill="#EEEEE2"/>
<rect x="178.5" y="250.5" width="12" height="12" fill="#C1EFFB"/>
<rect x="166.5" y="250.5" width="12" height="12" fill="#C1EFFB"/>
<rect x="178.5" y="238.5" width="12" height="12" fill="#C1EFFB"/>
<rect x="214.5" y="250.5" width="12" height="12" fill="#C1EFFB"/>
<rect x="226.5" y="250.5" width="12" height="12" fill="#C1EFFB"/>
<rect x="214.5" y="238.5" width="12" height="12" fill="#C1EFFB"/>
<rect x="214.5" y="226.5" width="12" height="12" fill="#C1EFFB"/>
<rect x="190.5" y="202.5" width="12" height="12" fill="#C1EFFB"/>
<rect x="118.5" y="214.5" width="12" height="12" fill="#C1EFFB"/>
<rect x="166.5" y="166.5" width="12" height="12" fill="#D2F5FF"/>
<rect x="94.5" y="202.5" width="12" height="12" fill="#D2F5FF"/>
<rect x="70.5" y="190.5" width="12" height="12" fill="#D2F5FF"/>
<rect x="166.5" y="154.5" width="12" height="12" fill="#D2F5FF"/>
<rect x="166.5" y="142.5" width="12" height="12" fill="#D2F5FF"/>
<rect x="166.5" y="130.5" width="12" height="12" fill="#D2F5FF"/>
<rect x="166.5" y="118.5" width="12" height="12" fill="#D2F5FF"/>
<rect x="166.5" y="106.5" width="12" height="12" fill="#C1EFFB"/>
<rect x="166.5" y="94.5" width="12" height="12" fill="#C1EFFB"/>
<rect x="118.5" y="142.5" width="12" height="12" fill="#D2F5FF"/>
<rect x="106.5" y="154.5" width="12" height="12" fill="#D2F5FF"/>
<rect x="166.5" y="70.5" width="12" height="12" fill="#C1EFFB"/>
<rect x="166.5" y="82.5" width="12" height="12" fill="#C1EFFB"/>
<rect x="202.5" y="46.5" width="12" height="12" fill="white"/>
<rect x="82.5" y="58.5" width="12" height="12" fill="white"/>
<rect x="94.5" y="46.5" width="12" height="12" fill="white"/>
<rect x="94.5" y="34.5" width="12" height="12" fill="white"/>
<rect x="106.5" y="46.5" width="12" height="12" fill="white"/>
<rect x="118.5" y="34.5" width="12" height="12" fill="white"/>
<rect x="118.5" y="58.5" width="12" height="12" fill="white"/>
<rect x="130.5" y="46.5" width="12" height="12" fill="white"/>
<rect x="166.5" y="34.5" width="12" height="12" fill="white"/>
<rect x="154.5" y="46.5" width="12" height="12" fill="white"/>
<rect x="154.5" y="58.5" width="12" height="12" fill="white"/>
<rect x="190.5" y="58.5" width="12" height="12" fill="white"/>
<rect x="190.5" y="70.5" width="12" height="12" fill="white"/>
<rect x="202.5" y="70.5" width="12" height="12" fill="white"/>
<rect x="190.5" y="82.5" width="12" height="12" fill="white"/>
<rect x="202.5" y="94.5" width="12" height="12" fill="white"/>
<rect x="190.5" y="106.5" width="12" height="12" fill="white"/>
<rect x="190.5" y="118.5" width="12" height="12" fill="white"/>
<rect x="202.5" y="118.5" width="12" height="12" fill="white"/>
<rect x="202.5" y="130.5" width="12" height="12" fill="white"/>
<rect x="190.5" y="142.5" width="12" height="12" fill="white"/>
<rect x="202.5" y="142.5" width="12" height="12" fill="white"/>
</g>
<rect x="5.25" y="5.25" width="262.5" height="262.5" stroke="url(#paint0_linear_117_899)" stroke-width="10.5"/>
<defs>
<linearGradient id="paint0_linear_117_899" x1="26.25" y1="21" x2="257.25" y2="267.75" gradientUnits="userSpaceOnUse">
<stop stop-color="#FFD341"/>
<stop offset="0.240385" stop-color="#FFE944"/>
<stop offset="0.435291" stop-color="white"/>
<stop offset="0.625" stop-color="#FFEA4D"/>
<stop offset="0.995192" stop-color="#FFE83C"/>
</linearGradient>
<clipPath id="clip0_117_899">
<rect x="10.5" y="10.5" width="252" height="252" fill="white"/>
</clipPath>
</defs>
</svg>
