<svg width="276" height="276" viewBox="0 0 276 276" fill="none" xmlns="http://www.w3.org/2000/svg">
<g clip-path="url(#clip0_117_265)">
<rect x="12" y="12" width="252" height="252" fill="#BCA62F"/>
<g filter="url(#filter0_f_117_265)">
<rect x="4" y="208" width="272" height="66" fill="url(#paint0_linear_117_265)" fill-opacity="0.7"/>
</g>
<rect x="132" y="166" width="12" height="12" fill="#D3CBCB"/>
<rect x="120" y="142" width="12" height="12" fill="#D3CBCB"/>
<rect x="120" y="154" width="12" height="12" fill="#D3CBCB"/>
<rect x="120" y="166" width="12" height="12" fill="#D3CBCB"/>
<rect x="108" y="166" width="12" height="12" fill="#2E2B2B"/>
<rect x="108" y="154" width="12" height="12" fill="#2E2B2B"/>
<rect x="108" y="142" width="12" height="12" fill="#2E2B2B"/>
<rect x="108" y="130" width="12" height="12" fill="#2E2B2B"/>
<rect x="108" y="118" width="12" height="12" fill="#2E2B2B"/>
<rect x="96" y="142" width="12" height="12" fill="#2E2B2B"/>
<rect x="72" y="166" width="12" height="12" fill="#2E2B2B"/>
<rect x="60" y="130" width="12" height="12" fill="#2E2B2B"/>
<rect x="60" y="118" width="12" height="12" fill="#2E2B2B"/>
<rect x="48" y="106" width="12" height="12" fill="#2E2B2B"/>
<rect x="120" y="70" width="12" height="12" fill="#2E2B2B"/>
<rect x="60" y="70" width="60" height="12" fill="#2E2B2B"/>
<rect x="120" y="82" width="12" height="12" fill="#2E2B2B"/>
<rect x="108" y="82" width="12" height="12" fill="#2E2B2B"/>
<rect x="132" y="70" width="24" height="12" fill="#2E2B2B"/>
<rect x="156" y="46" width="12" height="12" fill="#2E2B2B"/>
<rect x="168" y="46" width="12" height="12" fill="#2E2B2B"/>
<rect x="180" y="46" width="12" height="12" fill="#2E2B2B"/>
<rect x="168" y="34" width="12" height="12" fill="#2E2B2B"/>
<rect x="36" y="94" width="12" height="12" fill="#2E2B2B"/>
<rect x="36" y="82" width="12" height="12" fill="#2E2B2B"/>
<rect x="48" y="70" width="12" height="12" fill="#2E2B2B"/>
<rect x="60" y="58" width="12" height="12" fill="#2E2B2B"/>
<rect x="72" y="58" width="12" height="12" fill="#2E2B2B"/>
<rect x="72" y="46" width="12" height="12" fill="#2E2B2B"/>
<rect x="84" y="46" width="12" height="12" fill="#2E2B2B"/>
<rect x="84" y="34" width="12" height="12" fill="#2E2B2B"/>
<rect x="84" y="22" width="12" height="12" fill="#2E2B2B"/>
<rect x="96" y="10" width="12" height="12" fill="#2E2B2B"/>
<rect x="84" y="10" width="12" height="12" fill="#2E2B2B"/>
<rect x="72" y="22" width="12" height="24" fill="#2E2B2B"/>
<rect x="60" y="34" width="12" height="24" fill="#2E2B2B"/>
<rect x="48" y="46" width="12" height="24" fill="#2E2B2B"/>
<rect x="36" y="58" width="12" height="12" fill="#2E2B2B"/>
<rect x="36" y="70" width="12" height="12" fill="#2E2B2B"/>
<rect x="36" y="106" width="12" height="12" fill="#2E2B2B"/>
<rect x="36" y="118" width="12" height="12" fill="#2E2B2B"/>
<rect x="36" y="130" width="12" height="12" fill="#2E2B2B"/>
<rect x="36" y="142" width="12" height="12" fill="#2E2B2B"/>
<rect x="36" y="154" width="12" height="12" fill="#2E2B2B"/>
<rect x="36" y="166" width="12" height="12" fill="#2E2B2B"/>
<rect x="36" y="178" width="12" height="12" fill="#2E2B2B"/>
<rect x="36" y="190" width="12" height="12" fill="#2E2B2B"/>
<rect x="204" y="262" width="12" height="12" fill="#2E2B2B"/>
<rect x="204" y="250" width="12" height="12" fill="#2E2B2B"/>
<rect x="216" y="238" width="12" height="12" fill="#2E2B2B"/>
<rect x="216" y="226" width="12" height="12" fill="#2E2B2B"/>
<rect x="216" y="214" width="12" height="12" fill="#2E2B2B"/>
<rect x="228" y="202" width="12" height="12" fill="#2E2B2B"/>
<rect x="228" y="190" width="12" height="12" fill="#2E2B2B"/>
<rect x="228" y="178" width="12" height="12" fill="#2E2B2B"/>
<rect x="240" y="154" width="12" height="12" fill="#2E2B2B"/>
<rect x="240" y="166" width="12" height="12" fill="#2E2B2B"/>
<rect x="240" y="142" width="12" height="12" fill="#2E2B2B"/>
<rect x="240" y="130" width="12" height="12" fill="#2E2B2B"/>
<rect x="240" y="118" width="12" height="12" fill="#2E2B2B"/>
<rect x="240" y="106" width="12" height="12" fill="#2E2B2B"/>
<rect x="240" y="94" width="12" height="12" fill="#2E2B2B"/>
<rect x="228" y="82" width="12" height="12" fill="#2E2B2B"/>
<rect x="228" y="70" width="12" height="12" fill="#2E2B2B"/>
<rect x="216" y="58" width="12" height="12" fill="#2E2B2B"/>
<rect x="216" y="46" width="12" height="12" fill="#2E2B2B"/>
<rect x="204" y="34" width="12" height="12" fill="#2E2B2B"/>
<rect x="192" y="22" width="12" height="12" fill="#2E2B2B"/>
<rect x="180" y="10" width="12" height="12" fill="#2E2B2B"/>
<rect x="24" y="178" width="12" height="12" fill="#2E2B2B"/>
<rect x="24" y="166" width="12" height="12" fill="#2E2B2B"/>
<rect x="24" y="154" width="12" height="12" fill="#2E2B2B"/>
<rect x="24" y="142" width="12" height="12" fill="#2E2B2B"/>
<rect x="96" y="22" width="12" height="12" fill="#2E2B2B"/>
<rect x="108" y="10" width="12" height="12" fill="#2E2B2B"/>
<rect x="120" y="22" width="12" height="12" fill="#2E2B2B"/>
<rect x="108" y="22" width="12" height="12" fill="#2E2B2B"/>
<rect x="96" y="34" width="12" height="12" fill="#2E2B2B"/>
<rect x="96" y="166" width="12" height="12" fill="#2E2B2B"/>
<rect x="96" y="154" width="12" height="12" fill="#2E2B2B"/>
<rect x="84" y="154" width="12" height="12" fill="#2E2B2B"/>
<rect x="84" y="166" width="12" height="12" fill="#2E2B2B"/>
<rect x="60" y="166" width="12" height="12" fill="#2E2B2B"/>
<rect x="48" y="118" width="12" height="72" fill="#2E2B2B"/>
<rect x="60" y="154" width="12" height="12" fill="#2E2B2B"/>
<rect x="72" y="154" width="12" height="12" fill="#2E2B2B"/>
<rect x="72" y="142" width="12" height="12" fill="#2E2B2B"/>
<rect x="84" y="142" width="12" height="12" fill="#2E2B2B"/>
<rect x="84" y="130" width="12" height="12" fill="#2E2B2B"/>
<rect x="72" y="118" width="12" height="12" fill="#2E2B2B"/>
<rect x="72" y="130" width="12" height="12" fill="#2E2B2B"/>
<rect x="96" y="130" width="12" height="12" fill="#2E2B2B"/>
<rect x="96" y="118" width="12" height="12" fill="#2E2B2B"/>
<rect x="84" y="118" width="12" height="12" fill="#2E2B2B"/>
<rect x="84" y="106" width="48" height="12" fill="#2E2B2B"/>
<rect x="72" y="106" width="12" height="12" fill="#2E2B2B"/>
<rect x="60" y="106" width="12" height="12" fill="#2E2B2B"/>
<rect x="60" y="94" width="72" height="12" fill="#2E2B2B"/>
<rect x="48" y="94" width="12" height="12" fill="#2E2B2B"/>
<rect x="48" y="82" width="12" height="12" fill="#2E2B2B"/>
<rect x="60" y="82" width="48" height="12" fill="#2E2B2B"/>
<rect x="84" y="58" width="84" height="12" fill="#2E2B2B"/>
<rect x="96" y="46" width="60" height="12" fill="#2E2B2B"/>
<rect x="108" y="34" width="60" height="12" fill="#2E2B2B"/>
<rect x="132" y="22" width="60" height="12" fill="#2E2B2B"/>
<rect x="180" y="34" width="24" height="12" fill="#2E2B2B"/>
<rect x="192" y="46" width="24" height="12" fill="#2E2B2B"/>
<rect x="120" y="10" width="60" height="12" fill="#2E2B2B"/>
<rect x="60" y="178" width="36" height="12" fill="#2E2B2B"/>
<rect x="48" y="190" width="36" height="12" fill="#2E2B2B"/>
<rect x="96" y="178" width="12" height="12" fill="#2E2B2B"/>
<rect x="132" y="190" width="12" height="12" fill="#2E2B2B"/>
<rect x="120" y="190" width="12" height="12" fill="#2E2B2B"/>
<rect x="120" y="202" width="12" height="12" fill="#2E2B2B"/>
<rect x="108" y="202" width="12" height="12" fill="#2E2B2B"/>
<rect x="84" y="190" width="12" height="12" fill="#2E2B2B"/>
<rect x="72" y="202" width="12" height="12" fill="#2E2B2B"/>
<rect x="72" y="190" width="12" height="12" fill="#2E2B2B"/>
<rect x="60" y="190" width="12" height="12" fill="#2E2B2B"/>
<rect x="60" y="202" width="12" height="12" fill="#2E2B2B"/>
<rect x="132" y="178" width="12" height="12" fill="#D3CBCB"/>
<rect x="144" y="190" width="12" height="12" fill="#D3CBCB"/>
<rect x="132" y="190" width="12" height="12" fill="#D3CBCB"/>
<rect x="144" y="202" width="12" height="12" fill="#D3CBCB"/>
<rect x="144" y="214" width="12" height="12" fill="#D3CBCB"/>
<rect x="144" y="214" width="12" height="12" fill="#D3CBCB"/>
<rect x="156" y="226" width="12" height="12" fill="#D3CBCB"/>
<rect x="168" y="238" width="12" height="12" fill="#D3CBCB"/>
<rect x="168" y="250" width="12" height="12" fill="#D3CBCB"/>
<rect x="168" y="262" width="12" height="12" fill="#2E2B2B"/>
<rect x="180" y="262" width="12" height="12" fill="#2E2B2B"/>
<rect x="192" y="262" width="12" height="12" fill="#2E2B2B"/>
<rect x="180" y="250" width="12" height="12" fill="#E8DCDC"/>
<rect x="192" y="250" width="12" height="12" fill="#E8DCDC"/>
<rect x="192" y="238" width="12" height="12" fill="white"/>
<rect x="204" y="238" width="12" height="12" fill="white"/>
<rect x="204" y="226" width="12" height="12" fill="white"/>
<rect x="192" y="166" width="12" height="72" fill="white"/>
<rect x="204" y="142" width="12" height="84" fill="white"/>
<rect x="216" y="202" width="12" height="12" fill="white"/>
<rect x="216" y="190" width="12" height="12" fill="white"/>
<rect x="216" y="178" width="12" height="12" fill="white"/>
<rect x="228" y="166" width="12" height="12" fill="white"/>
<rect x="216" y="166" width="12" height="12" fill="white"/>
<rect x="216" y="142" width="12" height="24" fill="white"/>
<rect x="192" y="142" width="12" height="24" fill="white"/>
<rect x="180" y="130" width="12" height="36" fill="white"/>
<rect x="204" y="118" width="12" height="24" fill="white"/>
<rect x="228" y="154" width="12" height="12" fill="white"/>
<rect x="228" y="142" width="12" height="12" fill="white"/>
<rect x="228" y="130" width="12" height="12" fill="white"/>
<rect x="216" y="118" width="12" height="24" fill="white"/>
<rect x="204" y="106" width="12" height="12" fill="white"/>
<rect x="204" y="94" width="12" height="12" fill="white"/>
<rect x="192" y="94" width="12" height="12" fill="white"/>
<rect x="192" y="82" width="12" height="12" fill="white"/>
<rect x="192" y="58" width="12" height="12" fill="white"/>
<rect x="192" y="106" width="12" height="12" fill="white"/>
<rect x="192" y="118" width="12" height="24" fill="white"/>
<rect x="180" y="118" width="12" height="12" fill="white"/>
<rect x="168" y="130" width="12" height="12" fill="white"/>
<rect x="168" y="118" width="12" height="12" fill="white"/>
<rect x="156" y="130" width="12" height="12" fill="white"/>
<rect x="144" y="142" width="12" height="12" fill="white"/>
<rect x="144" y="130" width="12" height="12" fill="white"/>
<rect x="132" y="142" width="12" height="12" fill="#E8DCDC"/>
<rect x="120" y="130" width="12" height="12" fill="#E8DCDC"/>
<rect x="120" y="118" width="12" height="12" fill="#FF0909"/>
<rect x="132" y="118" width="12" height="12" fill="#FF0909"/>
<rect x="144" y="118" width="12" height="12" fill="#FF0909"/>
<rect x="144" y="106" width="12" height="12" fill="#971A1A"/>
<rect x="132" y="106" width="12" height="12" fill="#971A1A"/>
<rect x="156" y="118" width="12" height="12" fill="#FF0909"/>
<rect x="168" y="106" width="12" height="12" fill="#FF0909"/>
<rect x="168" y="94" width="12" height="12" fill="#FF9090"/>
<rect x="156" y="106" width="12" height="12" fill="#FF0909"/>
<rect x="144" y="94" width="12" height="12" fill="#FF0909"/>
<rect x="144" y="82" width="12" height="12" fill="#FF0909"/>
<rect x="156" y="82" width="12" height="12" fill="#FF0909"/>
<rect x="156" y="70" width="12" height="12" fill="#FF0909"/>
<rect x="168" y="58" width="12" height="12" fill="#FF0909"/>
<rect x="180" y="58" width="12" height="12" fill="#FF0909"/>
<rect x="204" y="70" width="12" height="12" fill="#FF0909"/>
<rect x="216" y="82" width="12" height="12" fill="#FF0909"/>
<rect x="204" y="82" width="12" height="12" fill="#FF0909"/>
<rect x="216" y="70" width="12" height="12" fill="#FF0909"/>
<rect x="216" y="94" width="12" height="12" fill="#FF0909"/>
<rect x="216" y="106" width="12" height="12" fill="#FF0909"/>
<rect x="228" y="118" width="12" height="12" fill="#FF0909"/>
<rect x="228" y="94" width="12" height="12" fill="#FF9191"/>
<rect x="228" y="106" width="12" height="12" fill="#FF9191"/>
<rect x="204" y="58" width="12" height="12" fill="#FF0909"/>
<rect x="132" y="82" width="12" height="12" fill="#FF0909"/>
<rect x="132" y="94" width="12" height="12" fill="#FF0909"/>
<rect x="156" y="94" width="12" height="12" fill="#FF0808"/>
<rect x="180" y="106" width="12" height="12" fill="white"/>
<rect x="180" y="94" width="12" height="12" fill="white"/>
<rect x="180" y="82" width="12" height="12" fill="white"/>
<rect x="168" y="82" width="12" height="12" fill="#FF0909"/>
<rect x="168" y="70" width="12" height="12" fill="#FF0909"/>
<rect x="180" y="70" width="12" height="12" fill="#FF0909"/>
<rect x="132" y="130" width="12" height="12" fill="white"/>
<rect x="132" y="154" width="12" height="12" fill="#E8DCDC"/>
<rect x="144" y="154" width="12" height="12" fill="white"/>
<rect x="144" y="166" width="12" height="24" fill="#E8DCDC"/>
<rect x="156" y="142" width="12" height="84" fill="white"/>
<rect x="168" y="142" width="12" height="96" fill="white"/>
<rect x="180" y="166" width="12" height="84" fill="white"/>
<rect x="168" y="154" width="12" height="12" fill="#2E2B2B"/>
<rect x="180" y="166" width="12" height="12" fill="#2E2B2B"/>
<rect x="204" y="166" width="12" height="12" fill="#2E2B2B"/>
<rect x="192" y="142" width="12" height="12" fill="#2E2B2B"/>
<rect x="180" y="130" width="12" height="12" fill="#2E2B2B"/>
<rect x="204" y="130" width="12" height="12" fill="#2E2B2B"/>
<rect x="216" y="154" width="12" height="12" fill="#2E2B2B"/>
<rect x="84" y="154" width="12" height="12" fill="#2E2B2B"/>
<rect x="60" y="178" width="12" height="12" fill="#2E2B2B"/>
<rect x="48" y="190" width="12" height="12" fill="#2E2B2B"/>
<rect x="60" y="190" width="12" height="12" fill="#2E2B2B"/>
<rect x="48" y="202" width="12" height="12" fill="#2E2B2B"/>
<rect x="120" y="178" width="12" height="12" fill="#2E2B2B"/>
<rect x="108" y="178" width="12" height="12" fill="#2E2B2B"/>
<rect x="96" y="190" width="12" height="12" fill="#2E2B2B"/>
<rect x="84" y="202" width="12" height="12" fill="#2E2B2B"/>
<rect x="72" y="214" width="12" height="12" fill="#2E2B2B"/>
<rect x="72" y="226" width="12" height="12" fill="#2E2B2B"/>
<rect x="84" y="226" width="12" height="12" fill="#2E2B2B"/>
<rect x="96" y="226" width="12" height="12" fill="#2E2B2B"/>
<rect x="96" y="202" width="12" height="12" fill="#2E2B2B"/>
<rect x="108" y="214" width="12" height="12" fill="#2E2B2B"/>
<rect x="120" y="214" width="12" height="12" fill="#2E2B2B"/>
<rect x="132" y="202" width="12" height="12" fill="#2E2B2B"/>
<rect x="108" y="226" width="12" height="12" fill="#2E2B2B"/>
<rect x="96" y="238" width="12" height="12" fill="#2E2B2B"/>
<rect x="84" y="238" width="12" height="12" fill="#2E2B2B"/>
<rect x="108" y="250" width="12" height="12" fill="#2E2B2B"/>
<rect x="120" y="262" width="12" height="12" fill="#2E2B2B"/>
<rect x="132" y="262" width="12" height="12" fill="#2E2B2B"/>
<rect x="144" y="262" width="12" height="12" fill="#2E2B2B"/>
<rect x="156" y="262" width="12" height="12" fill="#2E2B2B"/>
<rect x="144" y="250" width="12" height="12" fill="#2E2B2B"/>
<rect x="132" y="250" width="12" height="12" fill="#2E2B2B"/>
<rect x="132" y="238" width="12" height="12" fill="#2E2B2B"/>
<rect x="120" y="238" width="12" height="12" fill="#2E2B2B"/>
<rect x="120" y="226" width="12" height="12" fill="#2E2B2B"/>
<rect x="108" y="238" width="12" height="12" fill="#2E2B2B"/>
<rect x="60" y="214" width="12" height="12" fill="#2E2B2B"/>
<rect x="120" y="250" width="12" height="12" fill="#2E2B2B"/>
<rect x="108" y="190" width="12" height="12" fill="#2E2B2B"/>
<rect x="84" y="214" width="12" height="12" fill="#2E2B2B"/>
<rect x="96" y="214" width="12" height="12" fill="#2E2B2B"/>
<rect x="156" y="250" width="12" height="12" fill="#2E2B2B"/>
<rect x="156" y="238" width="12" height="12" fill="#2E2B2B"/>
<rect x="144" y="238" width="12" height="12" fill="#2E2B2B"/>
<rect x="144" y="226" width="12" height="12" fill="#2E2B2B"/>
<rect x="132" y="226" width="12" height="12" fill="#2E2B2B"/>
<rect x="132" y="214" width="12" height="12" fill="#2E2B2B"/>
<rect x="84" y="226" width="12" height="12" fill="#2E2B2B"/>
<rect x="72" y="226" width="12" height="12" fill="#2E2B2B"/>
<rect x="72" y="214" width="12" height="12" fill="#2E2B2B"/>
<rect x="120" y="178" width="12" height="12" fill="#2E2B2B"/>
<rect x="96" y="154" width="12" height="12" fill="#2E2B2B"/>
<rect x="96" y="142" width="12" height="12" fill="#2E2B2B"/>
<rect x="96" y="106" width="12" height="12" fill="#2E2B2B"/>
<rect x="84" y="106" width="12" height="12" fill="#2E2B2B"/>
<rect x="72" y="94" width="12" height="12" fill="#2E2B2B"/>
<rect x="72" y="82" width="12" height="12" fill="#2E2B2B"/>
<rect x="96" y="166" width="12" height="12" fill="#2E2B2B"/>
<rect x="96" y="178" width="12" height="12" fill="#2E2B2B"/>
<rect x="108" y="118" width="12" height="72" fill="#2E2B2B"/>
<rect x="84" y="214" width="12" height="12" fill="#2E2B2B"/>
<rect x="60" y="142" width="12" height="12" fill="#2E2B2B"/>
<rect x="48" y="154" width="12" height="12" fill="#2E2B2B"/>
<rect x="48" y="166" width="12" height="12" fill="#2E2B2B"/>
<rect x="48" y="178" width="12" height="12" fill="#2E2B2B"/>
<rect x="192" y="70" width="12" height="12" fill="white"/>
<rect x="180" y="70" width="12" height="12" fill="white"/>
<rect x="180" y="58" width="12" height="12" fill="white"/>
<rect x="144" y="70" width="12" height="12" fill="#7A6C62"/>
<rect x="144" y="46" width="12" height="12" fill="#7A6C62"/>
<rect x="156" y="34" width="12" height="12" fill="#7A6C62"/>
<rect x="168" y="22" width="12" height="12" fill="#7A6C62"/>
<rect x="180" y="10" width="12" height="12" fill="#7A6C62"/>
<rect x="192" y="22" width="12" height="12" fill="#7A6C62"/>
<rect x="204" y="34" width="12" height="12" fill="#7A6C62"/>
<rect x="192" y="46" width="12" height="12" fill="#7A6C62"/>
<rect x="180" y="34" width="12" height="12" fill="#7A6C62"/>
<rect x="144" y="22" width="12" height="12" fill="#7A6C62"/>
<rect x="120" y="22" width="12" height="12" fill="#7A6C62"/>
<rect x="108" y="34" width="12" height="12" fill="#7A6C62"/>
<rect x="96" y="46" width="12" height="12" fill="#7A6C62"/>
<rect x="84" y="58" width="12" height="12" fill="#7A6C62"/>
<rect x="72" y="46" width="12" height="12" fill="#4D4A47"/>
<rect x="84" y="34" width="12" height="12" fill="#4D4A47"/>
<rect x="72" y="22" width="12" height="12" fill="#4D4A47"/>
<rect x="60" y="34" width="12" height="12" fill="#4D4A47"/>
<rect x="48" y="46" width="12" height="12" fill="#4D4A47"/>
<rect x="84" y="22" width="12" height="12" fill="#4D4A47"/>
<rect x="96" y="10" width="12" height="12" fill="#4D4A47"/>
<rect x="108" y="58" width="12" height="12" fill="#7A6C62"/>
<rect x="120" y="46" width="12" height="12" fill="#7A6C62"/>
<rect x="132" y="34" width="12" height="12" fill="#7A6C62"/>
<rect x="72" y="70" width="12" height="12" fill="#4D4139"/>
<rect x="132" y="58" width="12" height="12" fill="#7A6C62"/>
<rect x="96" y="70" width="12" height="12" fill="#7A6C62"/>
<rect x="108" y="130" width="12" height="12" fill="#7A6C62"/>
<rect x="96" y="118" width="12" height="12" fill="#7A6C62"/>
<rect x="108" y="106" width="12" height="12" fill="#7A6C62"/>
<rect x="120" y="94" width="12" height="12" fill="#7A6C62"/>
<rect x="108" y="82" width="12" height="12" fill="#7A6C62"/>
<rect x="84" y="82" width="12" height="12" fill="#4D4139"/>
<rect x="48" y="94" width="12" height="12" fill="#4D4139"/>
<rect x="36" y="82" width="12" height="12" fill="#4D4139"/>
<rect x="48" y="70" width="12" height="12" fill="#4D4139"/>
<rect x="60" y="58" width="12" height="12" fill="#4D4139"/>
<rect x="36" y="58" width="12" height="12" fill="#4D4139"/>
<rect x="60" y="82" width="12" height="12" fill="#4D4139"/>
<rect x="72.1366" y="93.8665" width="12" height="12" transform="rotate(1.28987 72.1366 93.8665)" fill="#4C4139"/>
<rect x="96" y="106" width="12" height="12" fill="#7A6C62"/>
<rect x="84" y="106" width="12" height="12" fill="#4C4139"/>
<rect x="72" y="118" width="12" height="12" fill="#4C4139"/>
<rect x="84" y="130" width="12" height="12" fill="#4C4139"/>
<rect x="84" y="142" width="12" height="12" fill="#4C4139"/>
<rect x="72" y="154" width="12" height="12" fill="#4C4139"/>
<rect x="60" y="166" width="12" height="12" fill="#4C4139"/>
<rect x="48" y="178" width="12" height="12" fill="#4C4139"/>
<rect x="60" y="190" width="12" height="12" fill="#7A6C62"/>
<rect x="72" y="190" width="12" height="12" fill="#7A6C62"/>
<rect x="84" y="178" width="12" height="12" fill="#7A6C62"/>
<rect x="96" y="166" width="12" height="12" fill="#7A6C62"/>
<rect x="108" y="178" width="12" height="12" fill="#7A6C62"/>
<rect x="96" y="190" width="12" height="12" fill="#7A6C62"/>
<rect x="132" y="214" width="12" height="12" fill="#7A6C62"/>
<rect x="120" y="226" width="12" height="12" fill="#7A6C62"/>
<rect x="132" y="238" width="12" height="12" fill="#7A6C62"/>
<rect x="144" y="238" width="12" height="12" fill="#7A6C62"/>
<rect x="156" y="250" width="12" height="12" fill="#7A6C62"/>
<rect x="144" y="262" width="12" height="12" fill="#7A6C62"/>
<rect x="132" y="250" width="12" height="12" fill="#7A6C62"/>
<rect x="108" y="238" width="12" height="12" fill="#7A6C62"/>
<rect x="96" y="226" width="12" height="12" fill="#7A6C62"/>
<rect x="84" y="238" width="12" height="12" fill="#7A6C62"/>
<rect x="108" y="214" width="12" height="12" fill="#7A6C62"/>
<rect x="120" y="202" width="12" height="12" fill="#7A6C62"/>
<rect x="84" y="190" width="12" height="12" fill="#7A6C62"/>
<rect x="24" y="178" width="12" height="12" fill="#4C4139"/>
<rect x="24" y="166" width="12" height="12" fill="#4C4139"/>
<rect x="24" y="154" width="12" height="12" fill="#4C4139"/>
<rect x="36" y="142" width="12" height="12" fill="#4C4139"/>
<rect x="48" y="154" width="12" height="12" fill="#4C4139"/>
<rect x="60" y="142" width="12" height="12" fill="#4C4139"/>
<rect x="48" y="130" width="12" height="12" fill="#4C4139"/>
<rect x="60" y="118" width="12" height="12" fill="#4C4139"/>
<rect x="60" y="106" width="12" height="12" fill="#4C4139"/>
<rect x="156" y="58" width="12" height="12" fill="#7A6C62"/>
<rect x="132" y="202" width="12" height="12" fill="#D3CBCB"/>
<rect x="156" y="238" width="12" height="12" fill="#D3CBCB"/>
</g>
<rect x="6" y="6" width="264" height="264" stroke="url(#paint1_linear_117_265)" stroke-width="12"/>
<defs>
<filter id="filter0_f_117_265" x="-12" y="192" width="304" height="98" filterUnits="userSpaceOnUse" color-interpolation-filters="sRGB">
<feFlood flood-opacity="0" result="BackgroundImageFix"/>
<feBlend mode="normal" in="SourceGraphic" in2="BackgroundImageFix" result="shape"/>
<feGaussianBlur stdDeviation="8" result="effect1_foregroundBlur_117_265"/>
</filter>
<linearGradient id="paint0_linear_117_265" x1="161.066" y1="270.383" x2="160.147" y2="186.999" gradientUnits="userSpaceOnUse">
<stop stop-color="white"/>
<stop offset="1" stop-color="white" stop-opacity="0"/>
</linearGradient>
<linearGradient id="paint1_linear_117_265" x1="299.858" y1="-31.5" x2="-24.6633" y2="297.715" gradientUnits="userSpaceOnUse">
<stop stop-color="#FFAE00"/>
<stop offset="0.245" stop-color="#FFF700"/>
<stop offset="0.56" stop-color="white"/>
<stop offset="0.79" stop-color="#FFFF00"/>
<stop offset="1" stop-color="#FF9500"/>
</linearGradient>
<clipPath id="clip0_117_265">
<rect x="12" y="12" width="252" height="252" fill="white"/>
</clipPath>
</defs>
</svg>
