<svg width="276" height="276" viewBox="0 0 276 276" fill="none" xmlns="http://www.w3.org/2000/svg">
<g clip-path="url(#clip0_1_2928)">
<rect x="12" y="12" width="252" height="252" fill="#D8BF34"/>
<rect x="36" y="120" width="12" height="12" fill="#DFD3DD"/>
<rect x="48" y="108" width="12" height="12" fill="#DFD3DD"/>
<rect x="48" y="96" width="12" height="12" fill="#DFD3DD"/>
<rect x="60" y="96" width="12" height="12" fill="#DFD3DD"/>
<rect x="60" y="84" width="12" height="12" fill="#DFD3DD"/>
<rect x="24" y="120" width="12" height="12" fill="#A19BA0"/>
<rect x="12" y="108" width="12" height="12" fill="#A19BA0"/>
<rect x="36" y="108" width="12" height="12" fill="#A19BA0"/>
<rect x="36" y="96" width="12" height="12" fill="#A19BA0"/>
<rect x="36" y="84" width="12" height="12" fill="#A19BA0"/>
<rect x="48" y="84" width="12" height="12" fill="#A19BA0"/>
<rect x="48" y="72" width="12" height="12" fill="#A19BA0"/>
<rect x="60" y="72" width="12" height="12" fill="#A19BA0"/>
<rect x="60" y="60" width="12" height="12" fill="#A19BA0"/>
<rect x="72" y="48" width="12" height="12" fill="#A19BA0"/>
<rect x="84" y="48" width="12" height="12" fill="#A19BA0"/>
<rect x="12" y="96" width="12" height="12" fill="#A19BA0"/>
<rect x="132" y="96" width="12" height="12" fill="#A19BA0"/>
<rect x="120" y="84" width="12" height="12" fill="#A19BA0"/>
<rect x="108" y="72" width="12" height="12" fill="#A19BA0"/>
<rect x="96" y="60" width="12" height="12" fill="#A19BA0"/>
<rect x="84" y="60" width="12" height="12" fill="#A19BA0"/>
<rect x="72" y="60" width="12" height="12" fill="#A19BA0"/>
<rect x="60" y="48" width="12" height="12" fill="#A19BA0"/>
<rect x="48" y="36" width="12" height="12" fill="#4B464B"/>
<rect x="60" y="36" width="12" height="12" fill="#A19BA0"/>
<rect x="72" y="36" width="12" height="12" fill="#A19BA0"/>
<rect x="84" y="36" width="12" height="12" fill="#A19BA0"/>
<rect x="96" y="48" width="12" height="12" fill="#A19BA0"/>
<rect x="108" y="60" width="12" height="12" fill="#A19BA0"/>
<rect x="120" y="72" width="12" height="12" fill="#A19BA0"/>
<rect x="132" y="84" width="12" height="12" fill="#A19BA0"/>
<rect x="192" y="48" width="12" height="12" fill="#A19BA0"/>
<rect x="180" y="60" width="12" height="12" fill="#A19BA0"/>
<rect x="192" y="60" width="12" height="12" fill="#A19BA0"/>
<rect x="180" y="96" width="12" height="12" fill="#BFB9BE"/>
<rect x="192" y="96" width="12" height="12" fill="#BFB9BE"/>
<rect x="180" y="108" width="12" height="12" fill="#BFB9BE"/>
<rect x="180" y="156" width="12" height="12" fill="#BFB9BE"/>
<rect x="168" y="156" width="12" height="12" fill="#BFB9BE"/>
<rect x="156" y="156" width="12" height="12" fill="#BFB9BE"/>
<rect x="144" y="144" width="36" height="12" fill="#BFB9BE"/>
<rect x="132" y="132" width="60" height="12" fill="#BFB9BE"/>
<rect x="144" y="156" width="12" height="12" fill="#BFB9BE"/>
<rect x="132" y="156" width="12" height="12" fill="#BFB9BE"/>
<rect x="144" y="168" width="12" height="12" fill="#BFB9BE"/>
<rect x="120" y="168" width="12" height="12" fill="#AFA7AE"/>
<rect x="120" y="144" width="12" height="12" fill="#AFA7AE"/>
<rect x="120" y="204" width="12" height="12" fill="#AFA7AE"/>
<rect x="180" y="204" width="12" height="12" fill="#AFA7AE"/>
<rect x="180" y="168" width="12" height="12" fill="#AFA7AE"/>
<rect x="180" y="144" width="12" height="12" fill="#AFA7AE"/>
<rect x="132" y="168" width="12" height="12" fill="#AFA7AE"/>
<rect x="132" y="144" width="12" height="12" fill="#AFA7AE"/>
<rect x="132" y="204" width="12" height="12" fill="#AFA7AE"/>
<rect x="192" y="204" width="12" height="12" fill="#AFA7AE"/>
<rect x="192" y="168" width="12" height="12" fill="#AFA7AE"/>
<rect x="192" y="144" width="12" height="12" fill="#AFA7AE"/>
<rect x="156" y="168" width="12" height="12" fill="#BFB9BE"/>
<rect x="132" y="180" width="60" height="12" fill="#BFB9BE"/>
<rect x="120" y="192" width="72" height="12" fill="#BFB9BE"/>
<rect x="144" y="204" width="36" height="12" fill="#BFB9BE"/>
<rect x="132" y="216" width="60" height="12" fill="#BFB9BE"/>
<rect x="120" y="228" width="72" height="12" fill="#BFB9BE"/>
<rect x="132" y="240" width="60" height="12" fill="#BFB9BE"/>
<rect x="132" y="252" width="60" height="12" fill="#BFB9BE"/>
<rect x="168" y="168" width="12" height="12" fill="#BFB9BE"/>
<rect x="192" y="84" width="12" height="12" fill="#BFB9BE"/>
<rect x="204" y="84" width="12" height="12" fill="#BFB9BE"/>
<rect x="216" y="84" width="12" height="12" fill="#BFB9BE"/>
<rect x="192" y="84" width="12" height="12" fill="#BFB9BE"/>
<rect x="204" y="72" width="12" height="12" fill="#BFB9BE"/>
<rect x="216" y="72" width="12" height="12" fill="#BFB9BE"/>
<rect x="228" y="72" width="12" height="12" fill="#BFB9BE"/>
<rect x="204" y="60" width="12" height="12" fill="#A19BA0"/>
<rect x="216" y="60" width="12" height="12" fill="#A19BA0"/>
<rect x="180" y="72" width="12" height="12" fill="#A19BA0"/>
<rect x="204" y="48" width="12" height="12" fill="#A19BA0"/>
<rect x="216" y="48" width="12" height="12" fill="#A19BA0"/>
<rect x="228" y="60" width="12" height="12" fill="#A19BA0"/>
<rect x="240" y="72" width="12" height="12" fill="#A19BA0"/>
<rect x="144" y="72" width="12" height="12" fill="#A19BA0"/>
<rect x="132" y="48" width="12" height="12" fill="#A19BA0"/>
<rect x="144" y="60" width="12" height="12" fill="#A19BA0"/>
<rect x="156" y="48" width="12" height="12" fill="#A19BA0"/>
<rect x="156" y="36" width="12" height="12" fill="#A19BA0"/>
<rect x="156" y="24" width="12" height="12" fill="#A19BA0"/>
<rect x="120" y="24" width="12" height="12" fill="#A19BA0"/>
<rect x="120" y="12" width="12" height="12" fill="#A19BA0"/>
<rect x="144" y="108" width="12" height="12" fill="#A19BA0"/>
<rect x="144" y="120" width="12" height="12" fill="#A19BA0"/>
<rect x="120" y="120" width="12" height="12" fill="#A19BA0"/>
<rect x="120" y="132" width="12" height="12" fill="#A19BA0"/>
<rect x="120" y="108" width="12" height="12" fill="#857E84"/>
<rect x="108" y="120" width="12" height="12" fill="#857E84"/>
<rect x="108" y="144" width="12" height="12" fill="#857E84"/>
<rect x="96" y="168" width="12" height="12" fill="#857E84"/>
<rect x="96" y="192" width="12" height="12" fill="#857E84"/>
<rect x="84" y="204" width="12" height="12" fill="#857E84"/>
<rect x="96" y="132" width="12" height="12" fill="#857E84"/>
<rect x="84" y="156" width="12" height="12" fill="#857E84"/>
<rect x="132" y="120" width="12" height="12" fill="#857E84"/>
<rect x="132" y="108" width="12" height="12" fill="#FFF9FE"/>
<rect x="144" y="96" width="12" height="12" fill="#DFD3DD"/>
<rect x="156" y="96" width="12" height="12" fill="#DFD3DD"/>
<rect x="156" y="84" width="12" height="12" fill="#DFD3DD"/>
<rect x="192" y="72" width="12" height="12" fill="#FFF9FE"/>
<rect x="180" y="84" width="12" height="12" fill="#FFF9FE"/>
<rect x="168" y="96" width="12" height="12" fill="#FFF9FE"/>
<rect x="168" y="108" width="12" height="12" fill="#FFF9FE"/>
<rect x="168" y="120" width="12" height="12" fill="#FFF9FE"/>
<rect x="180" y="120" width="12" height="12" fill="#DFD3DD"/>
<rect x="156" y="72" width="12" height="12" fill="#DFD3DD"/>
<rect x="156" y="60" width="12" height="12" fill="#DFD3DD"/>
<rect x="144" y="48" width="12" height="12" fill="#DFD3DD"/>
<rect x="132" y="36" width="12" height="12" fill="#DFD3DD"/>
<rect x="132" y="12" width="36" height="12" fill="#DFD3DD"/>
<rect x="132" y="24" width="24" height="12" fill="#DFD3DD"/>
<rect x="144" y="36" width="12" height="12" fill="#DFD3DD"/>
<rect x="156" y="108" width="12" height="12" fill="#DFD3DD"/>
<rect x="156" y="120" width="12" height="12" fill="#DFD3DD"/>
<rect x="144" y="120" width="12" height="12" fill="#DFD3DD"/>
<rect x="144" y="120" width="12" height="12" fill="#FFF9FE"/>
<rect x="120" y="84" width="12" height="12" fill="#FFF9FE"/>
<rect x="132" y="96" width="12" height="12" fill="#FFF9FE"/>
<rect x="108" y="72" width="12" height="12" fill="#FFF9FE"/>
<rect x="132" y="72" width="12" height="12" fill="#DFD3DD"/>
<rect x="120" y="60" width="12" height="12" fill="#DFD3DD"/>
<rect x="108" y="48" width="12" height="12" fill="#DFD3DD"/>
<rect x="120" y="96" width="12" height="12" fill="#DFD3DD"/>
<rect x="108" y="84" width="12" height="12" fill="#DFD3DD"/>
<rect x="96" y="72" width="12" height="12" fill="#DFD3DD"/>
<rect x="60" y="84" width="12" height="12" fill="#DFD3DD"/>
<rect x="72" y="72" width="12" height="12" fill="#DFD3DD"/>
<rect x="108" y="96" width="12" height="12" fill="#857E84"/>
<rect x="96" y="96" width="12" height="12" fill="#857E84"/>
<rect x="84" y="84" width="12" height="12" fill="#681616"/>
<rect x="84" y="96" width="12" height="12" fill="#681616"/>
<rect x="72" y="84" width="12" height="12" fill="#681616"/>
<rect x="96" y="24" width="12" height="12" fill="#6F2929"/>
<rect x="96" y="36" width="12" height="12" fill="#6F2929"/>
<rect x="96" y="12" width="12" height="12" fill="#6F2929"/>
<rect x="72" y="96" width="12" height="12" fill="#681616"/>
<rect x="192" y="108" width="12" height="12" fill="#857E84"/>
<rect x="204" y="120" width="12" height="12" fill="#681616"/>
<rect x="216" y="132" width="12" height="12" fill="#681616"/>
<rect x="204" y="144" width="12" height="12" fill="#681616"/>
<rect x="216" y="156" width="12" height="12" fill="#681616"/>
<rect x="192" y="156" width="12" height="12" fill="#857E84"/>
<rect x="192" y="180" width="12" height="12" fill="#857E84"/>
<rect x="192" y="192" width="12" height="12" fill="#9E1E1E"/>
<rect x="192" y="132" width="12" height="12" fill="#857E84"/>
<rect x="12" y="84" width="12" height="12" fill="#4B464B"/>
<rect x="24" y="72" width="12" height="12" fill="#4B464B"/>
<rect x="36" y="60" width="12" height="12" fill="#4B464B"/>
<rect x="48" y="48" width="12" height="12" fill="#4B464B"/>
<rect x="36" y="48" width="12" height="12" fill="#4B464B"/>
<rect x="48" y="60" width="12" height="12" fill="#4B464B"/>
<rect x="36" y="72" width="12" height="12" fill="#4B464B"/>
<rect x="24" y="84" width="12" height="12" fill="#4B464B"/>
<rect x="24" y="96" width="12" height="12" fill="#857E84"/>
<rect x="24" y="108" width="12" height="12" fill="#857E84"/>
<rect x="60" y="108" width="12" height="12" fill="#681616"/>
<rect x="72" y="108" width="12" height="12" fill="#681616"/>
<rect x="84" y="108" width="12" height="12" fill="#681616"/>
<rect x="120" y="156" width="12" height="12" fill="#6F2929"/>
<rect x="120" y="180" width="12" height="12" fill="#6F2929"/>
<rect x="108" y="180" width="12" height="12" fill="#6F2929"/>
<rect x="84" y="228" width="12" height="12" fill="#6F2929"/>
<rect x="84" y="216" width="12" height="12" fill="#6F2929"/>
<rect x="84" y="252" width="12" height="12" fill="#6F2929"/>
<rect x="84" y="240" width="12" height="12" fill="#6F2929"/>
<rect x="108" y="156" width="12" height="12" fill="#6F2929"/>
<rect x="96" y="108" width="12" height="12" fill="#681616"/>
<rect x="108" y="108" width="12" height="12" fill="#BF2B2B"/>
<rect x="96" y="120" width="12" height="12" fill="#BF2B2B"/>
<rect x="108" y="120" width="12" height="12" fill="#BF2B2B"/>
<rect x="84" y="132" width="12" height="12" fill="#9E1E1E"/>
<rect x="72" y="144" width="12" height="12" fill="#6E2828"/>
<rect x="240" y="144" width="12" height="12" fill="#BF2B2B"/>
<rect x="228" y="168" width="12" height="12" fill="#BF2B2B"/>
<rect x="240" y="180" width="12" height="12" fill="#BF2B2B"/>
<rect x="204" y="180" width="12" height="12" fill="#BF2B2B"/>
<rect x="204" y="168" width="12" height="12" fill="#BF2B2B"/>
<rect x="204" y="156" width="12" height="12" fill="#BF2B2B"/>
<rect x="228" y="132" width="12" height="12" fill="#BF2B2B"/>
<rect x="216" y="120" width="12" height="12" fill="#BF2B2B"/>
<rect x="228" y="120" width="12" height="12" fill="#BF2B2B"/>
<rect x="228" y="108" width="12" height="12" fill="#BF2B2B"/>
<rect x="180" y="12" width="12" height="12" fill="#BF2B2B"/>
<rect x="180" y="24" width="12" height="12" fill="#BF2B2B"/>
<rect x="168" y="24" width="12" height="12" fill="#BF2B2B"/>
<rect x="168" y="36" width="12" height="12" fill="#BF2B2B"/>
<rect x="168" y="48" width="12" height="12" fill="#BF2B2B"/>
<rect x="168" y="12" width="12" height="12" fill="#BF2B2B"/>
<rect x="216" y="96" width="12" height="12" fill="#BF2B2B"/>
<rect x="240" y="132" width="12" height="12" fill="#BF2B2B"/>
<rect x="252" y="132" width="12" height="12" fill="#BF2B2B"/>
<rect x="84" y="144" width="12" height="12" fill="#9E1E1E"/>
<rect x="72" y="156" width="12" height="12" fill="#6E2828"/>
<rect x="24" y="168" width="12" height="12" fill="#BF2B2B"/>
<rect x="12" y="180" width="12" height="12" fill="#BF2B2B"/>
<rect x="24" y="204" width="12" height="12" fill="#BF2B2B"/>
<rect x="24" y="192" width="12" height="12" fill="#BF2B2B"/>
<rect x="12" y="204" width="12" height="12" fill="#BF2B2B"/>
<rect x="12" y="192" width="12" height="12" fill="#BF2B2B"/>
<rect x="36" y="156" width="12" height="12" fill="#BF2B2B"/>
<rect x="48" y="144" width="12" height="12" fill="#BF2B2B"/>
<rect x="48" y="132" width="12" height="12" fill="#BF2B2B"/>
<rect x="48" y="120" width="12" height="12" fill="#BF2B2B"/>
<rect x="24" y="156" width="12" height="12" fill="#BF2B2B"/>
<rect x="36" y="132" width="12" height="12" fill="#E89A9A"/>
<rect x="36" y="168" width="12" height="12" fill="#E89A9A"/>
<rect x="36" y="180" width="12" height="12" fill="#E89A9A"/>
<rect x="48" y="168" width="12" height="12" fill="#E89A9A"/>
<rect x="240" y="120" width="12" height="12" fill="#E89A9A"/>
<rect x="252" y="144" width="12" height="12" fill="#E89A9A"/>
<rect x="252" y="156" width="12" height="12" fill="#E89A9A"/>
<rect x="252" y="168" width="12" height="12" fill="#E89A9A"/>
<rect x="216" y="108" width="12" height="12" fill="#E89A9A"/>
<rect x="204" y="96" width="12" height="12" fill="#E89A9A"/>
<rect x="204" y="108" width="12" height="12" fill="#E89A9A"/>
<rect x="192" y="12" width="12" height="12" fill="#E89A9A"/>
<rect x="192" y="24" width="12" height="12" fill="#E89A9A"/>
<rect x="180" y="36" width="12" height="12" fill="#E89A9A"/>
<rect x="108" y="36" width="12" height="12" fill="#E89A9A"/>
<rect x="24" y="180" width="12" height="12" fill="#F4CACA"/>
<rect x="36" y="192" width="12" height="12" fill="#F4CACA"/>
<rect x="48" y="156" width="12" height="12" fill="#F4CACA"/>
<rect x="36" y="144" width="12" height="12" fill="#BF2B2B"/>
<rect x="84" y="180" width="12" height="12" fill="#6E2828"/>
<rect x="96" y="180" width="12" height="12" fill="#9E1E1E"/>
<rect x="108" y="168" width="12" height="12" fill="#BF2B2B"/>
<rect x="108" y="192" width="12" height="12" fill="#BF2B2B"/>
<rect x="96" y="216" width="12" height="12" fill="#BF2B2B"/>
<rect x="96" y="204" width="12" height="12" fill="#9E1E1E"/>
<rect x="84" y="192" width="12" height="12" fill="#6E2828"/>
<rect x="108" y="204" width="12" height="12" fill="#BF2B2B"/>
<rect x="108" y="216" width="12" height="12" fill="#BF2B2B"/>
<rect x="120" y="216" width="12" height="12" fill="#BF2B2B"/>
<rect x="108" y="240" width="12" height="12" fill="#BF2B2B"/>
<rect x="108" y="228" width="12" height="12" fill="#BF2B2B"/>
<rect x="108" y="228" width="12" height="12" fill="#BF2B2B"/>
<rect x="96" y="228" width="12" height="12" fill="#BF2B2B"/>
<rect x="96" y="240" width="12" height="12" fill="#BF2B2B"/>
<rect x="96" y="252" width="12" height="12" fill="#BF2B2B"/>
<rect x="120" y="240" width="12" height="12" fill="#BF2B2B"/>
<rect x="192" y="228" width="12" height="12" fill="#9E1E1E"/>
<rect x="192" y="216" width="12" height="12" fill="#BF2B2B"/>
<rect x="192" y="240" width="12" height="12" fill="#BF2B2B"/>
<rect x="192" y="252" width="12" height="12" fill="#9E1E1E"/>
<rect x="120" y="252" width="12" height="12" fill="#BF2B2B"/>
<rect x="108" y="252" width="12" height="12" fill="#BF2B2B"/>
<rect x="84" y="168" width="12" height="12" fill="#6E2828"/>
<rect x="96" y="168" width="12" height="12" fill="#9E1E1E"/>
<rect x="84" y="156" width="12" height="12" fill="#9E1E1E"/>
<rect x="96" y="132" width="12" height="12" fill="#BF2B2B"/>
<rect x="108" y="144" width="12" height="12" fill="#BF2B2B"/>
<rect x="96" y="192" width="12" height="12" fill="#9E1E1E"/>
<rect x="120" y="192" width="12" height="12" fill="#9E1E1E"/>
<rect x="120" y="228" width="12" height="12" fill="#9E1E1E"/>
<rect x="84" y="204" width="12" height="12" fill="#6E2828"/>
<rect x="96" y="156" width="12" height="12" fill="#BF2B2B"/>
<rect x="108" y="132" width="12" height="12" fill="#BF2B2B"/>
<rect x="96" y="144" width="12" height="12" fill="#BF2B2B"/>
<rect x="72" y="132" width="12" height="12" fill="#6F2929"/>
<rect x="228" y="144" width="12" height="12" fill="#6F2929"/>
<rect x="216" y="144" width="12" height="12" fill="#681616"/>
<rect x="204" y="132" width="12" height="12" fill="#681616"/>
<rect x="192" y="120" width="12" height="12" fill="#6F2929"/>
<rect x="240" y="156" width="12" height="12" fill="#6F2929"/>
<rect x="228" y="156" width="12" height="12" fill="#6F2929"/>
<rect x="240" y="168" width="12" height="12" fill="#6F2929"/>
<rect x="228" y="180" width="12" height="12" fill="#6F2929"/>
<rect x="204" y="192" width="12" height="12" fill="#9E1E1E"/>
<rect x="204" y="204" width="12" height="12" fill="#9E1E1E"/>
<rect x="204" y="228" width="12" height="12" fill="#9E1E1E"/>
<rect x="204" y="216" width="12" height="12" fill="#6F2929"/>
<rect x="204" y="240" width="12" height="12" fill="#9E1E1E"/>
<rect x="204" y="252" width="12" height="12" fill="#6F2929"/>
<rect x="240" y="192" width="12" height="12" fill="#6F2929"/>
<rect x="228" y="192" width="12" height="12" fill="#6F2929"/>
<rect x="252" y="192" width="12" height="12" fill="#6F2929"/>
<rect x="252" y="180" width="12" height="12" fill="#6F2929"/>
<rect x="12" y="120" width="12" height="12" fill="#681616"/>
<rect x="12" y="132" width="12" height="12" fill="#681616"/>
<rect x="12" y="144" width="12" height="12" fill="#681616"/>
<rect x="24" y="144" width="12" height="12" fill="#6F2929"/>
<rect x="24" y="132" width="12" height="12" fill="#6F2929"/>
<rect x="12" y="156" width="12" height="12" fill="#6F2929"/>
<rect x="12" y="168" width="12" height="12" fill="#681616"/>
<rect x="84" y="120" width="12" height="12" fill="#BF2B2B"/>
<rect x="72" y="120" width="12" height="12" fill="#9E1E1E"/>
<rect x="96" y="96" width="12" height="12" fill="#9E1E1E"/>
<rect x="120" y="36" width="12" height="12" fill="#BF2B2B"/>
<rect x="108" y="24" width="12" height="12" fill="#BF2B2B"/>
<rect x="108" y="12" width="12" height="12" fill="#BF2B2B"/>
<rect x="60" y="120" width="12" height="12" fill="#681616"/>
<rect x="60" y="132" width="12" height="12" fill="#681616"/>
<rect x="96" y="84" width="12" height="12" fill="#857E84"/>
<rect x="144" y="72" width="12" height="12" fill="#4B464B"/>
<rect x="144" y="84" width="12" height="12" fill="#4B464B"/>
<rect x="180" y="48" width="12" height="12" fill="#4B464B"/>
<rect x="192" y="36" width="12" height="12" fill="#4B464B"/>
<rect x="204" y="36" width="12" height="12" fill="#4B464B"/>
<rect x="216" y="36" width="12" height="12" fill="#4B464B"/>
<rect x="228" y="48" width="12" height="12" fill="#4B464B"/>
<rect x="240" y="48" width="12" height="12" fill="#4B464B"/>
<rect x="228" y="36" width="12" height="12" fill="#4B464B"/>
<rect x="240" y="60" width="12" height="12" fill="#4B464B"/>
<rect x="228" y="84" width="12" height="12" fill="#4B464B"/>
<rect x="240" y="84" width="12" height="12" fill="#4B464B"/>
<rect x="228" y="96" width="12" height="12" fill="#4B464B"/>
<rect x="240" y="108" width="12" height="12" fill="#4B464B"/>
<rect x="252" y="96" width="12" height="12" fill="#4B464B"/>
<rect x="252" y="84" width="12" height="12" fill="#4B464B"/>
<rect x="252" y="72" width="12" height="12" fill="#4B464B"/>
<rect x="240" y="96" width="12" height="12" fill="#4B464B"/>
<rect x="168" y="60" width="12" height="12" fill="#4B464B"/>
<rect x="168" y="72" width="12" height="12" fill="#4B464B"/>
<rect x="168" y="84" width="12" height="12" fill="#4B464B"/>
<rect x="132" y="60" width="12" height="12" fill="#4B464B"/>
<rect x="120" y="48" width="12" height="12" fill="#4B464B"/>
<rect x="84" y="72" width="12" height="12" fill="#857E84"/>
<rect x="120" y="240" width="12" height="12" fill="#AFA7AE"/>
<rect x="132" y="240" width="12" height="12" fill="#AFA7AE"/>
<rect x="180" y="240" width="12" height="12" fill="#AFA7AE"/>
<rect x="192" y="240" width="12" height="12" fill="#AFA7AE"/>
<rect x="204" y="156" width="12" height="12" fill="#6E2828"/>
<rect x="204" y="180" width="12" height="12" fill="#6E2828"/>
<rect x="204" y="216" width="12" height="12" fill="#6E2828"/>
<rect x="120" y="216" width="12" height="12" fill="#6F2929"/>
<rect x="192" y="156" width="12" height="12" fill="#6E2828"/>
<rect x="192" y="180" width="12" height="12" fill="#6E2828"/>
<rect x="192" y="216" width="12" height="12" fill="#6E2828"/>
<rect x="108" y="216" width="12" height="12" fill="#6F2929"/>
<g filter="url(#filter0_f_1_2928)">
<rect x="4" y="208" width="272" height="66" fill="url(#paint0_linear_1_2928)" fill-opacity="0.7"/>
</g>
</g>
<rect x="6" y="6" width="264" height="264" stroke="url(#paint1_linear_1_2928)" stroke-width="12"/>
<defs>
<filter id="filter0_f_1_2928" x="-12" y="192" width="304" height="98" filterUnits="userSpaceOnUse" color-interpolation-filters="sRGB">
<feFlood flood-opacity="0" result="BackgroundImageFix"/>
<feBlend mode="normal" in="SourceGraphic" in2="BackgroundImageFix" result="shape"/>
<feGaussianBlur stdDeviation="8" result="effect1_foregroundBlur_1_2928"/>
</filter>
<linearGradient id="paint0_linear_1_2928" x1="161.066" y1="270.383" x2="160.147" y2="186.999" gradientUnits="userSpaceOnUse">
<stop stop-color="white"/>
<stop offset="1" stop-color="white" stop-opacity="0"/>
</linearGradient>
<linearGradient id="paint1_linear_1_2928" x1="299.858" y1="-31.5" x2="-24.6633" y2="297.715" gradientUnits="userSpaceOnUse">
<stop stop-color="#FFAE00"/>
<stop offset="0.245" stop-color="#FFF700"/>
<stop offset="0.56" stop-color="white"/>
<stop offset="0.79" stop-color="#FFFF00"/>
<stop offset="1" stop-color="#FF9500"/>
</linearGradient>
<clipPath id="clip0_1_2928">
<rect x="12" y="12" width="252" height="252" fill="white"/>
</clipPath>
</defs>
</svg>
