<svg width="273" height="273" viewBox="0 0 273 273" fill="none" xmlns="http://www.w3.org/2000/svg">
<g clip-path="url(#clip0_85_724)">
<rect x="10.5" y="10.5" width="252" height="252" fill="#EAC41E"/>
<rect x="157.5" y="231" width="10.5" height="10.5" fill="#6B8E8A"/>
<rect x="147" y="220.5" width="10.5" height="10.5" fill="#8BA7A4"/>
<rect x="147" y="231" width="10.5" height="10.5" fill="#162B28"/>
<rect x="136.5" y="189" width="10.5" height="10.5" fill="#162B28"/>
<rect x="147" y="241.5" width="10.5" height="10.5" fill="#162B28"/>
<rect x="147" y="252" width="10.5" height="10.5" fill="#162B28"/>
<rect x="157.5" y="252" width="10.5" height="10.5" fill="#162B28"/>
<rect x="157.5" y="241.5" width="10.5" height="10.5" fill="#162B28"/>
<rect x="157.5" y="231" width="10.5" height="10.5" fill="#162B28"/>
<rect x="168" y="199.5" width="10.5" height="10.5" fill="#8BA7A4"/>
<rect x="147" y="210" width="10.5" height="10.5" fill="#6B8E8A"/>
<rect x="147" y="189" width="10.5" height="10.5" fill="#6B8E8A"/>
<rect x="136.5" y="178.5" width="10.5" height="10.5" fill="#6B8E8A"/>
<rect x="136.5" y="168" width="10.5" height="10.5" fill="#6B8E8A"/>
<rect x="136.5" y="157.5" width="10.5" height="10.5" fill="#6B8E8A"/>
<rect x="136.5" y="147" width="10.5" height="10.5" fill="#6B8E8A"/>
<rect x="136.5" y="136.5" width="10.5" height="10.5" fill="#6B8E8A"/>
<rect x="147" y="84" width="10.5" height="105" fill="#6B8E8A"/>
<rect x="168" y="136.5" width="10.5" height="63" fill="#8BA7A4"/>
<rect x="136.5" y="73.5" width="10.5" height="63" fill="#6B8E8A"/>
<rect x="126" y="63" width="10.5" height="42" fill="#6B8E8A"/>
<rect x="115.5" y="73.5" width="10.5" height="31.5" fill="#6B8E8A"/>
<rect x="126" y="126" width="10.5" height="10.5" fill="#6B8E8A"/>
<rect x="115.5" y="136.5" width="10.5" height="10.5" fill="#6B8E8A"/>
<rect x="94.5" y="136.5" width="10.5" height="10.5" fill="#624F5D"/>
<rect x="84" y="115.5" width="10.5" height="10.5" fill="#624F5D"/>
<rect x="73.5" y="94.5" width="10.5" height="10.5" fill="#31232D"/>
<rect x="178.5" y="52.5" width="10.5" height="126" fill="#8BA7A4"/>
<rect x="189" y="42" width="10.5" height="94.5" fill="#8BA7A4"/>
<rect x="199.5" y="115.5" width="10.5" height="10.5" fill="#9E96A0"/>
<rect x="252" y="52.5" width="10.5" height="10.5" fill="#6B8E8A"/>
<rect x="241.5" y="63" width="10.5" height="10.5" fill="#427872"/>
<rect x="231" y="73.5" width="10.5" height="10.5" fill="#427872"/>
<rect x="231" y="84" width="10.5" height="10.5" fill="#427872"/>
<rect x="231" y="94.5" width="10.5" height="10.5" fill="#427872"/>
<rect x="231" y="105" width="10.5" height="10.5" fill="#427872"/>
<rect x="231" y="115.5" width="10.5" height="10.5" fill="#427872"/>
<rect x="241.5" y="126" width="10.5" height="10.5" fill="#427872"/>
<rect x="241.5" y="147" width="10.5" height="10.5" fill="#6B8E8A"/>
<rect x="241.5" y="157.5" width="10.5" height="10.5" fill="#6B8E8A"/>
<rect x="231" y="157.5" width="10.5" height="10.5" fill="#162B28"/>
<rect x="94.5" y="21" width="10.5" height="10.5" fill="#295550"/>
<rect x="84" y="31.5" width="10.5" height="10.5" fill="#34625D"/>
<rect x="42" y="84" width="10.5" height="10.5" fill="#427872"/>
<rect x="31.5" y="73.5" width="10.5" height="10.5" fill="#427872"/>
<rect x="42" y="94.5" width="10.5" height="10.5" fill="#427872"/>
<rect x="42" y="105" width="10.5" height="10.5" fill="#427872"/>
<rect x="42" y="115.5" width="10.5" height="10.5" fill="#427872"/>
<rect x="31.5" y="126" width="10.5" height="10.5" fill="#427872"/>
<rect x="31.5" y="157.5" width="10.5" height="10.5" fill="#427872"/>
<rect x="31.5" y="168" width="10.5" height="10.5" fill="#427872"/>
<rect x="42" y="168" width="10.5" height="10.5" fill="#162B28"/>
<rect x="105" y="10.5" width="10.5" height="10.5" fill="#162B28"/>
<rect x="199.5" y="94.5" width="10.5" height="10.5" fill="#9E96A0"/>
<rect x="210" y="94.5" width="10.5" height="10.5" fill="#9E96A0"/>
<rect x="210" y="84" width="10.5" height="10.5" fill="#9E96A0"/>
<rect x="199.5" y="84" width="10.5" height="10.5" fill="#6B8E8A"/>
<rect x="199.5" y="73.5" width="10.5" height="10.5" fill="#9E96A0"/>
<rect x="199.5" y="105" width="10.5" height="10.5" fill="#6B8E8A"/>
<rect x="126" y="105" width="10.5" height="10.5" fill="#6B8E8A"/>
<rect x="115.5" y="115.5" width="10.5" height="10.5" fill="#6B8E8A"/>
<rect x="105" y="105" width="10.5" height="10.5" fill="#6B8E8A"/>
<rect x="115.5" y="105" width="10.5" height="10.5" fill="#6B8E8A"/>
<rect x="105" y="94.5" width="10.5" height="10.5" fill="#6B8E8A"/>
<rect x="105" y="84" width="10.5" height="10.5" fill="#6B8E8A"/>
<rect x="94.5" y="84" width="10.5" height="10.5" fill="#6B8E8A"/>
<rect x="105" y="73.5" width="10.5" height="10.5" fill="#6B8E8A"/>
<rect x="115.5" y="63" width="10.5" height="10.5" fill="#6B8E8A"/>
<rect x="126" y="52.5" width="10.5" height="10.5" fill="#6B8E8A"/>
<rect x="168" y="105" width="10.5" height="10.5" fill="#6B8E8A"/>
<rect x="168" y="115.5" width="10.5" height="10.5" fill="#6B8E8A"/>
<rect x="168" y="84" width="10.5" height="10.5" fill="#6B8E8A"/>
<rect x="136.5" y="63" width="10.5" height="10.5" fill="#6B8E8A"/>
<rect x="147" y="73.5" width="10.5" height="10.5" fill="#6B8E8A"/>
<rect x="157.5" y="42" width="10.5" height="42" fill="#6B8E8A"/>
<rect x="147" y="42" width="10.5" height="31.5" fill="#6B8E8A"/>
<rect x="168" y="42" width="10.5" height="42" fill="#6B8E8A"/>
<rect x="157.5" y="84" width="10.5" height="147" fill="#6B8E8A"/>
<rect x="126" y="115.5" width="10.5" height="10.5" fill="#6B8E8A"/>
<rect x="199.5" y="42" width="10.5" height="10.5" fill="#34625D"/>
<rect x="189" y="42" width="10.5" height="10.5" fill="#D2BFB1"/>
<rect x="178.5" y="52.5" width="10.5" height="10.5" fill="#6B8E8A"/>
<rect x="189" y="63" width="10.5" height="10.5" fill="#6B8E8A"/>
<rect x="189" y="31.5" width="10.5" height="10.5" fill="#34625D"/>
<rect x="178.5" y="21" width="10.5" height="10.5" fill="#34625D"/>
<rect x="168" y="31.5" width="10.5" height="10.5" fill="#E0D5CC"/>
<rect x="157.5" y="31.5" width="10.5" height="10.5" fill="#D2BFB1"/>
<rect x="157.5" y="21" width="10.5" height="10.5" fill="#D2BFB1"/>
<rect x="168" y="10.5" width="10.5" height="10.5" fill="#7A877F"/>
<rect x="168" y="21" width="10.5" height="10.5" fill="#E0D5CC"/>
<rect x="178.5" y="31.5" width="10.5" height="10.5" fill="#6B8E8A"/>
<rect x="178.5" y="42" width="10.5" height="10.5" fill="#6B8E8A"/>
<rect x="199.5" y="52.5" width="10.5" height="10.5" fill="#6B8E8A"/>
<rect x="210" y="63" width="10.5" height="10.5" fill="#6B8E8A"/>
<rect x="210" y="73.5" width="10.5" height="10.5" fill="#9E96A0"/>
<rect x="199.5" y="63" width="10.5" height="10.5" fill="#9E96A0"/>
<rect x="94.5" y="52.5" width="10.5" height="10.5" fill="#427872"/>
<rect x="105" y="52.5" width="10.5" height="10.5" fill="#6B8E8A"/>
<rect x="115.5" y="52.5" width="10.5" height="10.5" fill="#6B8E8A"/>
<rect x="126" y="42" width="10.5" height="10.5" fill="#6B8E8A"/>
<rect x="136.5" y="52.5" width="10.5" height="10.5" fill="#6B8E8A"/>
<rect x="136.5" y="42" width="10.5" height="10.5" fill="#6B8E8A"/>
<rect x="105" y="63" width="10.5" height="10.5" fill="#6B8E8A"/>
<rect x="94.5" y="63" width="10.5" height="10.5" fill="#6B8E8A"/>
<rect x="94.5" y="73.5" width="10.5" height="10.5" fill="#6B8E8A"/>
<rect x="84" y="63" width="10.5" height="10.5" fill="#6B8E8A"/>
<rect x="73.5" y="52.5" width="10.5" height="10.5" fill="#34625D"/>
<rect x="157.5" y="94.5" width="10.5" height="84" fill="#D9E8EE"/>
<rect x="147" y="157.5" width="10.5" height="10.5" fill="#D9E8EE"/>
<rect x="147" y="126" width="10.5" height="10.5" fill="#D9E8EE"/>
<rect x="147" y="94.5" width="10.5" height="10.5" fill="#D9E8EE"/>
<rect x="168" y="94.5" width="10.5" height="10.5" fill="#D9E8EE"/>
<rect x="178.5" y="84" width="10.5" height="10.5" fill="#D9E8EE"/>
<rect x="189" y="94.5" width="10.5" height="10.5" fill="#D9E8EE"/>
<rect x="199.5" y="105" width="10.5" height="10.5" fill="#D9E8EE"/>
<rect x="105" y="115.5" width="10.5" height="10.5" fill="#D9E8EE"/>
<rect x="210" y="105" width="10.5" height="10.5" fill="#624F5D"/>
<rect x="147" y="31.5" width="10.5" height="10.5" fill="#624F5D"/>
<rect x="147" y="21" width="10.5" height="10.5" fill="#624F5D"/>
<rect x="157.5" y="21" width="10.5" height="10.5" fill="#806C7A"/>
<rect x="157.5" y="31.5" width="10.5" height="10.5" fill="#E0D5CC"/>
<rect x="136.5" y="10.5" width="10.5" height="10.5" fill="#6A5448"/>
<rect x="147" y="10.5" width="10.5" height="10.5" fill="#6A5448"/>
<rect x="157.5" y="10.5" width="10.5" height="10.5" fill="#6A5448"/>
<rect x="210" y="115.5" width="10.5" height="10.5" fill="#624F5D"/>
<rect x="210" y="126" width="10.5" height="10.5" fill="#624F5D"/>
<rect x="94.5" y="115.5" width="10.5" height="10.5" fill="#624F5D"/>
<rect x="52.5" y="157.5" width="10.5" height="10.5" fill="#CCB4AF"/>
<rect x="52.5" y="147" width="10.5" height="10.5" fill="#6A5448"/>
<rect x="52.5" y="126" width="10.5" height="31.5" fill="#CCB4AF"/>
<rect x="94.5" y="126" width="10.5" height="10.5" fill="#624F5D"/>
<rect x="31.5" y="84" width="10.5" height="10.5" fill="#BDA294"/>
<rect x="21" y="73.5" width="10.5" height="10.5" fill="#BDA294"/>
<rect x="31.5" y="94.5" width="10.5" height="10.5" fill="#BDA294"/>
<rect x="31.5" y="105" width="10.5" height="10.5" fill="#BDA294"/>
<rect x="31.5" y="115.5" width="10.5" height="10.5" fill="#BDA294"/>
<rect x="21" y="136.5" width="10.5" height="10.5" fill="#BDA294"/>
<rect x="21" y="126" width="10.5" height="10.5" fill="#BDA294"/>
<rect x="105" y="136.5" width="10.5" height="10.5" fill="#D9E8EE"/>
<rect x="115.5" y="147" width="10.5" height="10.5" fill="#E2D3DC"/>
<rect x="126" y="189" width="10.5" height="10.5" fill="#EAE6E3"/>
<rect x="126" y="178.5" width="10.5" height="10.5" fill="#EAE6E3"/>
<rect x="115.5" y="168" width="10.5" height="10.5" fill="#EAE6E3"/>
<rect x="105" y="168" width="10.5" height="10.5" fill="#EAE6E3"/>
<rect x="105" y="178.5" width="10.5" height="10.5" fill="#EAE6E3"/>
<rect x="94.5" y="189" width="10.5" height="10.5" fill="#E0D5CC"/>
<rect x="115.5" y="189" width="10.5" height="10.5" fill="#EAE6E3"/>
<rect x="105" y="199.5" width="10.5" height="63" fill="#EAE6E3"/>
<rect x="115.5" y="199.5" width="10.5" height="63" fill="#EAE6E3"/>
<rect x="126" y="199.5" width="10.5" height="63" fill="#EAE6E3"/>
<rect x="136.5" y="199.5" width="10.5" height="63" fill="#EAE6E3"/>
<rect x="94.5" y="210" width="10.5" height="52.5" fill="#E0D5CC"/>
<rect x="189" y="199.5" width="10.5" height="52.5" fill="#EAE6E3"/>
<rect x="199.5" y="210" width="10.5" height="52.5" fill="#EAE6E3"/>
<rect x="210" y="231" width="10.5" height="31.5" fill="#EAE6E3"/>
<rect x="220.5" y="252" width="10.5" height="10.5" fill="white"/>
<rect x="210" y="241.5" width="10.5" height="10.5" fill="white"/>
<rect x="210" y="231" width="10.5" height="10.5" fill="white"/>
<rect x="199.5" y="220.5" width="10.5" height="10.5" fill="white"/>
<rect x="178.5" y="220.5" width="10.5" height="10.5" fill="#EAE6E3"/>
<rect x="178.5" y="210" width="10.5" height="10.5" fill="#EAE6E3"/>
<rect x="168" y="210" width="10.5" height="10.5" fill="#EAE6E3"/>
<rect x="168" y="220.5" width="10.5" height="10.5" fill="#D2BFB1"/>
<rect x="178.5" y="199.5" width="10.5" height="10.5" fill="#EAE6E3"/>
<rect x="178.5" y="189" width="10.5" height="10.5" fill="#EAE6E3"/>
<rect x="178.5" y="178.5" width="10.5" height="10.5" fill="#EAE6E3"/>
<rect x="189" y="189" width="10.5" height="10.5" fill="#EAE6E3"/>
<rect x="199.5" y="199.5" width="10.5" height="10.5" fill="#EAE6E3"/>
<rect x="199.5" y="189" width="10.5" height="10.5" fill="#EAE6E3"/>
<rect x="199.5" y="178.5" width="10.5" height="10.5" fill="#EAE6E3"/>
<rect x="189" y="178.5" width="10.5" height="10.5" fill="#EAE6E3"/>
<rect x="189" y="168" width="10.5" height="10.5" fill="#EAE6E3"/>
<rect x="189" y="157.5" width="10.5" height="10.5" fill="#EAE6E3"/>
<rect x="199.5" y="147" width="10.5" height="10.5" fill="#EAE6E3"/>
<rect x="199.5" y="136.5" width="10.5" height="10.5" fill="#EAE6E3"/>
<rect x="199.5" y="126" width="10.5" height="10.5" fill="#EAE6E3"/>
<rect x="199.5" y="168" width="10.5" height="10.5" fill="#EAE6E3"/>
<rect x="199.5" y="157.5" width="10.5" height="10.5" fill="#EAE6E3"/>
<rect x="126" y="157.5" width="10.5" height="10.5" fill="#EAE6E3"/>
<rect x="126" y="168" width="10.5" height="10.5" fill="#BFB4B2"/>
<rect x="115.5" y="178.5" width="10.5" height="10.5" fill="#BFB4B2"/>
<rect x="105" y="189" width="10.5" height="10.5" fill="#BFB4B2"/>
<rect x="94.5" y="199.5" width="10.5" height="10.5" fill="#BFB4B2"/>
<rect x="84" y="231" width="10.5" height="10.5" fill="#D2BFB1"/>
<rect x="84" y="241.5" width="10.5" height="10.5" fill="#D2BFB1"/>
<rect x="84.5" y="251.5" width="10" height="11" fill="#D2BFB1"/>
<rect x="84" y="199.5" width="10.5" height="10.5" fill="#D2BFB1"/>
<rect x="84" y="189" width="10.5" height="10.5" fill="#D2BFB1"/>
<rect x="94.5" y="178.5" width="10.5" height="10.5" fill="#D2BFB1"/>
<rect x="94.5" y="168" width="10.5" height="10.5" fill="#D2BFB1"/>
<rect x="178.5" y="10.5" width="10.5" height="10.5" fill="#D2BFB1"/>
<rect x="189" y="21" width="10.5" height="10.5" fill="#D2BFB1"/>
<rect x="199.5" y="31.5" width="10.5" height="10.5" fill="#D2BFB1"/>
<rect x="73.5" y="31.5" width="10.5" height="10.5" fill="#A79A97"/>
<rect x="73.5" y="21" width="10.5" height="10.5" fill="#D2BFB1"/>
<rect x="63" y="31.5" width="10.5" height="10.5" fill="#D2BFB1"/>
<rect x="42" y="42" width="10.5" height="42" fill="#C5AF9F"/>
<rect x="52.5" y="31.5" width="10.5" height="52.5" fill="#D2BFB1"/>
<rect x="63" y="42" width="10.5" height="42" fill="#A79A97"/>
<rect x="31.5" y="178.5" width="10.5" height="10.5" fill="#D2BFB1"/>
<rect x="10.5" y="168" width="10.5" height="10.5" fill="#D2BFB1"/>
<rect x="10.5" y="157.5" width="10.5" height="10.5" fill="#D2BFB1"/>
<rect x="10.5" y="147" width="10.5" height="10.5" fill="#D2BFB1"/>
<rect x="210" y="42" width="10.5" height="10.5" fill="#D2BFB1"/>
<rect x="220.5" y="42" width="10.5" height="10.5" fill="#D2BFB1"/>
<rect x="220.5" y="52.5" width="10.5" height="10.5" fill="#D2BFB1"/>
<rect x="115.5" y="21" width="10.5" height="10.5" fill="#E0D5CC"/>
<rect x="126" y="21" width="10.5" height="10.5" fill="#E0D5CC"/>
<rect x="136.5" y="31.5" width="10.5" height="10.5" fill="#E0D5CC"/>
<rect x="126" y="31.5" width="10.5" height="10.5" fill="#E0D5CC"/>
<rect x="136.5" y="21" width="10.5" height="10.5" fill="#624F5D"/>
<rect x="126" y="10.5" width="10.5" height="10.5" fill="#D2BFB1"/>
<rect x="115.5" y="10.5" width="10.5" height="10.5" fill="#D2BFB1"/>
<rect x="220.5" y="63" width="10.5" height="10.5" fill="#D2BFB1"/>
<rect x="220.5" y="73.5" width="10.5" height="10.5" fill="#D2BFB1"/>
<rect x="220.5" y="84" width="10.5" height="10.5" fill="#D2BFB1"/>
<rect x="231" y="63" width="10.5" height="10.5" fill="#C5B09F"/>
<rect x="231" y="52.5" width="10.5" height="10.5" fill="#C5B09F"/>
<rect x="231" y="42" width="10.5" height="10.5" fill="#C5B09F"/>
<rect x="220.5" y="31.5" width="10.5" height="10.5" fill="#C5B09F"/>
<rect x="210" y="31.5" width="10.5" height="10.5" fill="#C5B09F"/>
<rect x="199.5" y="21" width="10.5" height="10.5" fill="#C5B09F"/>
<rect x="220.5" y="94.5" width="10.5" height="10.5" fill="#D2BFB1"/>
<rect x="220.5" y="126" width="10.5" height="10.5" fill="#D2BFB1"/>
<rect x="220.5" y="115.5" width="10.5" height="10.5" fill="#D2BFB1"/>
<rect x="220.5" y="105" width="10.5" height="10.5" fill="#9E96A0"/>
<rect x="231" y="126" width="10.5" height="10.5" fill="#D2BFB1"/>
<rect x="231" y="136.5" width="10.5" height="10.5" fill="#D2BFB1"/>
<rect x="241.5" y="136.5" width="10.5" height="10.5" fill="#D2BFB1"/>
<rect x="231" y="147" width="10.5" height="10.5" fill="#D2BFB1"/>
<rect x="220.5" y="157.5" width="10.5" height="10.5" fill="#D2BFB1"/>
<rect x="220.5" y="168" width="10.5" height="10.5" fill="#D2BFB1"/>
<rect x="231" y="178.5" width="10.5" height="10.5" fill="#D2BFB1"/>
<rect x="241.5" y="168" width="10.5" height="10.5" fill="#D2BFB1"/>
<rect x="231" y="168" width="10.5" height="10.5" fill="#D2BFB1"/>
<rect x="94.5" y="157.5" width="10.5" height="10.5" fill="#D2BFB1"/>
<rect x="105" y="157.5" width="10.5" height="10.5" fill="#EAE6E3"/>
<rect x="189" y="136.5" width="10.5" height="10.5" fill="#A79A97"/>
<rect x="189" y="147" width="10.5" height="10.5" fill="#A79A97"/>
<rect x="42" y="157.5" width="10.5" height="10.5" fill="#E0D5CC"/>
<rect x="42" y="178.5" width="10.5" height="10.5" fill="#A79A97"/>
<rect x="52.5" y="168" width="10.5" height="10.5" fill="#A79A97"/>
<rect x="42" y="147" width="10.5" height="10.5" fill="#E0D5CC"/>
<rect x="63" y="105" width="10.5" height="10.5" fill="#A79A97"/>
<rect x="63" y="94.5" width="10.5" height="10.5" fill="#A79A97"/>
<rect x="63" y="84" width="10.5" height="10.5" fill="#A79A97"/>
<rect x="73.5" y="84" width="10.5" height="10.5" fill="#A79A97"/>
<rect x="73.5" y="73.5" width="10.5" height="10.5" fill="#A79A97"/>
<rect x="52.5" y="84" width="10.5" height="10.5" fill="#A79A97"/>
<rect x="52.5" y="94.5" width="10.5" height="10.5" fill="#A79A97"/>
<rect x="52.5" y="105" width="10.5" height="10.5" fill="#A79A97"/>
<rect x="52.5" y="115.5" width="10.5" height="10.5" fill="#A79A97"/>
<rect x="42" y="126" width="10.5" height="10.5" fill="#E0D5CC"/>
<rect x="42" y="136.5" width="10.5" height="10.5" fill="#E0D5CC"/>
<rect x="31.5" y="136.5" width="10.5" height="10.5" fill="#E0D5CC"/>
<rect x="21" y="147" width="10.5" height="10.5" fill="#E0D5CC"/>
<rect x="21" y="157.5" width="10.5" height="10.5" fill="#E0D5CC"/>
<rect x="21" y="168" width="10.5" height="10.5" fill="#E0D5CC"/>
<rect x="31.5" y="147" width="10.5" height="10.5" fill="#E0D5CC"/>
<rect x="220.5" y="147" width="10.5" height="10.5" fill="#A79A97"/>
<rect x="220.5" y="136.5" width="10.5" height="10.5" fill="#A79A97"/>
<rect x="210" y="52.5" width="10.5" height="10.5" fill="#A79A97"/>
<rect x="94.5" y="10.5" width="10.5" height="10.5" fill="#A79A97"/>
<rect x="84" y="21" width="10.5" height="10.5" fill="#A79A97"/>
<rect x="84" y="52.5" width="10.5" height="10.5" fill="#6B8E8A"/>
<rect x="94.5" y="147" width="10.5" height="10.5" fill="#BFB4B2"/>
<rect x="84" y="210" width="10.5" height="10.5" fill="#BFB4B2"/>
<rect x="84" y="220.5" width="10.5" height="10.5" fill="#D2BFB1"/>
<rect x="168" y="252" width="10.5" height="10.5" fill="#D2BFB1"/>
<rect x="168" y="241.5" width="10.5" height="10.5" fill="#D2BFB1"/>
<rect x="178.5" y="231" width="10.5" height="10.5" fill="#D2BFB1"/>
<rect x="168" y="231" width="10.5" height="10.5" fill="#D2BFB1"/>
<rect x="178.5" y="241.5" width="10.5" height="10.5" fill="#D2BFB1"/>
<rect x="189" y="241.5" width="10.5" height="10.5" fill="#D2BFB1"/>
<rect x="189" y="252" width="10.5" height="10.5" fill="#D2BFB1"/>
<rect x="178.5" y="252" width="10.5" height="10.5" fill="#D2BFB1"/>
<rect x="73.5" y="231" width="10.5" height="10.5" fill="#D2BFB1"/>
<rect x="73.5" y="241.5" width="10.5" height="10.5" fill="#D2BFB1"/>
<rect x="73.5" y="251.5" width="11" height="11" fill="#D2BFB1"/>
<rect x="115.5" y="157.5" width="10.5" height="10.5" fill="#BFB4B2"/>
<rect x="105" y="147" width="10.5" height="10.5" fill="#BFB4B2"/>
<rect x="84" y="105" width="10.5" height="10.5" fill="#11110F"/>
<rect x="105" y="126" width="10.5" height="10.5" fill="#6B8E8A"/>
<rect x="84" y="84" width="10.5" height="10.5" fill="#31232D"/>
<rect x="84" y="94.5" width="10.5" height="10.5" fill="#31232D"/>
<rect x="84" y="105" width="10.5" height="10.5" fill="#31232D"/>
<rect x="73.5" y="105" width="10.5" height="10.5" fill="#31232D"/>
<rect x="126" y="147" width="10.5" height="10.5" fill="#11110F"/>
<rect x="94.5" y="105" width="10.5" height="10.5" fill="#624F5D"/>
<rect x="178.5" y="105" width="10.5" height="10.5" fill="#D9E8EE"/>
<rect x="189" y="115.5" width="10.5" height="10.5" fill="#D9E8EE"/>
<rect x="136.5" y="105" width="10.5" height="10.5" fill="#D9E8EE"/>
<rect x="126" y="115.5" width="10.5" height="10.5" fill="#D9E8EE"/>
<rect x="115.5" y="126" width="10.5" height="10.5" fill="#D9E8EE"/>
<rect x="115.5" y="105" width="10.5" height="10.5" fill="#D9E8EE"/>
<rect x="94.5" y="94.5" width="10.5" height="10.5" fill="#D9E8EE"/>
<rect x="105" y="84" width="10.5" height="10.5" fill="#D9E8EE"/>
<rect x="115.5" y="73.5" width="10.5" height="10.5" fill="#D9E8EE"/>
<rect x="126" y="63" width="10.5" height="10.5" fill="#D9E8EE"/>
<rect x="136.5" y="52.5" width="10.5" height="10.5" fill="#D9E8EE"/>
<rect x="126" y="42" width="10.5" height="10.5" fill="#D9E8EE"/>
<rect x="115.5" y="52.5" width="10.5" height="10.5" fill="#D9E8EE"/>
<rect x="105" y="52.5" width="10.5" height="10.5" fill="#D9E8EE"/>
<rect x="94.5" y="63" width="10.5" height="10.5" fill="#D9E8EE"/>
<rect x="84" y="73.5" width="10.5" height="10.5" fill="#D9E8EE"/>
<rect x="136.5" y="42" width="10.5" height="10.5" fill="#D9E8EE"/>
<rect x="168" y="42" width="10.5" height="10.5" fill="#D9E8EE"/>
<rect x="178.5" y="42" width="10.5" height="10.5" fill="#D9E8EE"/>
<rect x="189" y="52.5" width="10.5" height="10.5" fill="#6B8E8A"/>
<rect x="199.5" y="52.5" width="10.5" height="10.5" fill="#6B8E8A"/>
<rect x="210" y="63" width="10.5" height="10.5" fill="#D9E8EE"/>
<rect x="168" y="52.5" width="10.5" height="10.5" fill="#D9E8EE"/>
<rect x="178.5" y="63" width="10.5" height="10.5" fill="#D9E8EE"/>
<rect x="189" y="52.5" width="10.5" height="10.5" fill="#D9E8EE"/>
<rect x="189" y="73.5" width="10.5" height="10.5" fill="#D9E8EE"/>
<rect x="199.5" y="84" width="10.5" height="10.5" fill="#D9E8EE"/>
<rect x="126" y="94.5" width="10.5" height="10.5" fill="#D9E8EE"/>
<rect x="136.5" y="84" width="10.5" height="10.5" fill="#D9E8EE"/>
<rect x="168" y="126" width="10.5" height="10.5" fill="#D9E8EE"/>
<rect x="178.5" y="136.5" width="10.5" height="10.5" fill="#D9E8EE"/>
<rect x="136.5" y="136.5" width="10.5" height="10.5" fill="#D9E8EE"/>
<rect x="126" y="136.5" width="10.5" height="10.5" fill="#D9E8EE"/>
<rect x="136.5" y="168" width="10.5" height="10.5" fill="#D9E8EE"/>
<rect x="168" y="157.5" width="10.5" height="10.5" fill="#D9E8EE"/>
<rect x="178.5" y="168" width="10.5" height="10.5" fill="#D9E8EE"/>
<rect x="147" y="52.5" width="10.5" height="10.5" fill="#EEBFA1"/>
<rect x="168" y="52.5" width="10.5" height="10.5" fill="#D9E8EE"/>
<rect x="178.5" y="73.5" width="10.5" height="10.5" fill="#EEBFA1"/>
<rect x="136.5" y="73.5" width="10.5" height="10.5" fill="#EEBFA1"/>
<rect x="157.5" y="84" width="10.5" height="10.5" fill="#EEBFA1"/>
<rect x="157.5" y="157.5" width="10.5" height="10.5" fill="#EEBFA1"/>
<rect x="157.5" y="126" width="10.5" height="10.5" fill="#EEBFA1"/>
<rect x="84" y="42" width="10.5" height="10.5" fill="#34625D"/>
<rect x="73.5" y="42" width="10.5" height="10.5" fill="#34625D"/>
<rect x="94.5" y="31.5" width="10.5" height="10.5" fill="#295550"/>
<rect x="105" y="21" width="10.5" height="10.5" fill="#6B8E8A"/>
<rect x="115.5" y="31.5" width="10.5" height="10.5" fill="#6B8E8A"/>
<rect x="105" y="31.5" width="10.5" height="10.5" fill="#6B8E8A"/>
<rect x="105" y="42" width="10.5" height="10.5" fill="#427872"/>
<rect x="94.5" y="42" width="10.5" height="10.5" fill="#6B8E8A"/>
<rect x="115.5" y="42" width="10.5" height="10.5" fill="#6B8E8A"/>
<rect x="147" y="199.5" width="10.5" height="10.5" fill="#6B8E8A"/>
<rect x="199.5" y="210" width="10.5" height="10.5" fill="white"/>
<rect x="199.5" y="199.5" width="10.5" height="10.5" fill="white"/>
<rect x="199.5" y="189" width="10.5" height="10.5" fill="white"/>
<rect x="210" y="52.5" width="10.5" height="10.5" fill="#34625D"/>
<rect x="199.5" y="63" width="10.5" height="10.5" fill="#D9E8EE"/>
<rect x="105" y="42" width="10.5" height="10.5" fill="#D2BFB1"/>
<rect x="94.5" y="52.5" width="10.5" height="10.5" fill="#D2BFB1"/>
<rect x="73.5" y="63" width="10.5" height="10.5" fill="#D2BFB1"/>
<rect x="84" y="42" width="10.5" height="10.5" fill="#D2BFB1"/>
<rect x="94.5" y="31.5" width="10.5" height="10.5" fill="#D2BFB1"/>
<g filter="url(#filter0_f_85_724)">
<rect x="2.5" y="206.5" width="272" height="66" fill="url(#paint0_linear_85_724)" fill-opacity="0.7"/>
</g>
</g>
<rect x="5.25" y="5.25" width="262.5" height="262.5" stroke="url(#paint1_linear_85_724)" stroke-width="10.5"/>
<defs>
<filter id="filter0_f_85_724" x="-13.5" y="190.5" width="304" height="98" filterUnits="userSpaceOnUse" color-interpolation-filters="sRGB">
<feFlood flood-opacity="0" result="BackgroundImageFix"/>
<feBlend mode="normal" in="SourceGraphic" in2="BackgroundImageFix" result="shape"/>
<feGaussianBlur stdDeviation="8" result="effect1_foregroundBlur_85_724"/>
</filter>
<linearGradient id="paint0_linear_85_724" x1="159.566" y1="268.883" x2="158.647" y2="185.499" gradientUnits="userSpaceOnUse">
<stop stop-color="white"/>
<stop offset="1" stop-color="white" stop-opacity="0"/>
</linearGradient>
<linearGradient id="paint1_linear_85_724" x1="26.25" y1="21" x2="257.25" y2="267.75" gradientUnits="userSpaceOnUse">
<stop stop-color="#FFD341"/>
<stop offset="0.240385" stop-color="#FFE944"/>
<stop offset="0.435291" stop-color="white"/>
<stop offset="0.625" stop-color="#FFEA4D"/>
<stop offset="0.995192" stop-color="#FFE83C"/>
</linearGradient>
<clipPath id="clip0_85_724">
<rect x="10.5" y="10.5" width="252" height="252" fill="white"/>
</clipPath>
</defs>
</svg>
