<svg width="276" height="276" viewBox="0 0 276 276" fill="none" xmlns="http://www.w3.org/2000/svg">
<g clip-path="url(#clip0_54_1007)">
<rect x="12" y="12" width="252" height="252" fill="#C3A918"/>
<g filter="url(#filter0_f_54_1007)">
<rect x="4" y="208" width="272" height="66" fill="url(#paint0_linear_54_1007)" fill-opacity="0.7"/>
</g>
<rect x="192" y="12" width="12" height="12" fill="#E3BDB2"/>
<rect x="180" y="12" width="12" height="12" fill="#E3BDB2"/>
<rect x="168" y="12" width="12" height="12" fill="#E3BDB2"/>
<rect x="156" y="12" width="12" height="12" fill="#E3BDB2"/>
<rect x="156" y="24" width="12" height="12" fill="#E3BDB2"/>
<rect x="180" y="24" width="12" height="12" fill="#E3BDB2"/>
<rect x="144" y="12" width="12" height="12" fill="#E3BDB2"/>
<rect x="132" y="24" width="12" height="12" fill="#E3BDB2"/>
<rect x="120" y="36" width="12" height="12" fill="#E3BDB2"/>
<rect x="108" y="48" width="12" height="12" fill="#E3BDB2"/>
<rect x="120" y="60" width="12" height="12" fill="#E3BDB2"/>
<rect x="120" y="36" width="12" height="48" fill="#E3BDB2"/>
<rect x="132" y="84" width="12" height="12" fill="#E3BDB2"/>
<rect x="24" y="96" width="48" height="12" fill="#E3BDB2"/>
<rect x="36" y="108" width="60" height="12" fill="#E3BDB2"/>
<rect x="48" y="120" width="60" height="12" fill="#E3BDB2"/>
<rect x="60" y="132" width="60" height="12" fill="#E3BDB2"/>
<rect x="180" y="96" width="12" height="12" fill="#E3BDB2"/>
<rect x="180" y="84" width="12" height="12" fill="#F4CFC4"/>
<rect x="168" y="84" width="12" height="12" fill="#F4CFC4"/>
<rect x="156" y="156" width="24" height="12" fill="#F4CFC4"/>
<rect x="228" y="156" width="12" height="12" fill="#F4CFC4"/>
<rect x="240" y="144" width="24" height="12" fill="#F4CFC4"/>
<rect x="252" y="144" width="12" height="12" fill="#F4CFC4"/>
<rect x="252" y="132" width="24" height="12" fill="#F4CFC4"/>
<rect x="252" y="132" width="12" height="12" fill="#F4CFC4"/>
<rect x="240" y="120" width="12" height="12" fill="#F4CFC4"/>
<rect x="228" y="108" width="12" height="12" fill="#F4CFC4"/>
<rect x="156" y="168" width="24" height="12" fill="#F4CFC4"/>
<rect x="132" y="180" width="48" height="12" fill="#F4CFC4"/>
<rect x="144" y="192" width="36" height="12" fill="#F4CFC4"/>
<rect x="144" y="204" width="36" height="12" fill="#F4CFC4"/>
<rect x="144" y="216" width="36" height="12" fill="#F4CFC4"/>
<rect x="156" y="228" width="24" height="12" fill="#F4CFC4"/>
<rect x="156" y="240" width="24" height="12" fill="#F4CFC4"/>
<rect x="156" y="252" width="36" height="12" fill="#D2AEA3"/>
<rect x="144" y="36" width="12" height="12" fill="#F4CFC4"/>
<rect x="132" y="36" width="12" height="12" fill="#F4CFC4"/>
<rect x="168" y="72" width="12" height="12" fill="#F4CFC4"/>
<rect x="60" y="84" width="12" height="12" fill="#F4CFC4"/>
<rect x="72" y="96" width="12" height="12" fill="#F4CFC4"/>
<rect x="84" y="96" width="12" height="12" fill="#F4CFC4"/>
<rect x="96" y="108" width="12" height="12" fill="#F4CFC4"/>
<rect x="108" y="120" width="12" height="12" fill="#F4CFC4"/>
<rect x="180" y="72" width="12" height="12" fill="#F4CFC4"/>
<rect x="156" y="84" width="12" height="12" fill="#F4CFC4"/>
<rect x="192" y="84" width="12" height="12" fill="#E3BDB2"/>
<rect x="228" y="120" width="12" height="12" fill="#E3BDB2"/>
<rect x="216" y="108" width="12" height="12" fill="#E3BDB2"/>
<rect x="240" y="132" width="12" height="12" fill="#E3BDB2"/>
<rect x="192" y="72" width="12" height="12" fill="#E3BDB2"/>
<rect x="168" y="96" width="12" height="12" fill="#E3BDB2"/>
<rect x="144" y="108" width="12" height="12" fill="#E3BDB2"/>
<rect x="132" y="108" width="12" height="12" fill="#E3BDB2"/>
<rect x="132" y="60" width="12" height="72" fill="#E3BDB2"/>
<rect x="144" y="120" width="60" height="12" fill="#E3BDB2"/>
<rect x="144" y="132" width="48" height="12" fill="#E3BDB2"/>
<rect x="144" y="144" width="36" height="12" fill="#E3BDB2"/>
<rect x="180" y="156" width="24" height="12" fill="#E3BDB2"/>
<rect x="180" y="144" width="12" height="12" fill="#E3BDB2"/>
<rect x="180" y="168" width="12" height="12" fill="#E3BDB2"/>
<rect x="180" y="180" width="12" height="12" fill="#E3BDB2"/>
<rect x="180" y="120" width="12" height="84" fill="#E3BDB2"/>
<rect x="180" y="204" width="24" height="12" fill="#E3BDB2"/>
<rect x="180" y="216" width="24" height="12" fill="#E3BDB2"/>
<rect x="180" y="228" width="12" height="12" fill="#E3BDB2"/>
<rect x="180" y="240" width="12" height="12" fill="#E3BDB2"/>
<rect x="180" y="228" width="24" height="12" fill="#E3BDB2"/>
<rect x="156" y="96" width="36" height="12" fill="#E3BDB2"/>
<rect x="168" y="36" width="12" height="12" fill="#E3BDB2"/>
<rect x="144" y="84" width="12" height="12" fill="#E3BDB2"/>
<rect x="144" y="48" width="60" height="12" fill="#E3BDB2"/>
<rect x="156" y="48" width="12" height="12" fill="#E3BDB2"/>
<rect x="168" y="48" width="12" height="12" fill="#E3BDB2"/>
<rect x="180" y="48" width="12" height="12" fill="#E3BDB2"/>
<rect x="192" y="48" width="12" height="12" fill="#E3BDB2"/>
<rect x="192" y="36" width="12" height="12" fill="#E3BDB2"/>
<rect x="156" y="60" width="12" height="12" fill="#E3BDB2"/>
<rect x="144" y="72" width="12" height="12" fill="#E3BDB2"/>
<rect x="132" y="72" width="12" height="12" fill="#E3BDB2"/>
<rect x="132" y="60" width="12" height="12" fill="#E3BDB2"/>
<rect x="120" y="48" width="12" height="12" fill="#E3BDB2"/>
<rect x="132" y="96" width="12" height="12" fill="#E3BDB2"/>
<rect x="120" y="108" width="12" height="24" fill="#E3BDB2"/>
<rect x="108" y="108" width="12" height="12" fill="#98807A"/>
<rect x="144" y="24" width="12" height="12" fill="#D2AEA3"/>
<rect x="156" y="36" width="12" height="12" fill="#D2AEA3"/>
<rect x="132" y="48" width="12" height="12" fill="#D2AEA3"/>
<rect x="144" y="60" width="12" height="12" fill="#D2AEA3"/>
<rect x="156" y="72" width="12" height="12" fill="#D2AEA3"/>
<rect x="144" y="96" width="12" height="12" fill="#D2AEA3"/>
<rect x="156" y="108" width="12" height="12" fill="#D2AEA3"/>
<rect x="168" y="108" width="12" height="12" fill="#D2AEA3"/>
<rect x="180" y="108" width="12" height="12" fill="#D2AEA3"/>
<rect x="48" y="132" width="12" height="12" fill="#98807A"/>
<rect x="36" y="120" width="12" height="12" fill="#98807A"/>
<rect x="24" y="108" width="12" height="12" fill="#98807A"/>
<rect x="12" y="96" width="12" height="12" fill="#98807A"/>
<rect x="12" y="84" width="12" height="12" fill="#98807A"/>
<rect x="24" y="84" width="12" height="12" fill="#98807A"/>
<rect x="36" y="84" width="24" height="12" fill="#E3BDB2"/>
<rect x="24" y="72" width="36" height="12" fill="#E3BDB2"/>
<rect x="36" y="72" width="12" height="12" fill="#E3BDB2"/>
<rect x="48" y="72" width="12" height="12" fill="#E3BDB2"/>
<rect x="48" y="84" width="12" height="12" fill="#E3BDB2"/>
<rect x="48" y="144" width="12" height="12" fill="#98807A"/>
<rect x="60" y="156" width="12" height="12" fill="#98807A"/>
<rect x="72" y="168" width="12" height="12" fill="#98807A"/>
<rect x="84" y="180" width="12" height="12" fill="#98807A"/>
<rect x="72" y="192" width="12" height="12" fill="#BEDEE1"/>
<rect x="72" y="204" width="12" height="12" fill="#BEDEE1"/>
<rect x="84" y="216" width="12" height="12" fill="#BEDEE1"/>
<rect x="108" y="204" width="12" height="12" fill="#98807A"/>
<rect x="108" y="192" width="12" height="12" fill="#98807A"/>
<rect x="84" y="168" width="12" height="12" fill="#D2AEA3"/>
<rect x="72" y="156" width="12" height="12" fill="#D2AEA3"/>
<rect x="84" y="144" width="12" height="12" fill="#D2AEA3"/>
<rect x="96" y="180" width="12" height="12" fill="#D2AEA3"/>
<rect x="108" y="180" width="12" height="12" fill="#98807A"/>
<rect x="96" y="168" width="12" height="12" fill="#D2AEA3"/>
<rect x="132" y="192" width="12" height="24" fill="#D2AEA3"/>
<rect x="144" y="216" width="12" height="12" fill="#D2AEA3"/>
<rect x="156" y="228" width="12" height="12" fill="#D2AEA3"/>
<rect x="156" y="240" width="12" height="12" fill="#D2AEA3"/>
<rect x="120" y="168" width="12" height="12" fill="#D2AEA3"/>
<rect x="144" y="168" width="12" height="12" fill="#D2AEA3"/>
<rect x="144" y="156" width="12" height="12" fill="#D2AEA3"/>
<rect x="132" y="156" width="12" height="12" fill="#D2AEA3"/>
<rect x="96" y="156" width="12" height="12" fill="#D2AEA3"/>
<rect x="108" y="144" width="12" height="12" fill="#D2AEA3"/>
<rect x="216" y="120" width="12" height="12" fill="#D2AEA3"/>
<rect x="228" y="132" width="12" height="12" fill="#98807A"/>
<rect x="228" y="144" width="12" height="12" fill="#98807A"/>
<rect x="240" y="156" width="12" height="12" fill="#98807A"/>
<rect x="216" y="168" width="12" height="12" fill="#98807A"/>
<rect x="204" y="144" width="36" height="12" fill="#98807A"/>
<rect x="216" y="144" width="12" height="12" fill="#98807A"/>
<rect x="216" y="132" width="12" height="12" fill="#D2AEA3"/>
<rect x="120" y="132" width="12" height="12" fill="#D2AEA3"/>
<rect x="192" y="132" width="12" height="12" fill="#D2AEA3"/>
<rect x="204" y="132" width="12" height="12" fill="#D2AEA3"/>
<rect x="204" y="120" width="12" height="12" fill="#D2AEA3"/>
<rect x="156" y="108" width="48" height="12" fill="#D2AEA3"/>
<rect x="192" y="144" width="12" height="12" fill="#D2AEA3"/>
<rect x="192" y="168" width="12" height="12" fill="#D2AEA3"/>
<rect x="192" y="180" width="12" height="12" fill="#D2AEA3"/>
<rect x="192" y="192" width="12" height="12" fill="#D2AEA3"/>
<rect x="204" y="180" width="12" height="12" fill="#98807A"/>
<rect x="204" y="168" width="12" height="12" fill="#D2AEA3"/>
<rect x="192" y="96" width="12" height="12" fill="#98807A"/>
<rect x="168" y="144" width="12" height="12" fill="#5A4C49"/>
<rect x="108" y="168" width="12" height="12" fill="#5A4C49"/>
<rect x="96" y="180" width="12" height="12" fill="#5A4C49"/>
<rect x="120" y="156" width="12" height="12" fill="#5A4C49"/>
<rect x="132" y="168" width="12" height="12" fill="#98807A"/>
<rect x="204" y="156" width="12" height="12" fill="#5A4C49"/>
<rect x="216" y="156" width="12" height="12" fill="#5A4C49"/>
<rect x="228" y="168" width="12" height="12" fill="#98807A"/>
<rect x="108" y="156" width="12" height="12" fill="#98807A"/>
<rect x="96" y="144" width="12" height="12" fill="#98807A"/>
<rect x="84" y="156" width="12" height="12" fill="#98807A"/>
<rect x="72" y="144" width="12" height="12" fill="#98807A"/>
<rect x="60" y="144" width="12" height="12" fill="#98807A"/>
<rect x="132" y="144" width="12" height="12" fill="#98807A"/>
<rect x="132" y="132" width="12" height="12" fill="#98807A"/>
<rect x="120" y="144" width="12" height="12" fill="#98807A"/>
<rect x="168" y="168" width="12" height="12" fill="#5A4C49"/>
<rect x="168" y="180" width="12" height="12" fill="#5A4C49"/>
<rect x="168" y="192" width="12" height="12" fill="#5A4C49"/>
<rect x="168" y="60" width="12" height="12" fill="#D2AEA3"/>
<rect x="180" y="60" width="12" height="12" fill="#D2AEA3"/>
<rect x="168" y="60" width="36" height="12" fill="#D2AEA3"/>
<rect x="168" y="24" width="12" height="12" fill="#D2AEA3"/>
<rect x="180" y="36" width="12" height="12" fill="#98807A"/>
<rect x="192" y="24" width="12" height="12" fill="#D2AEA3"/>
<rect x="96" y="96" width="12" height="12" fill="#98807A"/>
<rect x="84" y="84" width="12" height="12" fill="#98807A"/>
<rect x="108" y="96" width="12" height="12" fill="#E3BDB2"/>
<rect x="108" y="84" width="12" height="12" fill="#E8F4F5"/>
<rect x="96" y="72" width="12" height="12" fill="#E8F4F5"/>
<rect x="84" y="60" width="12" height="12" fill="#E8F4F5"/>
<rect x="96" y="60" width="12" height="12" fill="#8FA8AB"/>
<rect x="204" y="84" width="12" height="12" fill="#8FA8AB"/>
<rect x="216" y="96" width="12" height="12" fill="#8FA8AB"/>
<rect x="204" y="96" width="12" height="12" fill="#E8F4F5"/>
<rect x="204" y="108" width="12" height="12" fill="#8FA8AB"/>
<rect x="108" y="60" width="12" height="12" fill="#68797B"/>
<rect x="36" y="132" width="12" height="12" fill="#68797B"/>
<rect x="84" y="192" width="12" height="12" fill="#68797B"/>
<rect x="84" y="204" width="12" height="12" fill="#68797B"/>
<rect x="72" y="180" width="12" height="12" fill="#68797B"/>
<rect x="204" y="72" width="12" height="12" fill="#68797B"/>
<rect x="216" y="84" width="12" height="12" fill="#68797B"/>
<rect x="84" y="48" width="12" height="12" fill="#68797B"/>
<rect x="108" y="36" width="12" height="12" fill="#68797B"/>
<rect x="72" y="60" width="12" height="12" fill="#68797B"/>
<rect x="60" y="72" width="12" height="12" fill="#68797B"/>
<rect x="72" y="72" width="12" height="12" fill="#4A5859"/>
<rect x="108" y="72" width="12" height="12" fill="#8FA8AB"/>
<rect x="36" y="144" width="12" height="12" fill="#8FA8AB"/>
<rect x="72" y="228" width="12" height="12" fill="#8FA8AB"/>
<rect x="84" y="240" width="12" height="12" fill="#8FA8AB"/>
<rect x="36" y="156" width="12" height="12" fill="#8FA8AB"/>
<rect x="48" y="156" width="12" height="12" fill="#E1B940"/>
<rect x="48" y="168" width="12" height="12" fill="#E1B940"/>
<rect x="60" y="168" width="12" height="12" fill="#E1B940"/>
<rect x="96" y="192" width="12" height="12" fill="#E1B940"/>
<rect x="96" y="204" width="12" height="12" fill="#E1B940"/>
<rect x="96" y="216" width="12" height="12" fill="#E1B940"/>
<rect x="108" y="216" width="12" height="12" fill="#E1B940"/>
<rect x="108" y="228" width="12" height="12" fill="#E1B940"/>
<rect x="108" y="240" width="12" height="12" fill="#E1B940"/>
<rect x="96" y="228" width="12" height="12" fill="#E1B940"/>
<rect x="120" y="204" width="12" height="12" fill="#E1B940"/>
<rect x="120" y="192" width="12" height="12" fill="#E1B940"/>
<rect x="120" y="180" width="12" height="12" fill="#E1B940"/>
<rect x="216" y="192" width="12" height="12" fill="#E1B940"/>
<rect x="216" y="180" width="12" height="12" fill="#E1B940"/>
<rect x="216" y="216" width="12" height="12" fill="#E1B940"/>
<rect x="216" y="204" width="12" height="12" fill="#E1B940"/>
<rect x="204" y="228" width="12" height="12" fill="#E1B940"/>
<rect x="48" y="180" width="12" height="12" fill="#E1B940"/>
<rect x="48" y="192" width="12" height="12" fill="#E1B940"/>
<rect x="36" y="168" width="12" height="12" fill="#F0D480"/>
<rect x="36" y="180" width="12" height="12" fill="#F0D480"/>
<rect x="120" y="216" width="12" height="12" fill="#F0D480"/>
<rect x="120" y="228" width="12" height="12" fill="#F0D480"/>
<rect x="120" y="240" width="12" height="12" fill="#F0D480"/>
<rect x="132" y="240" width="12" height="12" fill="#F0D480"/>
<rect x="132" y="252" width="12" height="12" fill="#F0D480"/>
<rect x="144" y="252" width="12" height="12" fill="#F0D480"/>
<rect x="144" y="240" width="12" height="12" fill="#F0D480"/>
<rect x="144" y="228" width="12" height="12" fill="#F0D480"/>
<rect x="132" y="228" width="12" height="12" fill="#F0D480"/>
<rect x="132" y="216" width="12" height="12" fill="#F0D480"/>
<rect x="204" y="192" width="12" height="12" fill="#F0D480"/>
<rect x="204" y="192" width="12" height="12" fill="#F0D480"/>
<rect x="204" y="204" width="12" height="12" fill="#F0D480"/>
<rect x="204" y="216" width="12" height="12" fill="#F0D480"/>
<rect x="60" y="192" width="12" height="12" fill="#561D1D"/>
<rect x="60" y="180" width="12" height="12" fill="#561D1D"/>
<rect x="120" y="84" width="12" height="12" fill="#8FA8AB"/>
<rect x="120" y="96" width="12" height="12" fill="#E8F4F5"/>
<rect x="60" y="204" width="12" height="12" fill="#BEDEE1"/>
<rect x="60" y="216" width="12" height="12" fill="#E8F4F5"/>
<rect x="60" y="228" width="12" height="12" fill="#E8F4F5"/>
<rect x="72" y="240" width="12" height="12" fill="#E8F4F5"/>
<rect x="96" y="240" width="12" height="12" fill="#BEDEE1"/>
<rect x="84" y="228" width="12" height="12" fill="#BEDEE1"/>
<rect x="72" y="216" width="12" height="12" fill="#BEDEE1"/>
<rect x="96" y="84" width="12" height="12" fill="#E3BDB2"/>
<rect x="84" y="72" width="12" height="12" fill="#E3BDB2"/>
<rect x="72" y="84" width="12" height="12" fill="#E3BDB2"/>
<rect x="60" y="216" width="12" height="12" fill="#8FA8AB"/>
<rect x="132" y="216" width="12" height="12" fill="#D2AEA3"/>
<rect x="144" y="228" width="12" height="12" fill="#D2AEA3"/>
<rect x="144" y="240" width="12" height="12" fill="#D2AEA3"/>
<rect x="96" y="216" width="12" height="12" fill="#68797B"/>
<rect x="96" y="228" width="12" height="12" fill="#68797B"/>
</g>
<rect x="6" y="6" width="264" height="264" stroke="url(#paint1_linear_54_1007)" stroke-width="12"/>
<defs>
<filter id="filter0_f_54_1007" x="-12" y="192" width="304" height="98" filterUnits="userSpaceOnUse" color-interpolation-filters="sRGB">
<feFlood flood-opacity="0" result="BackgroundImageFix"/>
<feBlend mode="normal" in="SourceGraphic" in2="BackgroundImageFix" result="shape"/>
<feGaussianBlur stdDeviation="8" result="effect1_foregroundBlur_54_1007"/>
</filter>
<linearGradient id="paint0_linear_54_1007" x1="161.066" y1="270.383" x2="160.147" y2="186.999" gradientUnits="userSpaceOnUse">
<stop stop-color="white"/>
<stop offset="1" stop-color="white" stop-opacity="0"/>
</linearGradient>
<linearGradient id="paint1_linear_54_1007" x1="299.858" y1="-31.5" x2="-24.6633" y2="297.715" gradientUnits="userSpaceOnUse">
<stop stop-color="#FFAE00"/>
<stop offset="0.245" stop-color="#FFF700"/>
<stop offset="0.56" stop-color="white"/>
<stop offset="0.79" stop-color="#FFFF00"/>
<stop offset="1" stop-color="#FF9500"/>
</linearGradient>
<clipPath id="clip0_54_1007">
<rect x="12" y="12" width="252" height="252" fill="white"/>
</clipPath>
</defs>
</svg>
