<svg width="276" height="276" viewBox="0 0 276 276" fill="none" xmlns="http://www.w3.org/2000/svg">
<g clip-path="url(#clip0_1_3272)">
<rect x="12" y="12" width="252" height="252" fill="#E7D155"/>
<rect x="156" y="108" width="12" height="12" fill="black"/>
<rect x="204" y="60" width="12" height="12" fill="black"/>
<rect x="216" y="60" width="12" height="12" fill="black"/>
<rect x="216" y="72" width="12" height="12" fill="black"/>
<rect x="228" y="84" width="12" height="12" fill="black"/>
<rect x="216" y="48" width="12" height="12" fill="black"/>
<rect x="216" y="36" width="12" height="12" fill="black"/>
<rect x="228" y="36" width="12" height="12" fill="black"/>
<rect x="228" y="24" width="12" height="12" fill="black"/>
<rect x="216" y="24" width="12" height="12" fill="black"/>
<rect x="204" y="36" width="12" height="12" fill="black"/>
<rect x="192" y="36" width="12" height="12" fill="black"/>
<rect x="12" y="36" width="12" height="12" fill="black"/>
<rect x="24" y="36" width="12" height="12" fill="black"/>
<rect x="24" y="48" width="12" height="12" fill="black"/>
<rect x="36" y="48" width="12" height="12" fill="black"/>
<rect x="36" y="36" width="12" height="12" fill="black"/>
<rect x="36" y="24" width="12" height="12" fill="black"/>
<rect x="48" y="36" width="12" height="12" fill="black"/>
<rect x="48" y="24" width="12" height="12" fill="black"/>
<rect x="60" y="24" width="12" height="12" fill="black"/>
<rect x="192" y="48" width="12" height="12" fill="black"/>
<rect x="180" y="48" width="12" height="12" fill="black"/>
<rect x="168" y="60" width="12" height="12" fill="black"/>
<rect x="144" y="48" width="12" height="12" fill="black"/>
<rect x="132" y="48" width="36" height="12" fill="black"/>
<rect x="120" y="36" width="60" height="12" fill="black"/>
<rect x="108" y="24" width="84" height="12" fill="#2B282C"/>
<rect x="108" y="36" width="12" height="12" fill="#2B282C"/>
<rect x="108" y="48" width="12" height="12" fill="#2B282C"/>
<rect x="96" y="36" width="12" height="12" fill="#2B282C"/>
<rect x="96" y="24" width="12" height="12" fill="#2B282C"/>
<rect x="84" y="24" width="12" height="12" fill="#2B282C"/>
<rect x="72" y="36" width="12" height="12" fill="#2B282C"/>
<rect x="60" y="48" width="12" height="12" fill="#2B282C"/>
<rect width="12" height="12" transform="matrix(1 0 0 -1 144 48)" fill="black"/>
<rect width="72" height="12" transform="matrix(1 0 0 -1 132 24)" fill="#2B282C"/>
<rect x="168" y="96" width="12" height="12" fill="black"/>
<rect x="180" y="96" width="12" height="12" fill="black"/>
<rect x="192" y="96" width="12" height="12" fill="black"/>
<rect x="192" y="108" width="12" height="12" fill="black"/>
<rect x="204" y="108" width="12" height="12" fill="black"/>
<rect x="192" y="120" width="12" height="12" fill="black"/>
<rect x="192" y="132" width="12" height="12" fill="black"/>
<rect x="192" y="144" width="12" height="12" fill="black"/>
<rect x="192" y="156" width="12" height="12" fill="black"/>
<rect x="180" y="168" width="12" height="12" fill="black"/>
<rect x="180" y="180" width="12" height="12" fill="black"/>
<rect x="204" y="216" width="12" height="12" fill="#2C2828"/>
<rect x="204" y="240" width="12" height="12" fill="#3F3A3A"/>
<rect x="204" y="228" width="12" height="12" fill="#3F3A3A"/>
<rect x="216" y="156" width="12" height="48" fill="black"/>
<rect x="228" y="108" width="12" height="96" fill="black"/>
<rect x="240" y="156" width="12" height="48" fill="black"/>
<rect x="240" y="216" width="12" height="24" fill="#3F3B3B"/>
<rect x="228" y="216" width="12" height="36" fill="#3F3B3B"/>
<rect x="204" y="252" width="12" height="24" fill="#3F3B3B"/>
<rect x="216" y="216" width="12" height="48" fill="#3F3B3B"/>
<rect x="240" y="120" width="12" height="24" fill="black"/>
<rect x="168" y="108" width="12" height="96" fill="black"/>
<rect x="132" y="216" width="12" height="12" fill="black"/>
<rect x="156" y="120" width="12" height="72" fill="black"/>
<rect x="144" y="168" width="12" height="12" fill="black"/>
<rect x="144" y="156" width="12" height="12" fill="black"/>
<rect x="144" y="144" width="12" height="12" fill="black"/>
<rect x="144" y="108" width="12" height="12" fill="#966B4F"/>
<rect x="84" y="108" width="12" height="12" fill="#533724"/>
<rect x="84" y="120" width="12" height="12" fill="#533724"/>
<rect x="84" y="132" width="12" height="12" fill="#533724"/>
<rect x="96" y="144" width="12" height="12" fill="#533724"/>
<rect x="120" y="168" width="12" height="12" fill="#533724"/>
<rect x="120" y="180" width="12" height="12" fill="#533724"/>
<rect x="72" y="120" width="12" height="12" fill="#533724"/>
<rect x="60" y="108" width="12" height="12" fill="#533724"/>
<rect x="156" y="96" width="12" height="12" fill="#966B4F"/>
<rect x="168" y="96" width="12" height="12" fill="#966B4F"/>
<rect x="180" y="96" width="12" height="12" fill="#966B4F"/>
<rect x="180" y="72" width="12" height="12" fill="#9C6B4A"/>
<rect x="192" y="72" width="12" height="12" fill="#9C6B4A"/>
<rect x="204" y="72" width="12" height="12" fill="#9C6B4A"/>
<rect x="192" y="60" width="12" height="12" fill="#9C6B4A"/>
<rect x="204" y="48" width="12" height="12" fill="#9C6B4A"/>
<rect x="180" y="60" width="12" height="12" fill="#9C6B4A"/>
<rect x="168" y="72" width="12" height="12" fill="#9C6B4A"/>
<rect x="192" y="96" width="12" height="12" fill="#966B4F"/>
<rect x="204" y="96" width="12" height="12" fill="#966B4F"/>
<rect x="204" y="120" width="12" height="12" fill="#966B4F"/>
<rect x="204" y="108" width="12" height="12" fill="#966B4F"/>
<rect x="204" y="132" width="12" height="12" fill="#966B4F"/>
<rect x="204" y="144" width="12" height="12" fill="#966B4F"/>
<rect x="240" y="144" width="12" height="12" fill="#533724"/>
<rect x="252" y="144" width="12" height="12" fill="#533724"/>
<rect x="252" y="132" width="12" height="12" fill="#533724"/>
<rect x="252" y="120" width="12" height="12" fill="#533724"/>
<rect x="240" y="108" width="12" height="12" fill="#533724"/>
<rect x="204" y="156" width="12" height="12" fill="#966B4F"/>
<rect x="192" y="168" width="12" height="12" fill="#966B4F"/>
<rect x="204" y="180" width="12" height="12" fill="#514953"/>
<rect x="192" y="192" width="12" height="12" fill="#B7AEB0"/>
<rect x="204" y="192" width="12" height="12" fill="#B7AEB0"/>
<rect x="204" y="180" width="12" height="12" fill="#B7AEB0"/>
<rect x="204" y="168" width="12" height="12" fill="#B7AEB0"/>
<rect x="216" y="108" width="12" height="60" fill="#B7AEB0"/>
<rect x="180" y="204" width="12" height="12" fill="#B7AEB0"/>
<rect x="192" y="204" width="12" height="12" fill="#B7AEB0"/>
<rect x="132" y="180" width="12" height="12" fill="#B7AEB0"/>
<rect x="132" y="168" width="12" height="12" fill="#B7AEB0"/>
<rect x="120" y="180" width="12" height="12" fill="#D0C8CA"/>
<rect x="120" y="168" width="12" height="12" fill="#D0C8CA"/>
<rect x="120" y="168" width="12" height="12" fill="#D0C8CA"/>
<rect x="108" y="156" width="12" height="12" fill="#D0C8CA"/>
<rect x="120" y="156" width="12" height="12" fill="#B7AEB0"/>
<rect x="120" y="132" width="12" height="12" fill="#B7AEB0"/>
<rect x="120" y="120" width="12" height="12" fill="#B7AEB0"/>
<rect x="120" y="108" width="12" height="12" fill="#B7AEB0"/>
<rect x="120" y="144" width="12" height="12" fill="#B7AEB0"/>
<rect x="108" y="144" width="12" height="12" fill="#D0C8CA"/>
<rect x="108" y="132" width="12" height="12" fill="#D0C8CA"/>
<rect x="108" y="120" width="12" height="12" fill="#D0C8CA"/>
<rect x="108" y="108" width="12" height="12" fill="#D0C8CA"/>
<rect x="108" y="96" width="12" height="12" fill="#D0C8CA"/>
<rect x="96" y="96" width="12" height="12" fill="#D0C8CA"/>
<rect x="108" y="84" width="12" height="12" fill="#D0C8CA"/>
<rect x="120" y="96" width="12" height="12" fill="#D0C8CA"/>
<rect width="12" height="12" transform="matrix(1 0 0 -1 132 96)" fill="#D0C8CA"/>
<rect width="12" height="12" transform="matrix(1 0 0 -1 144 84)" fill="#D0C8CA"/>
<rect width="12" height="12" transform="matrix(1 0 0 -1 156 72)" fill="#D0C8CA"/>
<rect width="12" height="12" transform="matrix(1 0 0 -1 144 72)" fill="#D0C8CA"/>
<rect width="12" height="12" transform="matrix(1 0 0 -1 132 84)" fill="#D0C8CA"/>
<rect width="12" height="12" transform="matrix(1 0 0 -1 120 96)" fill="#D0C8CA"/>
<rect width="12" height="12" transform="matrix(1 0 0 -1 120 84)" fill="#D0C8CA"/>
<rect width="12" height="12" transform="matrix(1 0 0 -1 132 72)" fill="#D0C8CA"/>
<rect x="144" y="96" width="12" height="12" fill="#D0C8CA"/>
<rect x="84" y="156" width="12" height="12" fill="white"/>
<rect x="132" y="96" width="12" height="12" fill="#A39A9A"/>
<rect x="144" y="84" width="12" height="12" fill="#A39A9A"/>
<rect x="156" y="72" width="12" height="12" fill="#A39A9A"/>
<rect x="96" y="156" width="12" height="12" fill="#D0C8CA"/>
<rect x="84" y="144" width="12" height="12" fill="#D0C8CA"/>
<rect x="96" y="168" width="12" height="12" fill="white"/>
<rect x="84" y="168" width="12" height="12" fill="#D0C8CA"/>
<rect x="72" y="156" width="12" height="12" fill="white"/>
<rect x="60" y="156" width="12" height="12" fill="white"/>
<rect x="36" y="144" width="12" height="12" fill="white"/>
<rect x="36" y="132" width="12" height="12" fill="#D0C8CA"/>
<rect x="24" y="132" width="12" height="12" fill="white"/>
<rect x="24" y="120" width="12" height="12" fill="#D0C8CA"/>
<rect x="12" y="120" width="12" height="12" fill="white"/>
<rect x="72" y="144" width="12" height="12" fill="#D0C8CA"/>
<rect x="60" y="132" width="12" height="12" fill="#D0C8CA"/>
<rect x="48" y="120" width="12" height="12" fill="#D0C8CA"/>
<rect x="60" y="144" width="12" height="12" fill="#D0C8CA"/>
<rect x="48" y="132" width="12" height="12" fill="#D0C8CA"/>
<rect x="36" y="120" width="12" height="12" fill="#D0C8CA"/>
<rect x="24" y="108" width="12" height="12" fill="#D0C8CA"/>
<rect x="48" y="144" width="12" height="12" fill="white"/>
<rect x="108" y="168" width="12" height="12" fill="#D0C8CA"/>
<rect x="108" y="180" width="12" height="12" fill="#D0C8CA"/>
<rect x="96" y="180" width="12" height="12" fill="#D0C8CA"/>
<rect x="120" y="240" width="12" height="12" fill="#D0C8CA"/>
<rect x="108" y="252" width="12" height="12" fill="#D0C8CA"/>
<rect x="120" y="252" width="12" height="12" fill="#D0C8CA"/>
<rect x="132" y="240" width="12" height="12" fill="#D0C8CA"/>
<rect x="132" y="252" width="12" height="12" fill="#D0C8CA"/>
<rect x="144" y="252" width="12" height="12" fill="#D0C8CA"/>
<rect x="108" y="216" width="12" height="12" fill="#D0C8CA"/>
<rect x="108" y="204" width="12" height="12" fill="#D0C8CA"/>
<rect x="84" y="192" width="12" height="12" fill="white"/>
<rect x="84" y="180" width="12" height="12" fill="white"/>
<rect x="72" y="168" width="12" height="12" fill="#D0C8CA"/>
<rect x="60" y="180" width="12" height="12" fill="#D0C8CA"/>
<rect x="60" y="168" width="12" height="12" fill="#D0C8CA"/>
<rect x="36" y="168" width="12" height="12" fill="#D0C8CA"/>
<rect x="24" y="180" width="12" height="12" fill="#D0C8CA"/>
<rect x="60" y="192" width="12" height="12" fill="#D0C8CA"/>
<rect x="48" y="204" width="12" height="12" fill="#D0C8CA"/>
<rect x="84" y="204" width="12" height="12" fill="white"/>
<rect x="72" y="216" width="12" height="12" fill="#D0C8CA"/>
<rect x="60" y="228" width="12" height="12" fill="#D0C8CA"/>
<rect x="96" y="228" width="12" height="12" fill="#D0C8CA"/>
<rect x="84" y="240" width="12" height="12" fill="#D0C8CA"/>
<rect x="120" y="228" width="12" height="12" fill="#D0C8CA"/>
<rect x="156" y="252" width="12" height="12" fill="#D0C8CA"/>
<rect x="168" y="252" width="12" height="12" fill="#D0C8CA"/>
<rect x="180" y="252" width="12" height="12" fill="#D0C8CA"/>
<rect x="156" y="240" width="12" height="12" fill="#D0C8CA"/>
<rect x="144" y="204" width="12" height="12" fill="#D0C8CA"/>
<rect x="144" y="192" width="12" height="12" fill="#B7AEB0"/>
<rect x="156" y="216" width="12" height="12" fill="#D0C8CA"/>
<rect x="156" y="204" width="12" height="12" fill="#B7AEB0"/>
<rect x="168" y="228" width="12" height="12" fill="#D0C8CA"/>
<rect x="180" y="228" width="12" height="12" fill="#D0C8CA"/>
<rect x="192" y="216" width="12" height="12" fill="#D0C8CA"/>
<rect x="180" y="240" width="12" height="12" fill="#D0C8CA"/>
<rect x="156" y="240" width="24" height="12" fill="#D0C8CA"/>
<rect x="168" y="216" width="12" height="12" fill="#B7AEB0"/>
<rect x="180" y="216" width="12" height="12" fill="#B7AEB0"/>
<rect x="156" y="228" width="12" height="12" fill="#D0C8CA"/>
<rect x="144" y="216" width="12" height="12" fill="#D0C8CA"/>
<rect x="132" y="192" width="12" height="12" fill="#D0C8CA"/>
<rect x="48" y="156" width="12" height="12" fill="#514953"/>
<rect x="12" y="132" width="12" height="12" fill="#514953"/>
<rect x="24" y="96" width="12" height="12" fill="#514953"/>
<rect x="36" y="96" width="12" height="12" fill="#514953"/>
<rect x="36" y="84" width="12" height="12" fill="#514953"/>
<rect x="36" y="72" width="12" height="12" fill="#514953"/>
<rect x="48" y="60" width="12" height="12" fill="#514953"/>
<rect x="24" y="72" width="12" height="12" fill="#514953"/>
<rect x="24" y="84" width="12" height="12" fill="#514953"/>
<rect x="12" y="96" width="12" height="12" fill="#514953"/>
<rect x="48" y="168" width="12" height="12" fill="#514953"/>
<rect x="72" y="180" width="12" height="36" fill="#514953"/>
<rect x="96" y="192" width="12" height="36" fill="#514953"/>
<rect x="84" y="216" width="12" height="24" fill="#514953"/>
<rect x="72" y="228" width="12" height="24" fill="#514953"/>
<rect x="24" y="144" width="12" height="36" fill="#514953"/>
<rect x="48" y="180" width="12" height="12" fill="#514953"/>
<rect x="36" y="180" width="12" height="12" fill="#514953"/>
<rect x="36" y="192" width="12" height="12" fill="#514953"/>
<rect x="24" y="192" width="12" height="12" fill="#514953"/>
<rect x="12" y="180" width="12" height="12" fill="#514953"/>
<rect x="36" y="204" width="12" height="12" fill="#514953"/>
<rect x="48" y="216" width="12" height="12" fill="#514953"/>
<rect x="36" y="216" width="12" height="12" fill="#514953"/>
<rect x="12" y="216" width="12" height="12" fill="#514953"/>
<rect x="24" y="228" width="12" height="12" fill="#514953"/>
<rect x="48" y="240" width="12" height="12" fill="#514953"/>
<rect x="60" y="216" width="12" height="12" fill="#514953"/>
<rect x="60" y="204" width="12" height="12" fill="#514953"/>
<rect x="48" y="228" width="12" height="12" fill="#514953"/>
<rect x="60" y="240" width="12" height="12" fill="#514953"/>
<rect x="72" y="252" width="12" height="12" fill="#514953"/>
<rect x="84" y="252" width="12" height="12" fill="#514953"/>
<rect x="96" y="252" width="12" height="12" fill="#514953"/>
<rect x="132" y="252" width="12" height="12" fill="#514953"/>
<rect x="132" y="240" width="12" height="12" fill="#514953"/>
<rect x="96" y="240" width="12" height="12" fill="#514953"/>
<rect x="108" y="240" width="12" height="12" fill="#514953"/>
<rect x="108" y="228" width="12" height="12" fill="#514953"/>
<rect x="12" y="156" width="12" height="12" fill="#514953"/>
<rect x="48" y="192" width="12" height="12" fill="#514953"/>
<rect x="12" y="168" width="12" height="12" fill="#514953"/>
<rect x="216" y="96" width="12" height="12" fill="#B7AEB0"/>
<rect x="216" y="84" width="12" height="12" fill="#B7AEB0"/>
<rect x="156" y="84" width="12" height="12" fill="#B7AEB0"/>
<rect x="96" y="84" width="12" height="12" fill="#5B3A5B"/>
<rect x="96" y="72" width="12" height="12" fill="#5B3A5B"/>
<rect x="108" y="72" width="12" height="12" fill="#5B3A5B"/>
<rect x="132" y="84" width="12" height="12" fill="#382C38"/>
<rect x="120" y="96" width="12" height="12" fill="#382C38"/>
<rect x="108" y="108" width="12" height="12" fill="#514953"/>
<rect x="108" y="108" width="12" height="36" fill="#382C38"/>
<rect x="144" y="72" width="12" height="12" fill="#382C38"/>
<rect x="120" y="60" width="12" height="12" fill="#5B3A5B"/>
<rect x="168" y="48" width="12" height="12" fill="#857575"/>
<rect x="180" y="36" width="12" height="12" fill="#857575"/>
<rect x="168" y="84" width="48" height="12" fill="#B7AEB0"/>
<rect x="228" y="96" width="12" height="12" fill="#D0C8CA"/>
<rect x="240" y="96" width="12" height="12" fill="#D0C8CA"/>
<rect x="252" y="108" width="12" height="12" fill="#D0C8CA"/>
<rect x="180" y="192" width="12" height="12" fill="#966B4F"/>
<rect x="168" y="204" width="12" height="12" fill="#9C6B4A"/>
<rect x="192" y="216" width="12" height="12" fill="#9C6B4A"/>
<rect x="252" y="156" width="12" height="12" fill="#9C6B4A"/>
<rect x="252" y="168" width="12" height="12" fill="#9C6B4A"/>
<rect x="252" y="180" width="12" height="12" fill="#D5A585"/>
<rect x="240" y="168" width="12" height="12" fill="#D5A585"/>
<rect x="84" y="84" width="12" height="12" fill="#D5A585"/>
<rect x="252" y="204" width="12" height="12" fill="#D4A585"/>
<rect x="252" y="216" width="12" height="12" fill="#D4A585"/>
<rect x="252" y="228" width="12" height="12" fill="#D4A585"/>
<rect x="240" y="240" width="12" height="12" fill="#D4A585"/>
<rect x="228" y="252" width="12" height="12" fill="#9C6B4A"/>
<rect x="240" y="252" width="12" height="12" fill="#9C6B4A"/>
<rect x="252" y="240" width="12" height="12" fill="#9C6B4A"/>
<rect x="252" y="192" width="12" height="12" fill="#D4A585"/>
<rect x="156" y="192" width="12" height="12" fill="#9C6B4A"/>
<rect x="120" y="192" width="12" height="12" fill="#9C6B4A"/>
<rect x="120" y="180" width="12" height="12" fill="#9C6B4A"/>
<rect x="108" y="180" width="12" height="12" fill="#9C6B4A"/>
<rect x="96" y="180" width="12" height="12" fill="#9C6B4A"/>
<rect x="108" y="168" width="12" height="12" fill="#9C6B4A"/>
<rect x="108" y="156" width="12" height="12" fill="#9C6B4A"/>
<rect x="108" y="144" width="12" height="12" fill="#9C6B4A"/>
<rect x="108" y="192" width="12" height="12" fill="#9C6B4A"/>
<rect x="120" y="204" width="12" height="12" fill="#9C6B4A"/>
<rect x="120" y="216" width="12" height="12" fill="#9C6B4A"/>
<rect x="132" y="228" width="12" height="12" fill="#9C6B4A"/>
<rect x="132" y="240" width="12" height="12" fill="#D4A585"/>
<rect x="144" y="252" width="12" height="12" fill="#D4A585"/>
<rect x="144" y="240" width="12" height="12" fill="#9C6B4A"/>
<rect x="132" y="108" width="12" height="12" fill="#9C6B4A"/>
<rect x="192" y="24" width="12" height="12" fill="#9C6B4A"/>
<rect x="120" y="48" width="12" height="12" fill="#9C6B4A"/>
<rect x="108" y="60" width="12" height="12" fill="#9C6B4A"/>
<rect x="96" y="60" width="12" height="12" fill="#9C6B4A"/>
<rect x="84" y="72" width="12" height="12" fill="#9C6B4A"/>
<rect x="72" y="84" width="12" height="12" fill="#9C6B4A"/>
<rect x="84" y="96" width="12" height="12" fill="#533724"/>
<rect x="96" y="48" width="12" height="12" fill="#9C6B4A"/>
<rect x="204" y="24" width="12" height="12" fill="#9C6B4A"/>
<rect x="216" y="12" width="12" height="12" fill="#9C6B4A"/>
<rect x="204" y="12" width="12" height="12" fill="#9C6B4A"/>
<rect x="228" y="12" width="12" height="12" fill="#9C6B4A"/>
<rect x="240" y="12" width="12" height="12" fill="#9C6B4A"/>
<rect x="252" y="12" width="12" height="12" fill="#9C6B4A"/>
<rect x="240" y="24" width="12" height="12" fill="#9C6B4A"/>
<rect x="144" y="168" width="12" height="12" fill="#9C6B4A"/>
<rect x="12" y="204" width="12" height="12" fill="#9C6B4A"/>
<rect x="24" y="204" width="12" height="12" fill="#9C6B4A"/>
<rect x="24" y="216" width="12" height="12" fill="#9C6B4A"/>
<rect x="36" y="228" width="12" height="12" fill="#9C6B4A"/>
<rect x="12" y="192" width="12" height="12" fill="#9C6B4A"/>
<rect width="12" height="12" transform="matrix(-1 0 0 1 84 132)" fill="#9C6B4A"/>
<rect width="12" height="12" transform="matrix(-1 0 0 1 72 120)" fill="#9C6B4A"/>
<rect width="12" height="12" transform="matrix(-1 0 0 1 60 108)" fill="#9C6B4A"/>
<rect x="144" y="180" width="12" height="12" fill="#9C6B4A"/>
<rect x="192" y="180" width="12" height="12" fill="#966B4F"/>
<rect x="144" y="120" width="12" height="12" fill="black"/>
<rect x="96" y="132" width="12" height="12" fill="black"/>
<rect x="96" y="120" width="12" height="12" fill="black"/>
<rect x="96" y="108" width="12" height="12" fill="black"/>
<rect x="72" y="108" width="12" height="12" fill="black"/>
<rect x="72" y="96" width="12" height="12" fill="black"/>
<rect x="60" y="96" width="12" height="12" fill="black"/>
<rect x="48" y="72" width="12" height="36" fill="black"/>
<rect x="60" y="60" width="12" height="36" fill="black"/>
<rect x="72" y="48" width="12" height="36" fill="black"/>
<rect x="84" y="36" width="12" height="36" fill="black"/>
<rect x="72" y="24" width="12" height="12" fill="black"/>
<rect x="60" y="36" width="12" height="12" fill="black"/>
<rect x="48" y="48" width="12" height="12" fill="black"/>
<rect x="36" y="60" width="12" height="12" fill="black"/>
<rect x="24" y="60" width="12" height="12" fill="black"/>
<rect x="12" y="72" width="12" height="12" fill="black"/>
<rect x="12" y="84" width="12" height="12" fill="black"/>
<rect x="12" y="60" width="12" height="12" fill="black"/>
<rect x="12" y="48" width="12" height="12" fill="black"/>
<rect x="180" y="96" width="12" height="72" fill="black"/>
<rect x="216" y="204" width="12" height="12" fill="#2C2828"/>
<rect x="168" y="192" width="12" height="12" fill="#2C2828"/>
<rect x="168" y="180" width="12" height="12" fill="#2C2828"/>
<rect x="156" y="180" width="12" height="12" fill="#2C2828"/>
<rect x="156" y="168" width="12" height="12" fill="#2C2828"/>
<rect x="144" y="156" width="12" height="12" fill="#2C2828"/>
<rect x="144" y="144" width="12" height="12" fill="black"/>
<rect x="144" y="132" width="12" height="12" fill="black"/>
<rect x="144" y="120" width="12" height="12" fill="black"/>
<rect x="168" y="96" width="12" height="12" fill="black"/>
<rect x="204" y="204" width="12" height="12" fill="#2C2828"/>
<rect x="228" y="204" width="12" height="12" fill="#2C2828"/>
<rect x="240" y="204" width="12" height="12" fill="#2C2828"/>
<rect x="144" y="228" width="12" height="12" fill="black"/>
<rect x="144" y="240" width="12" height="12" fill="black"/>
<rect x="156" y="252" width="12" height="12" fill="black"/>
<rect x="12" y="144" width="12" height="12" fill="#514853"/>
<rect x="12" y="156" width="12" height="12" fill="#514853"/>
<rect x="24" y="156" width="12" height="12" fill="#514853"/>
<rect x="132" y="144" width="12" height="12" fill="#9C6B4A"/>
<rect x="132" y="132" width="12" height="12" fill="#9C6B4A"/>
<rect x="132" y="120" width="12" height="12" fill="#9C6B4A"/>
<rect x="132" y="156" width="12" height="12" fill="#9C6B4A"/>
<rect x="132" y="204" width="12" height="12" fill="black"/>
<rect x="132" y="192" width="12" height="12" fill="black"/>
<rect x="120" y="168" width="12" height="12" fill="black"/>
<rect width="12" height="12" transform="matrix(-1 0 0 1 24 108)" fill="#D0C8CA"/>
<rect width="12" height="12" transform="matrix(-1 0 0 1 24 72)" fill="#D0C8CA"/>
<rect width="12" height="12" transform="matrix(-1 0 0 1 24 60)" fill="#D0C8CA"/>
<rect x="36" y="156" width="12" height="12" fill="#D0C8CA"/>
<rect x="12" y="132" width="12" height="12" fill="#D0C8CA"/>
<rect x="12" y="144" width="12" height="12" fill="#D0C8CA"/>
<g clip-path="url(#clip1_1_3272)">
<g filter="url(#filter0_f_1_3272)">
<rect x="4" y="208" width="272" height="66" fill="url(#paint0_linear_1_3272)" fill-opacity="0.7"/>
</g>
</g>
<rect x="6" y="6" width="264" height="264" stroke="url(#paint1_linear_1_3272)" stroke-width="12"/>
</g>
<rect x="6" y="6" width="264" height="264" stroke="url(#paint2_linear_1_3272)" stroke-width="12"/>
<defs>
<filter id="filter0_f_1_3272" x="-12" y="192" width="304" height="98" filterUnits="userSpaceOnUse" color-interpolation-filters="sRGB">
<feFlood flood-opacity="0" result="BackgroundImageFix"/>
<feBlend mode="normal" in="SourceGraphic" in2="BackgroundImageFix" result="shape"/>
<feGaussianBlur stdDeviation="8" result="effect1_foregroundBlur_1_3272"/>
</filter>
<linearGradient id="paint0_linear_1_3272" x1="161.066" y1="270.383" x2="160.147" y2="186.999" gradientUnits="userSpaceOnUse">
<stop stop-color="white"/>
<stop offset="1" stop-color="white" stop-opacity="0"/>
</linearGradient>
<linearGradient id="paint1_linear_1_3272" x1="299.858" y1="-31.5" x2="-24.6633" y2="297.715" gradientUnits="userSpaceOnUse">
<stop stop-color="#FFAE00"/>
<stop offset="0.245" stop-color="#FFF700"/>
<stop offset="0.56" stop-color="white"/>
<stop offset="0.79" stop-color="#FFFF00"/>
<stop offset="1" stop-color="#FF9500"/>
</linearGradient>
<linearGradient id="paint2_linear_1_3272" x1="299.858" y1="-31.5" x2="-24.6633" y2="297.715" gradientUnits="userSpaceOnUse">
<stop stop-color="#FFAE00"/>
<stop offset="0.245" stop-color="#FFF700"/>
<stop offset="0.56" stop-color="white"/>
<stop offset="0.79" stop-color="#FFFF00"/>
<stop offset="1" stop-color="#FF9500"/>
</linearGradient>
<clipPath id="clip0_1_3272">
<rect x="12" y="12" width="252" height="252" fill="white"/>
</clipPath>
<clipPath id="clip1_1_3272">
<rect x="12" y="12" width="252" height="252" fill="white"/>
</clipPath>
</defs>
</svg>
